<?xml version="1.0" encoding="UTF-8" standalone="no"?>
<!-- Created with Inkscape (http://www.inkscape.org/) -->
<svg
   xmlns:dc="http://purl.org/dc/elements/1.1/"
   xmlns:cc="http://creativecommons.org/ns#"
   xmlns:rdf="http://www.w3.org/1999/02/22-rdf-syntax-ns#"
   xmlns:svg="http://www.w3.org/2000/svg"
   xmlns="http://www.w3.org/2000/svg"
   xmlns:xlink="http://www.w3.org/1999/xlink"
   xmlns:sodipodi="http://sodipodi.sourceforge.net/DTD/sodipodi-0.dtd"
   xmlns:inkscape="http://www.inkscape.org/namespaces/inkscape"
   width="256"
   height="32"
   id="svg2"
   sodipodi:version="0.32"
   inkscape:version="0.46"
   version="1.0"
   sodipodi:docbase="/home/sam/rpg/yags/icons"
   sodipodi:docname="header-combat-left.svg"
   inkscape:output_extension="org.inkscape.output.svg.inkscape">
  <defs
     id="defs4">
    <inkscape:perspective
       sodipodi:type="inkscape:persp3d"
       inkscape:vp_x="0 : 16 : 1"
       inkscape:vp_y="0 : 1000 : 0"
       inkscape:vp_z="256 : 16 : 1"
       inkscape:persp3d-origin="128 : 10.666667 : 1"
       id="perspective22" />
    <inkscape:perspective
       sodipodi:type="inkscape:persp3d"
       inkscape:vp_x="0 : 226.57739 : 1"
       inkscape:vp_y="0 : 1000 : 0"
       inkscape:vp_z="674.29718 : 226.57739 : 1"
       inkscape:persp3d-origin="337.14859 : 151.0516 : 1"
       id="perspective3245" />
    <linearGradient
       inkscape:collect="always"
       id="linearGradient2818">
      <stop
         style="stop-color:#e7e0da;stop-opacity:1;"
         offset="0"
         id="stop2820" />
      <stop
         style="stop-color:#e7e0da;stop-opacity:0;"
         offset="1"
         id="stop2822" />
    </linearGradient>
    <linearGradient
       inkscape:collect="always"
       xlink:href="#linearGradient2818"
       id="linearGradient2828"
       gradientUnits="userSpaceOnUse"
       x1="87.798264"
       y1="359.76712"
       x2="798.61969"
       y2="359.76712"
       gradientTransform="matrix(1.000001,0,0,0.998935,-1.515562,5.130181e-2)" />
    <inkscape:perspective
       sodipodi:type="inkscape:persp3d"
       inkscape:vp_x="0 : 142.50426 : 1"
       inkscape:vp_y="0 : 1000 : 0"
       inkscape:vp_z="508.34912 : 142.50426 : 1"
       inkscape:persp3d-origin="254.17456 : 95.002838 : 1"
       id="perspective2399" />
    <inkscape:perspective
       id="perspective23"
       inkscape:persp3d-origin="256 : 10.666667 : 1"
       inkscape:vp_z="512 : 16 : 1"
       inkscape:vp_y="0 : 1000 : 0"
       inkscape:vp_x="0 : 16 : 1"
       sodipodi:type="inkscape:persp3d" />
  </defs>
  <sodipodi:namedview
     id="base"
     pagecolor="#ffffff"
     bordercolor="#666666"
     borderopacity="1.0"
     gridtolerance="10000"
     guidetolerance="10"
     objecttolerance="10"
     inkscape:pageopacity="0.0"
     inkscape:pageshadow="2"
     inkscape:zoom="1.979899"
     inkscape:cx="129.26818"
     inkscape:cy="32.574694"
     inkscape:document-units="px"
     inkscape:current-layer="layer1"
     width="256px"
     height="32px"
     inkscape:window-width="1718"
     inkscape:window-height="870"
     inkscape:window-x="110"
     inkscape:window-y="90"
     showgrid="false" />
  <metadata
     id="metadata7">
    <rdf:RDF>
      <cc:Work
         rdf:about="">
        <dc:format>image/svg+xml</dc:format>
        <dc:type
           rdf:resource="http://purl.org/dc/dcmitype/StillImage" />
        <cc:license
           rdf:resource="http://creativecommons.org/licenses/GPL/2.0/" />
      </cc:Work>
      <cc:License
         rdf:about="http://creativecommons.org/licenses/GPL/2.0/">
        <cc:permits
           rdf:resource="http://web.resource.org/cc/Reproduction" />
        <cc:permits
           rdf:resource="http://web.resource.org/cc/Distribution" />
        <cc:requires
           rdf:resource="http://web.resource.org/cc/Notice" />
        <cc:permits
           rdf:resource="http://web.resource.org/cc/DerivativeWorks" />
        <cc:requires
           rdf:resource="http://web.resource.org/cc/ShareAlike" />
        <cc:requires
           rdf:resource="http://web.resource.org/cc/SourceCode" />
      </cc:License>
    </rdf:RDF>
  </metadata>
  <g
     inkscape:label="Layer 1"
     inkscape:groupmode="layer"
     id="layer1">
    <rect
       style="opacity:1;color:#000000;fill:#ff0000;fill-opacity:1;fill-rule:nonzero;stroke:none;stroke-width:1;stroke-linecap:round;stroke-linejoin:round;marker:none;marker-start:none;marker-mid:none;marker-end:none;stroke-miterlimit:4;stroke-dasharray:none;stroke-dashoffset:0;stroke-opacity:1;visibility:visible;display:inline;overflow:visible"
       id="rect2228"
       width="256.25339"
       height="31.790068"
       x="-0.089285716"
       y="0.20993064" />
    <path
       style="color:#000000;fill:#f8ffff;fill-opacity:1;fill-rule:nonzero;stroke:none;stroke-width:0.5;stroke-linecap:round;stroke-linejoin:round;marker:none;marker-start:none;marker-mid:none;marker-end:none;stroke-miterlimit:4;stroke-dashoffset:0;stroke-opacity:1;visibility:visible;display:inline;overflow:visible"
       d="M 258.96602,-0.062181838 L 175.90944,-0.062181838 C 187.69525,-0.062181838 177.364,13.438443 186.4218,13.438443 L 258.96602,13.438443 L 258.96602,-0.062181838 z "
       id="rect5197"
       sodipodi:nodetypes="ccccc" />
    <path
       style="font-size:72px;font-style:normal;font-variant:normal;font-weight:bold;font-stretch:normal;text-align:start;line-height:100%;writing-mode:lr-tb;text-anchor:start;fill:#ffffff;fill-opacity:1;stroke:#ff0000;stroke-width:0.76044082999999985;stroke-linecap:butt;stroke-linejoin:miter;stroke-miterlimit:4;stroke-opacity:1;font-family:Sans"
       d="M 184.99237,1.4760324 L 189.7778,1.4760324 L 193.80131,11.635046 L 197.22329,1.4760324 L 202.00872,1.4760324 L 195.7128,17.864125 C 195.08008,19.530557 194.34044,20.693495 193.49386,21.352944 C 192.65618,22.021295 191.54671,22.355473 190.16545,22.355479 L 187.39845,22.355479 L 187.39845,19.214205 L 188.89557,19.214205 C 189.70651,19.214202 190.29466,19.084987 190.66003,18.826558 C 191.0343,18.568125 191.32393,18.104732 191.52889,17.436377 L 191.66257,17.021996 L 184.99237,1.4760324 M 211.52611,9.7101804 C 210.52802,9.7101874 209.77501,9.8795034 209.26707,10.218131 C 208.76802,10.55677 208.5185,11.055809 208.51851,11.715248 C 208.5185,12.321229 208.71901,12.797989 209.12003,13.145531 C 209.52995,13.484168 210.09582,13.653484 210.81765,13.653481 C 211.7177,13.653484 212.47517,13.332674 213.09006,12.691048 C 213.70494,12.040519 214.01238,11.229582 214.0124,10.258232 L 214.0124,9.7101804 L 211.52611,9.7101804 M 218.83793,7.9056184 L 218.83793,16.44721 L 214.0124,16.44721 L 214.0124,14.228268 C 213.37076,15.137234 212.64894,15.801133 211.84692,16.219969 C 211.04489,16.629894 210.06909,16.834856 208.91952,16.834857 C 207.36893,16.834856 206.10797,16.38483 205.13663,15.484777 C 204.17419,14.575815 203.69298,13.399509 203.69298,11.955857 C 203.69298,10.200314 204.2945,8.9126164 205.49754,8.0927584 C 206.70949,7.2729174 208.60762,6.8629924 211.19193,6.8629834 L 214.0124,6.8629834 L 214.0124,6.4887034 C 214.01238,5.7312444 213.71385,5.1787364 213.1168,4.8311804 C 212.51972,4.4747354 211.58848,4.2965074 210.32307,4.2964954 C 209.29825,4.2965074 208.34473,4.3989884 207.46251,4.6039394 C 206.58027,4.8089134 205.76042,5.1163564 205.00296,5.5262704 L 205.00296,1.8770464 C 206.02776,1.6275414 207.05703,1.4404014 208.09076,1.3156274 C 209.12448,1.1819704 210.1582,1.1151354 211.19193,1.1151204 C 213.89208,1.1151354 215.83922,1.6498194 217.03337,2.7191744 C 218.23639,3.7796464 218.83791,5.5084584 218.83793,7.9056184 M 233.50166,13.907457 C 232.84221,14.780777 232.11593,15.422398 231.32282,15.832322 C 230.52969,16.242248 229.61182,16.44721 228.56919,16.44721 C 226.74235,16.44721 225.23186,15.729842 224.03774,14.295103 C 222.84361,12.851458 222.24654,11.015708 222.24654,8.7878484 C 222.24654,6.5510934 222.84361,4.7197994 224.03774,3.2939614 C 225.23186,1.8592374 226.74235,1.1418694 228.56919,1.1418544 C 229.61182,1.1418694 230.52969,1.3468324 231.32282,1.7567424 C 232.11593,2.1666814 232.84221,2.8127584 233.50166,3.6949744 L 233.50166,1.4760324 L 238.31383,1.4760324 L 238.31383,14.936725 C 238.31381,17.342807 237.55189,19.178556 236.02805,20.44398 C 234.5131,21.718307 232.31198,22.355473 229.42469,22.355479 C 228.48898,22.355473 227.58448,22.284182 226.71116,22.141605 C 225.83784,21.999017 224.96007,21.780687 224.07784,21.486616 L 224.07784,17.757188 C 224.91551,18.238403 225.73536,18.594859 226.53739,18.826558 C 227.33941,19.067164 228.14589,19.187468 228.95684,19.187471 C 230.52524,19.187468 231.67481,18.844379 232.40556,18.158202 C 233.13628,17.472022 233.50165,16.398197 233.50166,14.936725 L 233.50166,13.907457 M 230.34702,4.5905724 C 229.35785,4.5905844 228.58701,4.9559514 228.03451,5.6866764 C 227.482,6.4174224 227.20574,7.4511454 227.20575,8.7878484 C 227.20574,10.160213 227.47308,11.202847 228.00778,11.915755 C 228.54245,12.619761 229.3222,12.971762 230.34702,12.971758 C 231.34509,12.971762 232.12038,12.606394 232.6729,11.875654 C 233.2254,11.144923 233.50165,10.115656 233.50166,8.7878484 C 233.50165,7.4511454 233.2254,6.4174224 232.6729,5.6866764 C 232.12038,4.9559514 231.34509,4.5905844 230.34702,4.5905724 M 254.63509,1.9438814 L 254.63509,5.5797394 C 253.61026,5.1520024 252.62109,4.8311924 251.66758,4.6173064 C 250.71405,4.4034444 249.814,4.2965074 248.96743,4.2964954 C 248.05845,4.2965074 247.38118,4.4123564 246.93562,4.6440404 C 246.49895,4.8668374 246.28063,5.2143824 246.28063,5.6866764 C 246.28063,6.0698774 246.44549,6.3639544 246.77522,6.5689064 C 247.11384,6.7738784 247.71536,6.9253724 248.57978,7.0233884 L 249.42191,7.1436924 C 251.87253,7.4556014 253.52115,7.9680074 254.36774,8.6809114 C 255.21431,9.3938324 255.63761,10.512213 255.63762,12.036059 C 255.63761,13.631206 255.04945,14.82979 253.87316,15.631816 C 252.69684,16.433843 250.94129,16.834856 248.60651,16.834857 C 247.61734,16.834856 246.59253,16.754654 245.53207,16.594248 C 244.48052,16.442755 243.39779,16.211058 242.28386,15.899158 L 242.28386,12.2633 C 243.23738,12.726698 244.21318,13.074243 245.21126,13.305936 C 246.21825,13.537636 247.2386,13.653484 248.27233,13.653481 C 249.20802,13.653484 249.91203,13.524269 250.38434,13.265835 C 250.85663,13.007407 251.09279,12.624217 251.0928,12.116262 C 251.09279,11.688519 250.92793,11.372164 250.59821,11.167196 C 250.27739,10.953328 249.63132,10.788467 248.65998,10.672613 L 247.81785,10.565676 C 245.68802,10.29834 244.19536,9.8037574 243.33987,9.0819254 C 242.48437,8.3601094 242.05662,7.2640064 242.05662,5.7936134 C 242.05662,4.2073934 242.60022,3.0310884 243.68741,2.2646924 C 244.7746,1.4983264 246.44103,1.1151354 248.68672,1.1151204 C 249.56893,1.1151354 250.49572,1.1819704 251.46708,1.3156274 C 252.43841,1.4493134 253.49441,1.6587314 254.63509,1.9438814"
       id="text1341" />
    <rect
       style="opacity:1;color:#000000;fill:#f88017;fill-opacity:1;fill-rule:nonzero;stroke:#ff7f2a;stroke-width:0.5;stroke-linecap:round;stroke-linejoin:round;marker:none;marker-start:none;marker-mid:none;marker-end:none;stroke-miterlimit:4;stroke-dasharray:none;stroke-dashoffset:0;stroke-opacity:1;visibility:visible;display:inline;overflow:visible"
       id="rect5201"
       width="14.899758"
       height="0"
       x="151.77541"
       y="-21.790623"
       rx="2.0203068"
       ry="0" />
    <rect
       id="rect2455"
       style="color:#000000;fill:#f88017;fill-opacity:1;fill-rule:nonzero;stroke:#ff7f2a;stroke-width:0.5;stroke-linecap:round;stroke-linejoin:round;marker:none;marker-start:none;marker-mid:none;marker-end:none;stroke-miterlimit:4;stroke-dasharray:none;stroke-dashoffset:0;stroke-opacity:1;visibility:visible;display:inline;overflow:visible"
       y="-77.522881"
       x="80.012123"
       ry="0"
       rx="2.0203068"
       height="0"
       width="14.899758" />
    <text
       xml:space="preserve"
       style="font-size:6px;font-style:italic;font-variant:normal;font-weight:bold;font-stretch:normal;text-align:start;line-height:100%;writing-mode:lr-tb;text-anchor:start;fill:#ffffff;fill-opacity:1;stroke:none;stroke-width:1px;stroke-linecap:butt;stroke-linejoin:miter;stroke-opacity:1;font-family:Sans;-inkscape-font-specification:Sans Bold Italic"
       x="182.47585"
       y="28.262581"
       id="text2413"
       sodipodi:linespacing="100%"><tspan
         sodipodi:role="line"
         id="tspan2415"
         x="182.47585"
         y="28.262581">COMBAT &amp; CONFLICT</tspan></text>
    <g
       transform="matrix(0.1065565,-0.1122582,0.1122582,0.1065565,156.05536,-25.566088)"
       id="g2460"
       inkscape:label="Vrstva 1">
      <g
         inkscape:export-ydpi="90"
         inkscape:export-xdpi="90"
         inkscape:export-filename="/media/KINGSTON/inkscape/9.c/Tomas Krauskopf/vyrobky inscapeu/nastroje/mec.png"
         transform="matrix(0.806649,0,0,0.823727,66.48799,93.05974)"
         id="g2830">
        <g
           id="g3273"
           transform="matrix(0.1818183,0,0,0.1818183,-324.46711,108.87584)">
          <path
             sodipodi:nodetypes="cccccc"
             transform="matrix(9.9810922,0,0,9.7741583,-1043.8448,447.79839)"
             id="path3263"
             d="M 90,-23 L 90,-13 L 190,-14.999999 L 205,-17.999999 L 190,-20.999999 L 90,-23 z"
             style="fill:#d0d0d8;fill-opacity:1;fill-rule:evenodd;stroke:#000000;stroke-width:1px;stroke-linecap:butt;stroke-linejoin:miter;stroke-opacity:1" />
          <path
             sodipodi:nodetypes="ccccc"
             id="path3269"
             d="M -335.18725,252.31522 L -335.18725,291.41185 L -145.5465,301.18601 L -145.5465,242.54107 L -335.18725,252.31522 z"
             style="fill:#000000;fill-opacity:1;fill-rule:evenodd;stroke:#000000;stroke-width:9.87708378px;stroke-linecap:butt;stroke-linejoin:miter;stroke-opacity:1" />
          <path
             sodipodi:nodetypes="ccccscc"
             id="path3265"
             d="M -105.62213,379.37928 L -125.58432,271.86355 L -105.62213,164.3478 L -135.56541,135.02532 C -135.56541,135.02532 -155.52759,230.39531 -155.52759,271.86355 C -155.52759,313.33179 -135.56541,408.70176 -135.56541,408.70176 L -105.62213,379.37928 z"
             style="fill:#000000;fill-opacity:1;fill-rule:evenodd;stroke:#ffffff;stroke-width:3.95083332;stroke-linecap:butt;stroke-linejoin:bevel;stroke-miterlimit:4;stroke-dasharray:none;stroke-opacity:1" />
          <path
             transform="matrix(9.9810922,0,0,9.7741583,-1043.8448,447.79839)"
             id="path3267"
             d="M 93,-18 L 195,-18"
             style="fill:none;fill-opacity:0.75;fill-rule:evenodd;stroke:#ffffff;stroke-width:1px;stroke-linecap:butt;stroke-linejoin:miter;stroke-opacity:1" />
          <path
             transform="matrix(9.9810922,0,0,9.7741583,-993.93932,433.13716)"
             d="M 69,-16.5 A 4.5,4.5 0 1 1 60,-16.5 A 4.5,4.5 0 1 1 69,-16.5 z"
             sodipodi:ry="4.5"
             sodipodi:rx="4.5"
             sodipodi:cy="-16.5"
             sodipodi:cx="64.5"
             id="path3271"
             style="opacity:1;color:#000000;fill:#000000;fill-opacity:1;fill-rule:nonzero;stroke:#ffffff;stroke-width:0.30000001;stroke-linecap:round;stroke-linejoin:bevel;marker:none;marker-start:none;marker-mid:none;marker-end:none;stroke-miterlimit:4;stroke-dasharray:none;stroke-dashoffset:0;stroke-opacity:1;visibility:visible;display:inline;overflow:visible"
             sodipodi:type="arc" />
        </g>
      </g>
    </g>
    <g
       id="g3210"
       transform="matrix(0.1625419,0,0,0.1625419,143.71152,27.27217)">
      <path
         sodipodi:nodetypes="cccccccccccccccccccccsccccc"
         id="path2411"
         d="M 50,-98 L 55,-98 C 55,-93 55.165164,-93 57.687709,-93 C 60.165164,-93 60,-98 60,-98 L 65,-98 C 65,-93 65,-93 67.522546,-93 C 70,-93 70,-98 70,-98 L 135,-98 L 137.85287,-95.147127 L 150,-95.147127 L 155,-98 L 180,-98 L 185,-78 L 195,-78 L 195,-73 L 180,-68 L 200,-23 L 170,-18 L 166.98196,-21.1832 L 170,-23 L 160,-58 C 160,-58 143.19668,-58 135,-58 C 131.6459,-58 130,-68 130,-68 L 100,-68 L 95,-78 L 50,-78 L 50,-98 z"
         style="fill:#000000;fill-opacity:1;fill-rule:evenodd;stroke:#000000;stroke-width:1px;stroke-linecap:butt;stroke-linejoin:miter;stroke-opacity:1" />
      <path
         sodipodi:nodetypes="cssss"
         id="rect3183"
         d="M 136.98196,-69.651636 C 141.98196,-69.651636 145.80245,-69.651636 153.1832,-69.651636 C 155.52553,-69.651636 155.5219,-60.15742 153.1832,-60.027054 C 148.1832,-59.748341 142.14401,-60.008215 137.14713,-60.192218 C 133.31844,-60.333204 133.15315,-69.651636 136.98196,-69.651636 z"
         style="color:#000000;fill:#ffffff;fill-opacity:1;fill-rule:nonzero;stroke:none;stroke-width:2;stroke-linecap:round;stroke-linejoin:round;marker:none;marker-start:none;marker-mid:none;marker-end:none;stroke-miterlimit:4;stroke-dashoffset:0;stroke-opacity:1;visibility:visible;display:inline;overflow:visible" />
      <path
         sodipodi:nodetypes="cc"
         id="path3186"
         d="M 75,-93 C 135,-93 130,-93 130,-93"
         style="fill:none;fill-opacity:0.75;fill-rule:evenodd;stroke:#ffffff;stroke-width:1px;stroke-linecap:butt;stroke-linejoin:miter;stroke-opacity:1" />
      <path
         sodipodi:nodetypes="cc"
         id="path3188"
         d="M 100,-75.521522 C 160,-75.521522 155,-75.521522 155,-75.521522"
         style="fill:none;fill-opacity:0.75;fill-rule:evenodd;stroke:#ffffff;stroke-width:1px;stroke-linecap:butt;stroke-linejoin:miter;stroke-opacity:1" />
      <path
         sodipodi:nodetypes="cc"
         id="path3190"
         d="M 50.526979,-88 C 173.7638,-88 163.49406,-88 163.49406,-88"
         style="fill:none;fill-opacity:0.75;fill-rule:evenodd;stroke:#969594;stroke-width:1.43315983px;stroke-linecap:butt;stroke-linejoin:miter;stroke-opacity:1" />
      <path
         sodipodi:nodetypes="csss"
         id="path3192"
         d="M 142.66487,-70.298899 C 142.05313,-71.272372 145.90291,-71.283057 146.49731,-70.298899 C 147.77441,-68.184407 142.6192,-60.541229 142.66487,-63.011038 C 142.72997,-66.531561 145.03233,-66.531561 142.66487,-70.298899 z"
         style="fill:#000000;fill-opacity:1;fill-rule:evenodd;stroke:#000000;stroke-width:0.6102488px;stroke-linecap:butt;stroke-linejoin:miter;stroke-opacity:1" />
      <path
         id="path3194"
         d="M 160,-83 C 160,-73 160,-73 160,-73"
         style="fill:none;fill-opacity:0.75;fill-rule:evenodd;stroke:#ffffff;stroke-width:0.5;stroke-linecap:butt;stroke-linejoin:miter;stroke-miterlimit:4;stroke-dasharray:none;stroke-opacity:1" />
      <path
         id="path3196"
         d="M 165,-83 C 165,-73 165,-73 165,-73"
         style="fill:none;fill-opacity:0.75;fill-rule:evenodd;stroke:#ffffff;stroke-width:0.5;stroke-linecap:butt;stroke-linejoin:miter;stroke-miterlimit:4;stroke-dasharray:none;stroke-opacity:1" />
      <path
         id="path3198"
         d="M 170,-83 C 170,-73 170,-73 170,-73"
         style="fill:none;fill-opacity:0.75;fill-rule:evenodd;stroke:#ffffff;stroke-width:0.5;stroke-linecap:butt;stroke-linejoin:miter;stroke-miterlimit:4;stroke-dasharray:none;stroke-opacity:1" />
      <path
         id="path3200"
         d="M 175,-83 C 175,-73 175,-73 175,-73"
         style="fill:none;fill-opacity:0.75;fill-rule:evenodd;stroke:#ffffff;stroke-width:0.5;stroke-linecap:butt;stroke-linejoin:miter;stroke-miterlimit:4;stroke-dasharray:none;stroke-opacity:1" />
      <path
         id="path3202"
         d="M 162.52101,-83 C 162.52101,-73 162.52101,-73 162.52101,-73"
         style="fill:none;fill-opacity:0.75;fill-rule:evenodd;stroke:#ffffff;stroke-width:0.5;stroke-linecap:butt;stroke-linejoin:miter;stroke-miterlimit:4;stroke-dasharray:none;stroke-opacity:1" />
      <path
         id="path3204"
         d="M 167.47592,-83 C 167.47592,-73 167.47592,-73 167.47592,-73"
         style="fill:none;fill-opacity:0.75;fill-rule:evenodd;stroke:#ffffff;stroke-width:0.5;stroke-linecap:butt;stroke-linejoin:miter;stroke-miterlimit:4;stroke-dasharray:none;stroke-opacity:1" />
      <path
         id="path3206"
         d="M 172.59599,-83 C 172.59599,-73 172.59599,-73 172.59599,-73"
         style="fill:none;fill-opacity:0.75;fill-rule:evenodd;stroke:#ffffff;stroke-width:0.5;stroke-linecap:butt;stroke-linejoin:miter;stroke-miterlimit:4;stroke-dasharray:none;stroke-opacity:1" />
      <path
         sodipodi:nodetypes="cc"
         id="path3208"
         d="M 196.98196,-29.861891 C 184.92502,-22.669673 170,-23 170,-23"
         style="fill:none;fill-opacity:0.75;fill-rule:evenodd;stroke:#ffffff;stroke-width:0.5;stroke-linecap:butt;stroke-linejoin:miter;stroke-miterlimit:4;stroke-dasharray:none;stroke-opacity:1" />
    </g>
  </g>
</svg>
