<?xml version="1.0" encoding="UTF-8" standalone="no"?>
<!-- Created with Inkscape (http://www.inkscape.org/) -->
<svg
   xmlns:dc="http://purl.org/dc/elements/1.1/"
   xmlns:cc="http://web.resource.org/cc/"
   xmlns:rdf="http://www.w3.org/1999/02/22-rdf-syntax-ns#"
   xmlns:svg="http://www.w3.org/2000/svg"
   xmlns="http://www.w3.org/2000/svg"
   xmlns:sodipodi="http://sodipodi.sourceforge.net/DTD/sodipodi-0.dtd"
   xmlns:inkscape="http://www.inkscape.org/namespaces/inkscape"
   width="256"
   height="32"
   id="svg2"
   sodipodi:version="0.32"
   inkscape:version="0.45.1"
   version="1.0"
   sodipodi:docbase="/home/sam/rpg/yags/icons"
   sodipodi:docname="header-core-left.svg"
   inkscape:output_extension="org.inkscape.output.svg.inkscape">
  <defs
     id="defs4" />
  <sodipodi:namedview
     id="base"
     pagecolor="#ffffff"
     bordercolor="#666666"
     borderopacity="1.0"
     gridtolerance="10000"
     guidetolerance="10"
     objecttolerance="10"
     inkscape:pageopacity="0.0"
     inkscape:pageshadow="2"
     inkscape:zoom="5.6"
     inkscape:cx="127.57715"
     inkscape:cy="32.574694"
     inkscape:document-units="px"
     inkscape:current-layer="layer1"
     width="256px"
     height="32px"
     inkscape:window-width="1718"
     inkscape:window-height="870"
     inkscape:window-x="98"
     inkscape:window-y="152" />
  <metadata
     id="metadata7">
    <rdf:RDF>
      <cc:Work
         rdf:about="">
        <dc:format>image/svg+xml</dc:format>
        <dc:type
           rdf:resource="http://purl.org/dc/dcmitype/StillImage" />
        <cc:license
           rdf:resource="http://creativecommons.org/licenses/GPL/2.0/" />
      </cc:Work>
      <cc:License
         rdf:about="http://creativecommons.org/licenses/GPL/2.0/">
        <cc:permits
           rdf:resource="http://web.resource.org/cc/Reproduction" />
        <cc:permits
           rdf:resource="http://web.resource.org/cc/Distribution" />
        <cc:requires
           rdf:resource="http://web.resource.org/cc/Notice" />
        <cc:permits
           rdf:resource="http://web.resource.org/cc/DerivativeWorks" />
        <cc:requires
           rdf:resource="http://web.resource.org/cc/ShareAlike" />
        <cc:requires
           rdf:resource="http://web.resource.org/cc/SourceCode" />
      </cc:License>
    </rdf:RDF>
  </metadata>
  <g
     inkscape:label="Layer 1"
     inkscape:groupmode="layer"
     id="layer1">
    <rect
       style="opacity:1;color:#000000;fill:#ffa500;fill-opacity:1;fill-rule:nonzero;stroke:none;stroke-width:1;stroke-linecap:round;stroke-linejoin:round;marker:none;marker-start:none;marker-mid:none;marker-end:none;stroke-miterlimit:4;stroke-dasharray:none;stroke-dashoffset:0;stroke-opacity:1;visibility:visible;display:inline;overflow:visible"
       id="rect2228"
       width="256.25339"
       height="31.790068"
       x="-0.089285716"
       y="0.20993064" />
    <rect
       ry="0"
       y="-65.131989"
       x="1.7726569"
       height="18.362383"
       width="74.474548"
       id="rect1339"
       style="color:#000000;fill:#ffffff;fill-opacity:1;fill-rule:evenodd;stroke:#ffffff;stroke-width:0;stroke-linecap:round;stroke-linejoin:miter;marker:none;marker-start:none;marker-mid:none;marker-end:none;stroke-miterlimit:4;stroke-dasharray:none;stroke-dashoffset:0;stroke-opacity:1;visibility:visible;display:inline;overflow:visible" />
    <path
       style="color:#000000;fill:#f8ffff;fill-opacity:1;fill-rule:nonzero;stroke:none;stroke-width:0.5;stroke-linecap:round;stroke-linejoin:round;marker:none;marker-start:none;marker-mid:none;marker-end:none;stroke-miterlimit:4;stroke-dashoffset:0;stroke-opacity:1;visibility:visible;display:inline;overflow:visible"
       d="M 258.96602,-0.062181838 L 175.90944,-0.062181838 C 187.69525,-0.062181838 177.364,13.438443 186.4218,13.438443 L 258.96602,13.438443 L 258.96602,-0.062181838 z "
       id="rect5197"
       sodipodi:nodetypes="ccccc" />
    <path
       style="font-size:72px;font-style:normal;font-variant:normal;font-weight:bold;font-stretch:normal;text-align:start;line-height:100%;writing-mode:lr-tb;text-anchor:start;fill:#ffffff;fill-opacity:1;stroke:#ffa500;stroke-width:0.76044083;stroke-linecap:butt;stroke-linejoin:miter;stroke-miterlimit:4;stroke-opacity:1;font-family:Sans"
       d="M 184.99237,1.4760324 L 189.7778,1.4760324 L 193.80131,11.635046 L 197.22329,1.4760324 L 202.00872,1.4760324 L 195.7128,17.864125 C 195.08008,19.530557 194.34044,20.693495 193.49386,21.352944 C 192.65618,22.021295 191.54671,22.355473 190.16545,22.355479 L 187.39845,22.355479 L 187.39845,19.214205 L 188.89557,19.214205 C 189.70651,19.214202 190.29466,19.084987 190.66003,18.826558 C 191.0343,18.568125 191.32393,18.104732 191.52889,17.436377 L 191.66257,17.021996 L 184.99237,1.4760324 M 211.52611,9.7101804 C 210.52802,9.7101874 209.77501,9.8795034 209.26707,10.218131 C 208.76802,10.55677 208.5185,11.055809 208.51851,11.715248 C 208.5185,12.321229 208.71901,12.797989 209.12003,13.145531 C 209.52995,13.484168 210.09582,13.653484 210.81765,13.653481 C 211.7177,13.653484 212.47517,13.332674 213.09006,12.691048 C 213.70494,12.040519 214.01238,11.229582 214.0124,10.258232 L 214.0124,9.7101804 L 211.52611,9.7101804 M 218.83793,7.9056184 L 218.83793,16.44721 L 214.0124,16.44721 L 214.0124,14.228268 C 213.37076,15.137234 212.64894,15.801133 211.84692,16.219969 C 211.04489,16.629894 210.06909,16.834856 208.91952,16.834857 C 207.36893,16.834856 206.10797,16.38483 205.13663,15.484777 C 204.17419,14.575815 203.69298,13.399509 203.69298,11.955857 C 203.69298,10.200314 204.2945,8.9126164 205.49754,8.0927584 C 206.70949,7.2729174 208.60762,6.8629924 211.19193,6.8629834 L 214.0124,6.8629834 L 214.0124,6.4887034 C 214.01238,5.7312444 213.71385,5.1787364 213.1168,4.8311804 C 212.51972,4.4747354 211.58848,4.2965074 210.32307,4.2964954 C 209.29825,4.2965074 208.34473,4.3989884 207.46251,4.6039394 C 206.58027,4.8089134 205.76042,5.1163564 205.00296,5.5262704 L 205.00296,1.8770464 C 206.02776,1.6275414 207.05703,1.4404014 208.09076,1.3156274 C 209.12448,1.1819704 210.1582,1.1151354 211.19193,1.1151204 C 213.89208,1.1151354 215.83922,1.6498194 217.03337,2.7191744 C 218.23639,3.7796464 218.83791,5.5084584 218.83793,7.9056184 M 233.50166,13.907457 C 232.84221,14.780777 232.11593,15.422398 231.32282,15.832322 C 230.52969,16.242248 229.61182,16.44721 228.56919,16.44721 C 226.74235,16.44721 225.23186,15.729842 224.03774,14.295103 C 222.84361,12.851458 222.24654,11.015708 222.24654,8.7878484 C 222.24654,6.5510934 222.84361,4.7197994 224.03774,3.2939614 C 225.23186,1.8592374 226.74235,1.1418694 228.56919,1.1418544 C 229.61182,1.1418694 230.52969,1.3468324 231.32282,1.7567424 C 232.11593,2.1666814 232.84221,2.8127584 233.50166,3.6949744 L 233.50166,1.4760324 L 238.31383,1.4760324 L 238.31383,14.936725 C 238.31381,17.342807 237.55189,19.178556 236.02805,20.44398 C 234.5131,21.718307 232.31198,22.355473 229.42469,22.355479 C 228.48898,22.355473 227.58448,22.284182 226.71116,22.141605 C 225.83784,21.999017 224.96007,21.780687 224.07784,21.486616 L 224.07784,17.757188 C 224.91551,18.238403 225.73536,18.594859 226.53739,18.826558 C 227.33941,19.067164 228.14589,19.187468 228.95684,19.187471 C 230.52524,19.187468 231.67481,18.844379 232.40556,18.158202 C 233.13628,17.472022 233.50165,16.398197 233.50166,14.936725 L 233.50166,13.907457 M 230.34702,4.5905724 C 229.35785,4.5905844 228.58701,4.9559514 228.03451,5.6866764 C 227.482,6.4174224 227.20574,7.4511454 227.20575,8.7878484 C 227.20574,10.160213 227.47308,11.202847 228.00778,11.915755 C 228.54245,12.619761 229.3222,12.971762 230.34702,12.971758 C 231.34509,12.971762 232.12038,12.606394 232.6729,11.875654 C 233.2254,11.144923 233.50165,10.115656 233.50166,8.7878484 C 233.50165,7.4511454 233.2254,6.4174224 232.6729,5.6866764 C 232.12038,4.9559514 231.34509,4.5905844 230.34702,4.5905724 M 254.63509,1.9438814 L 254.63509,5.5797394 C 253.61026,5.1520024 252.62109,4.8311924 251.66758,4.6173064 C 250.71405,4.4034444 249.814,4.2965074 248.96743,4.2964954 C 248.05845,4.2965074 247.38118,4.4123564 246.93562,4.6440404 C 246.49895,4.8668374 246.28063,5.2143824 246.28063,5.6866764 C 246.28063,6.0698774 246.44549,6.3639544 246.77522,6.5689064 C 247.11384,6.7738784 247.71536,6.9253724 248.57978,7.0233884 L 249.42191,7.1436924 C 251.87253,7.4556014 253.52115,7.9680074 254.36774,8.6809114 C 255.21431,9.3938324 255.63761,10.512213 255.63762,12.036059 C 255.63761,13.631206 255.04945,14.82979 253.87316,15.631816 C 252.69684,16.433843 250.94129,16.834856 248.60651,16.834857 C 247.61734,16.834856 246.59253,16.754654 245.53207,16.594248 C 244.48052,16.442755 243.39779,16.211058 242.28386,15.899158 L 242.28386,12.2633 C 243.23738,12.726698 244.21318,13.074243 245.21126,13.305936 C 246.21825,13.537636 247.2386,13.653484 248.27233,13.653481 C 249.20802,13.653484 249.91203,13.524269 250.38434,13.265835 C 250.85663,13.007407 251.09279,12.624217 251.0928,12.116262 C 251.09279,11.688519 250.92793,11.372164 250.59821,11.167196 C 250.27739,10.953328 249.63132,10.788467 248.65998,10.672613 L 247.81785,10.565676 C 245.68802,10.29834 244.19536,9.8037574 243.33987,9.0819254 C 242.48437,8.3601094 242.05662,7.2640064 242.05662,5.7936134 C 242.05662,4.2073934 242.60022,3.0310884 243.68741,2.2646924 C 244.7746,1.4983264 246.44103,1.1151354 248.68672,1.1151204 C 249.56893,1.1151354 250.49572,1.1819704 251.46708,1.3156274 C 252.43841,1.4493134 253.49441,1.6587314 254.63509,1.9438814"
       id="text1341" />
    <path
       style="font-size:56px;font-style:oblique;font-variant:normal;font-weight:bold;font-stretch:normal;text-align:start;line-height:100%;writing-mode:lr-tb;text-anchor:start;fill:#ffffff;fill-opacity:1;stroke:none;stroke-width:1px;stroke-linecap:butt;stroke-linejoin:miter;stroke-opacity:1;font-family:Sans"
       d="M 213.37012,27.128581 C 213.12365,27.216098 212.88699,27.282183 212.66017,27.326833 C 212.43333,27.371484 212.21811,27.39381 212.01451,27.39381 C 211.4769,27.39381 211.04735,27.246459 210.72586,26.951761 C 210.40437,26.657061 210.24363,26.266809 210.24363,25.780998 C 210.24363,25.461295 210.29453,25.160345 210.39633,24.878145 C 210.49814,24.594164 210.64817,24.335185 210.84642,24.101208 C 211.08039,23.826158 211.3617,23.61451 211.69033,23.466264 C 212.02075,23.318026 212.37618,23.243903 212.75661,23.2439 C 212.96379,23.243903 213.17187,23.268909 213.38084,23.318914 C 213.5898,23.367142 213.80235,23.441264 214.01846,23.541278 L 213.85236,24.369118 C 213.68089,24.238739 213.50854,24.143184 213.33529,24.082454 C 213.16204,24.021732 212.97629,23.991369 212.77805,23.991366 C 212.36547,23.991369 212.01986,24.150328 211.74123,24.468244 C 211.46261,24.786165 211.3233,25.183564 211.3233,25.660439 C 211.3233,25.967642 211.40903,26.208761 211.58049,26.383794 C 211.75195,26.558829 211.9886,26.646345 212.29045,26.646345 C 212.47084,26.646345 212.66194,26.614196 212.86377,26.549897 C 213.06738,26.483814 213.2951,26.381115 213.54694,26.241802 L 213.37012,27.128581 M 217.45037,24.955839 C 217.45037,24.641493 217.37893,24.402163 217.23605,24.237842 C 217.09495,24.073529 216.88955,23.991369 216.61986,23.991366 C 216.26265,23.991369 215.96259,24.152115 215.71969,24.473603 C 215.47857,24.793309 215.35801,25.194279 215.35801,25.676512 C 215.35801,25.983718 215.42855,26.222156 215.56965,26.391832 C 215.71075,26.561507 215.90722,26.646345 216.15906,26.646345 C 216.36445,26.646345 216.54663,26.60348 216.70559,26.517748 C 216.86633,26.430231 217.00296,26.301636 217.11549,26.131959 C 217.22265,25.969429 217.30481,25.786357 217.36196,25.582745 C 217.4209,25.379136 217.45037,25.170167 217.45037,24.955839 M 216.76989,23.2439 C 217.30213,23.243903 217.72989,23.392146 218.05318,23.688629 C 218.37824,23.983332 218.54076,24.369121 218.54076,24.845996 C 218.54076,25.17106 218.49075,25.478262 218.39074,25.767602 C 218.2925,26.056945 218.14872,26.316816 217.9594,26.547217 C 217.72721,26.831202 217.45216,27.043743 217.13424,27.184842 C 216.81811,27.324154 216.45286,27.39381 216.0385,27.39381 C 215.50803,27.39381 215.08117,27.246459 214.75789,26.951761 C 214.43461,26.657061 214.27298,26.27038 214.27298,25.791714 C 214.27298,25.464867 214.32209,25.156772 214.42032,24.867428 C 214.51856,24.578089 214.66323,24.317325 214.85434,24.085134 C 215.08295,23.802941 215.35533,23.592186 215.67146,23.452868 C 215.98938,23.313561 216.35552,23.243903 216.76989,23.2439 M 220.75102,25.089793 C 220.98499,25.089795 221.16181,25.03532 221.28147,24.926368 C 221.40293,24.817421 221.46365,24.657568 221.46366,24.446811 C 221.46365,24.314645 221.42168,24.218198 221.33774,24.15747 C 221.25558,24.094961 221.12519,24.063705 220.94659,24.063701 L 220.52061,24.063701 L 220.31701,25.089793 L 220.75102,25.089793 M 220.18037,25.802431 L 219.88299,27.316118 L 218.85154,27.316118 L 219.63116,23.316236 L 221.15555,23.316236 C 221.59492,23.316239 221.92803,23.398397 222.15486,23.562712 C 222.38169,23.727032 222.4951,23.969043 222.49511,24.288745 C 222.4951,24.612024 222.4058,24.878147 222.2272,25.087114 C 222.04859,25.296084 221.80658,25.41575 221.50116,25.446113 C 221.64047,25.474691 221.75657,25.546133 221.84945,25.660439 C 221.94232,25.772964 222.02358,25.94621 222.09324,26.180183 L 222.43348,27.316118 L 221.4074,27.316118 L 221.10734,26.322175 C 221.0466,26.123922 220.97248,25.988182 220.88497,25.914953 C 220.79924,25.839941 220.67421,25.802433 220.5099,25.802431 L 220.18037,25.802431 M 223.8534,23.316236 L 226.6343,23.316236 L 226.48159,24.095851 L 224.73215,24.095851 L 224.58747,24.840637 L 226.23511,24.840637 L 226.07972,25.620252 L 224.43477,25.620252 L 224.25794,26.536503 L 226.06365,26.536503 L 225.9163,27.316118 L 223.07378,27.316118 L 223.8534,23.316236 M 230.6315,25.089793 C 230.86548,25.089795 231.04229,25.03532 231.16196,24.926368 C 231.28341,24.817421 231.34414,24.657568 231.34414,24.446811 C 231.34414,24.314645 231.30216,24.218198 231.21822,24.15747 C 231.13606,24.094961 231.00568,24.063705 230.82708,24.063701 L 230.4011,24.063701 L 230.19749,25.089793 L 230.6315,25.089793 M 230.06086,25.802431 L 229.76348,27.316118 L 228.73203,27.316118 L 229.51164,23.316236 L 231.03604,23.316236 C 231.47541,23.316239 231.80851,23.398397 232.03535,23.562712 C 232.26217,23.727032 232.37559,23.969043 232.37559,24.288745 C 232.37559,24.612024 232.28628,24.878147 232.10768,25.087114 C 231.92907,25.296084 231.68706,25.41575 231.38164,25.446113 C 231.52095,25.474691 231.63705,25.546133 231.72993,25.660439 C 231.8228,25.772964 231.90406,25.94621 231.97373,26.180183 L 232.31397,27.316118 L 231.28788,27.316118 L 230.98782,26.322175 C 230.92709,26.123922 230.85297,25.988182 230.76546,25.914953 C 230.67972,25.839941 230.5547,25.802433 230.39038,25.802431 L 230.06086,25.802431 M 233.73389,23.316236 L 234.76534,23.316236 L 234.29918,25.711341 C 234.28131,25.797074 234.26792,25.872981 234.25899,25.939063 C 234.25185,26.005149 234.24827,26.063197 234.24827,26.113206 C 234.24827,26.288241 234.29471,26.419516 234.38758,26.507032 C 234.48225,26.592763 234.62245,26.635628 234.8082,26.635628 C 235.05825,26.635628 235.25025,26.565972 235.38421,26.426659 C 235.51816,26.285561 235.61728,26.048016 235.68159,25.714021 L 236.14775,23.316236 L 237.1792,23.316236 L 236.71303,25.714021 C 236.59694,26.303422 236.37636,26.731182 236.0513,26.997305 C 235.72802,27.261642 235.26454,27.39381 234.66086,27.39381 C 234.18755,27.39381 233.82766,27.292897 233.58118,27.091073 C 233.3347,26.887462 233.21147,26.592763 233.21147,26.206974 C 233.21147,26.142676 233.21593,26.071234 233.22486,25.992647 C 233.23379,25.912276 233.24808,25.8194 233.26772,25.714021 L 233.73389,23.316236 M 238.1919,23.316236 L 239.22335,23.316236 L 238.59643,26.536503 L 240.40215,26.536503 L 240.2548,27.316118 L 237.41228,27.316118 L 238.1919,23.316236 M 241.68543,23.316236 L 244.46632,23.316236 L 244.31361,24.095851 L 242.56417,24.095851 L 242.4195,24.840637 L 244.06714,24.840637 L 243.91175,25.620252 L 242.26679,25.620252 L 242.08997,26.536503 L 243.89568,26.536503 L 243.74833,27.316118 L 240.90581,27.316118 L 241.68543,23.316236 M 248.19026,23.442153 L 248.02415,24.288745 C 247.82232,24.188729 247.62318,24.114608 247.42672,24.066381 C 247.23025,24.016374 247.03825,23.991369 246.85072,23.991366 C 246.59352,23.991369 246.39259,24.031556 246.24792,24.111926 C 246.10503,24.192301 246.03359,24.30393 246.0336,24.446811 C 246.03359,24.537903 246.06485,24.609346 246.12736,24.661139 C 246.19165,24.711152 246.32293,24.760268 246.52118,24.808489 L 246.94448,24.912973 C 247.29811,25.002278 247.5571,25.131768 247.72142,25.301441 C 247.88752,25.469333 247.97057,25.687233 247.97058,25.955139 C 247.97057,26.389154 247.80536,26.737435 247.47494,26.999985 C 247.14631,27.262536 246.70426,27.39381 246.14879,27.39381 C 245.88981,27.39381 245.63173,27.369698 245.37453,27.321475 C 245.11912,27.273251 244.86908,27.201809 244.62439,27.107149 L 244.78781,26.236444 C 245.02536,26.373971 245.25576,26.476669 245.47902,26.544539 C 245.70407,26.61241 245.92553,26.646345 246.14343,26.646345 C 246.37919,26.646345 246.5703,26.598121 246.71676,26.501674 C 246.865,26.405227 246.93912,26.281988 246.93912,26.131959 C 246.93912,26.033726 246.90608,25.957819 246.84,25.904236 C 246.77391,25.84887 246.62924,25.792609 246.40599,25.735454 L 245.98537,25.630969 C 245.6746,25.55417 245.4433,25.432718 245.29149,25.266613 C 245.13967,25.100512 245.06376,24.885291 245.06376,24.620952 C 245.06376,24.204803 245.22272,23.871703 245.54064,23.62165 C 245.86034,23.369821 246.28989,23.243903 246.82929,23.2439 C 247.04539,23.243903 247.26686,23.260872 247.4937,23.294802 C 247.72231,23.326955 247.9545,23.376072 248.19026,23.442153"
       id="text1345" />
    <rect
       style="opacity:1;color:#000000;fill:#f88017;fill-opacity:1;fill-rule:nonzero;stroke:#ff7f2a;stroke-width:0.5;stroke-linecap:round;stroke-linejoin:round;marker:none;marker-start:none;marker-mid:none;marker-end:none;stroke-miterlimit:4;stroke-dasharray:none;stroke-dashoffset:0;stroke-opacity:1;visibility:visible;display:inline;overflow:visible"
       id="rect5201"
       width="14.899758"
       height="0"
       x="151.77541"
       y="-21.790623"
       rx="2.0203068"
       ry="0" />
    <g
       id="g4845"
       transform="matrix(1.7259165,0,0,1.7259165,58.39552,-27.927251)">
      <g
         transform="matrix(0.1199409,0,0,0.1199409,66.835826,22.350052)"
         id="g4832">
        <path
           style="fill:#999999;fill-opacity:1;stroke:none;stroke-width:3;stroke-linecap:round;stroke-linejoin:round;stroke-miterlimit:4;stroke-dasharray:none;stroke-dashoffset:1.08779998;stroke-opacity:1"
           d="M -52.453143,-41.969526 C -54.370877,-41.959404 -55.602121,-41.867648 -57.505433,-41.603418 C -58.068917,-41.513689 -58.530535,-41.146193 -58.530535,-40.578315 L -58.878338,-35.050085 C -58.930184,-34.49056 -59.321559,-34.122027 -59.738692,-33.988371 C -59.75148,-33.984271 -59.762472,-33.97371 -59.775303,-33.970066 C -62.186834,-33.322687 -64.474914,-32.375534 -66.584911,-31.151034 C -66.966569,-30.985887 -67.458958,-30.99584 -67.866289,-31.334088 L -72.021615,-34.995168 C -72.423161,-35.396716 -73.005847,-35.33016 -73.467742,-34.995168 C -75.000425,-33.836164 -75.948675,-33.030773 -77.311876,-31.681891 C -78.660761,-30.318692 -79.466148,-29.370443 -80.625153,-27.837757 C -80.960143,-27.375863 -81.026699,-26.793178 -80.625153,-26.39163 L -76.964073,-22.236305 C -76.68658,-21.902133 -76.532826,-21.469616 -76.689492,-21.156286 L -76.726103,-21.083064 C -78.041466,-18.857362 -79.066183,-16.434188 -79.728189,-13.870736 C -79.735127,-13.858647 -79.739124,-13.846039 -79.746494,-13.834125 C -79.932306,-13.533717 -80.247558,-13.288429 -80.680069,-13.248353 L -86.2083,-12.90055 C -86.776172,-12.90055 -87.143668,-12.438932 -87.233403,-11.875448 C -87.497633,-9.9721359 -87.589389,-8.7408909 -87.599511,-6.8231569 C -87.589389,-4.9054229 -87.497633,-3.6741789 -87.233403,-1.770867 C -87.143668,-1.207385 -86.776172,-0.74576496 -86.2083,-0.74576496 L -80.680069,-0.39796196 C -80.172002,-0.35088296 -79.834544,-0.019220957 -79.673272,0.35255904 C -79.02703,2.779624 -78.052877,5.076353 -76.81763,7.198779 C -76.599183,7.590372 -76.594082,8.14443 -76.964073,8.589989 L -80.625153,12.745315 C -81.026699,13.14686 -80.960145,13.729548 -80.625153,14.191441 C -79.466148,15.724122 -78.660761,16.672371 -77.311876,18.035575 C -75.948675,19.384458 -75.000426,20.189849 -73.467742,21.348853 C -73.005848,21.683845 -72.423161,21.7504 -72.021615,21.348853 L -67.866289,17.687773 C -67.420728,17.317781 -66.866672,17.322883 -66.475079,17.54133 L -66.420163,17.486413 C -64.353758,18.668017 -62.127507,19.600772 -59.775303,20.232223 L -59.775303,20.32375 C -59.343939,20.446183 -58.931773,20.827087 -58.878338,21.403769 L -58.530535,26.932 C -58.530535,27.499871 -58.068917,27.867368 -57.505433,27.957102 C -55.602121,28.221333 -54.370877,28.313088 -52.453143,28.32321 C -50.535409,28.313088 -49.304164,28.221333 -47.400852,27.957102 C -46.83737,27.867368 -46.37575,27.499871 -46.37575,26.932 L -46.027947,21.403769 C -45.974511,20.827087 -45.562346,20.446183 -45.130983,20.32375 L -45.130983,20.232223 C -42.778779,19.600772 -40.552527,18.668017 -38.486122,17.486413 L -38.431206,17.54133 C -38.039613,17.322883 -37.485557,17.317781 -37.039996,17.687773 L -32.884674,21.348853 C -32.483114,21.750406 -31.900434,21.68385 -31.438544,21.348853 C -29.905864,20.189849 -28.957614,19.384458 -27.594414,18.035575 C -26.245524,16.672371 -25.440134,15.724122 -24.281134,14.191441 C -23.946134,13.729554 -23.879584,13.146865 -24.281134,12.745315 L -27.942214,8.589989 C -28.312204,8.144427 -28.307104,7.590372 -28.088654,7.198779 C -26.853404,5.076353 -25.879254,2.779624 -25.233014,0.35255904 C -25.071744,-0.019220957 -24.734284,-0.35088296 -24.226214,-0.39796196 L -18.697984,-0.74576496 C -18.130104,-0.74576496 -17.762614,-1.207385 -17.672884,-1.770867 C -17.408654,-3.6741789 -17.316894,-4.9054229 -17.306774,-6.8231569 C -17.316894,-8.7408909 -17.408654,-9.9721359 -17.672884,-11.875448 C -17.762614,-12.438932 -18.130104,-12.90055 -18.697984,-12.90055 L -24.226214,-13.248353 C -24.658724,-13.288429 -24.973974,-13.533717 -25.159794,-13.834125 C -25.163094,-13.846967 -25.174784,-13.857902 -25.178094,-13.870736 C -25.840104,-16.434188 -27.023994,-18.770674 -28.180184,-21.083064 L -28.216794,-21.156286 C -28.373454,-21.469616 -28.219704,-21.902133 -27.942214,-22.236305 L -24.281134,-26.39163 C -23.879584,-26.793184 -23.946144,-27.375863 -24.281134,-27.837757 C -25.440134,-29.370443 -26.245524,-30.318692 -27.594414,-31.681891 C -28.957604,-33.030779 -29.905854,-33.836164 -31.438544,-34.995168 C -31.900434,-35.33016 -32.483114,-35.396716 -32.884674,-34.995168 L -37.039996,-31.334088 C -37.447328,-30.99584 -37.939716,-30.985887 -38.321374,-31.151034 C -40.431371,-32.375534 -42.719451,-33.322687 -45.130983,-33.970066 C -45.143813,-33.97371 -45.154805,-33.984271 -45.167593,-33.988371 C -45.584726,-34.122027 -45.9761,-34.49056 -46.027947,-35.050085 L -46.37575,-40.578315 C -46.37575,-41.146193 -46.83737,-41.513689 -47.400852,-41.603418 C -49.304164,-41.867648 -50.535409,-41.959404 -52.453143,-41.969526 z M -52.453143,-16.195522 C -47.279598,-16.195523 -43.080778,-11.996703 -43.080778,-6.8231569 C -43.080778,-1.649612 -47.279598,2.549207 -52.453143,2.549207 C -57.626688,2.549207 -61.825507,-1.649612 -61.825507,-6.8231569 C -61.825507,-11.996703 -57.626687,-16.195522 -52.453143,-16.195522 z "
           id="path3139"
           sodipodi:nodetypes="ccccssccccccccsccscccccccccccccccccccccccccccccccccccccccccccccccssssccccccccsscccccsssc" />
        <path
           sodipodi:type="arc"
           style="opacity:1;color:#000000;fill:#808080;fill-opacity:1;fill-rule:nonzero;stroke:#ececec;stroke-width:0.5;stroke-linecap:round;stroke-linejoin:round;marker:none;marker-start:none;marker-mid:none;marker-end:none;stroke-miterlimit:4;stroke-dasharray:none;stroke-dashoffset:0;stroke-opacity:1;visibility:visible;display:inline;overflow:visible"
           id="path3859"
           sodipodi:cx="-52.67857"
           sodipodi:cy="-3"
           sodipodi:rx="15"
           sodipodi:ry="15"
           d="M -37.67857 -3 A 15 15 0 1 1  -67.67857,-3 A 15 15 0 1 1  -37.67857 -3 z"
           transform="matrix(1.14637,0,0,1.14637,7.9359896,-3.384048)" />
        <path
           sodipodi:type="arc"
           style="opacity:1;color:#000000;fill:#ffffff;fill-opacity:1;fill-rule:nonzero;stroke:#4d4d4d;stroke-width:0.5;stroke-linecap:round;stroke-linejoin:round;marker:none;marker-start:none;marker-mid:none;marker-end:none;stroke-miterlimit:4;stroke-dasharray:none;stroke-dashoffset:0;stroke-opacity:1;visibility:visible;display:inline;overflow:visible"
           id="path4830"
           sodipodi:cx="-52.67857"
           sodipodi:cy="-3"
           sodipodi:rx="15"
           sodipodi:ry="15"
           d="M -37.67857 -3 A 15 15 0 1 1  -67.67857,-3 A 15 15 0 1 1  -37.67857 -3 z"
           transform="matrix(0.6194379,0,0,0.6194379,-19.82204,-4.9648443)" />
      </g>
      <g
         transform="matrix(0.1199409,0,0,0.1199409,72.582948,27.764369)"
         id="g4837">
        <path
           style="fill:#999999;fill-opacity:1;stroke:none;stroke-width:3;stroke-linecap:round;stroke-linejoin:round;stroke-miterlimit:4;stroke-dasharray:none;stroke-dashoffset:1.08779998;stroke-opacity:1"
           d="M -67.903117,-38.391583 C -69.621174,-37.539476 -70.686741,-36.915819 -72.280141,-35.841812 C -72.746817,-35.513516 -72.999895,-34.980509 -72.750262,-34.470441 L -70.632506,-29.352101 C -70.433113,-28.826746 -70.622642,-28.323685 -70.938557,-28.020269 C -70.94824,-28.010964 -70.953471,-27.996647 -70.963394,-27.987733 C -72.844847,-26.346174 -74.483639,-24.489627 -75.840559,-22.46225 C -76.110767,-22.146142 -76.557405,-21.938633 -77.071959,-22.063388 L -82.413641,-23.525128 C -82.950825,-23.709283 -83.444936,-23.39336 -83.71255,-22.889426 C -84.579718,-21.174659 -85.077394,-20.034417 -85.708865,-18.223604 C -86.321184,-16.406225 -86.627741,-15.200469 -86.995005,-13.314326 C -87.092849,-12.752195 -86.896488,-12.199571 -86.359303,-12.015416 L -81.244288,-9.8924805 C -80.848146,-9.7143106 -80.519914,-9.393413 -80.522895,-9.0431117 L -80.523591,-8.9612499 C -80.726654,-6.3839073 -80.581851,-3.7569605 -80.049598,-1.1634601 C -80.050515,-1.1495519 -80.048563,-1.1364704 -80.049945,-1.1225295 C -80.084785,-0.77102239 -80.260118,-0.41212354 -80.630982,-0.18600003 L -85.443542,2.5565485 C -85.953604,2.806179 -86.080766,3.3823512 -85.913664,3.9279184 C -85.314319,5.7536237 -84.855492,6.8998615 -84.021568,8.6268174 C -83.169461,10.344874 -82.545804,11.410441 -81.471797,13.003841 C -81.143496,13.470513 -80.610488,13.723592 -80.100426,13.473962 L -74.982085,11.356206 C -74.505045,11.175151 -74.056145,11.324707 -73.74786,11.587745 C -72.100494,13.483651 -70.215893,15.118343 -68.1734,16.481702 C -67.805051,16.737403 -67.556911,17.232815 -67.693373,17.79566 L -69.155113,23.137341 C -69.339266,23.674523 -69.023344,24.168637 -68.519411,24.436249 C -66.804644,25.303415 -65.664406,25.801092 -63.853589,26.432564 C -62.036209,27.04488 -60.830451,27.351441 -58.94431,27.718706 C -58.382179,27.816551 -57.829553,27.620188 -57.645401,27.083003 L -55.522464,21.967988 C -55.284907,21.439798 -54.785011,21.200823 -54.337256,21.224892 L -54.312071,21.151425 C -51.936608,21.30437 -49.526963,21.163533 -47.136637,20.696697 L -47.096403,20.778907 C -46.655132,20.699253 -46.117483,20.860197 -45.815985,21.354682 L -43.073436,26.167242 C -42.823806,26.677303 -42.247634,26.804466 -41.702067,26.637363 C -39.876361,26.038019 -38.730125,25.579192 -37.003169,24.745268 C -35.285112,23.89316 -34.219544,23.269504 -32.626144,22.195496 C -32.159472,21.867196 -31.906393,21.334187 -32.156023,20.824126 L -34.273779,15.705785 C -34.479286,15.16432 -34.276522,14.641009 -33.942892,14.341418 L -33.983126,14.259208 C -32.147959,12.658036 -30.558371,10.841599 -29.221749,8.8719139 L -29.148283,8.8970998 C -28.892582,8.5287508 -28.397172,8.280611 -27.834325,8.4170734 L -22.492648,9.8788151 C -21.955448,10.062968 -21.461343,9.7470475 -21.193735,9.2431116 C -20.32657,7.5283456 -19.828894,6.3881036 -19.197425,4.5772901 C -18.585103,2.759904 -18.278543,1.554147 -17.911281,-0.3319895 C -17.813426,-0.89411833 -18.009794,-1.4467436 -18.546983,-1.6308981 L -23.661999,-3.7538346 C -24.190187,-3.9913942 -24.429163,-4.4912876 -24.405092,-4.9390443 C -24.228588,-7.3884077 -24.363226,-9.879553 -24.849686,-12.34362 C -24.868264,-12.748445 -24.710953,-13.194687 -24.275301,-13.460316 L -19.462742,-16.202864 C -18.952673,-16.452498 -18.825517,-17.028669 -18.992622,-17.574233 C -19.591967,-19.399938 -20.05079,-20.546176 -20.884716,-22.273131 C -21.736822,-23.991189 -22.360483,-25.056755 -23.43449,-26.650155 C -23.762787,-27.116831 -24.295788,-27.369911 -24.805857,-27.120277 L -29.924198,-25.002522 C -30.330295,-24.848391 -30.721278,-24.930128 -31.020237,-25.118269 C -31.028846,-25.128353 -31.044153,-25.133036 -31.052768,-25.143109 C -32.774251,-27.154586 -34.864714,-28.732789 -36.919705,-30.301526 L -36.984776,-30.351201 C -37.263224,-30.563767 -37.315256,-31.01984 -37.212914,-31.441975 L -35.751173,-36.783655 C -35.56702,-37.320847 -35.882944,-37.81495 -36.386875,-38.082565 C -38.10164,-38.949737 -39.241881,-39.447412 -41.0527,-40.078878 C -42.870073,-40.691204 -44.075829,-40.997759 -45.961975,-41.36502 C -46.524103,-41.462868 -47.076723,-41.266508 -47.260887,-40.729317 L -49.38382,-35.614303 C -49.600995,-35.13143 -50.038882,-34.906042 -50.454284,-34.886604 C -52.887758,-35.058916 -55.359267,-34.903832 -57.809883,-34.425222 C -57.823009,-34.422856 -57.837525,-34.427509 -57.850813,-34.425571 C -58.284235,-34.362253 -58.79777,-34.521225 -59.0903,-35.000998 L -61.832848,-39.813557 C -62.082482,-40.323625 -62.658655,-40.450786 -63.204218,-40.283679 C -65.029923,-39.684335 -66.176161,-39.225507 -67.903117,-38.391583 z M -56.573136,-15.241404 C -51.926264,-17.515641 -46.309132,-15.590023 -44.034896,-10.94315 C -41.76066,-6.2962782 -43.686278,-0.67914687 -48.33315,1.5950892 C -52.980022,3.8693252 -58.597153,1.9437078 -60.871389,-2.703164 C -63.145625,-7.3500369 -61.220007,-12.967168 -56.573136,-15.241404 z "
           id="path4839"
           sodipodi:nodetypes="ccccssccccccccsccscccccccccccccccccccccccccccccccccccccccccccccccssssccccccccsscccccsssc" />
        <path
           sodipodi:type="arc"
           style="opacity:1;color:#000000;fill:#808080;fill-opacity:1;fill-rule:nonzero;stroke:#ececec;stroke-width:0.5;stroke-linecap:round;stroke-linejoin:round;marker:none;marker-start:none;marker-mid:none;marker-end:none;stroke-miterlimit:4;stroke-dasharray:none;stroke-dashoffset:0;stroke-opacity:1;visibility:visible;display:inline;overflow:visible"
           id="path4841"
           sodipodi:cx="-52.67857"
           sodipodi:cy="-3"
           sodipodi:rx="15"
           sodipodi:ry="15"
           d="M -37.67857 -3 A 15 15 0 1 1  -67.67857,-3 A 15 15 0 1 1  -37.67857 -3 z"
           transform="matrix(1.14637,0,0,1.14637,7.9359896,-3.384048)" />
        <path
           sodipodi:type="arc"
           style="opacity:1;color:#000000;fill:#ffffff;fill-opacity:1;fill-rule:nonzero;stroke:#4d4d4d;stroke-width:0.5;stroke-linecap:round;stroke-linejoin:round;marker:none;marker-start:none;marker-mid:none;marker-end:none;stroke-miterlimit:4;stroke-dasharray:none;stroke-dashoffset:0;stroke-opacity:1;visibility:visible;display:inline;overflow:visible"
           id="path4843"
           sodipodi:cx="-52.67857"
           sodipodi:cy="-3"
           sodipodi:rx="15"
           sodipodi:ry="15"
           d="M -37.67857 -3 A 15 15 0 1 1  -67.67857,-3 A 15 15 0 1 1  -37.67857 -3 z"
           transform="matrix(0.6194379,0,0,0.6194379,-19.82204,-4.9648443)" />
      </g>
    </g>
  </g>
</svg>
