<?xml version="1.0" encoding="UTF-8" standalone="no"?>
<!-- Created with Inkscape (http://www.inkscape.org/) -->
<svg
   xmlns:dc="http://purl.org/dc/elements/1.1/"
   xmlns:cc="http://web.resource.org/cc/"
   xmlns:rdf="http://www.w3.org/1999/02/22-rdf-syntax-ns#"
   xmlns:svg="http://www.w3.org/2000/svg"
   xmlns="http://www.w3.org/2000/svg"
   xmlns:sodipodi="http://inkscape.sourceforge.net/DTD/sodipodi-0.dtd"
   xmlns:inkscape="http://www.inkscape.org/namespaces/inkscape"
   width="400pt"
   height="140pt"
   id="svg1821"
   sodipodi:version="0.32"
   inkscape:version="0.43"
   sodipodi:docbase="/home/sam/rpg/yags/core/sheets"
   sodipodi:docname="yags-core.svg"
   version="1.0">
  <defs
     id="defs1823" />
  <sodipodi:namedview
     id="base"
     pagecolor="#ffffff"
     bordercolor="#666666"
     borderopacity="1.0"
     inkscape:pageopacity="0.0"
     inkscape:pageshadow="2"
     inkscape:zoom="1.276203"
     inkscape:cx="311.40425"
     inkscape:cy="260.97229"
     inkscape:document-units="px"
     inkscape:current-layer="layer1"
     inkscape:window-width="1399"
     inkscape:window-height="987"
     inkscape:window-x="276"
     inkscape:window-y="82"
     showguides="true"
     inkscape:guide-bbox="true"
     showgrid="false"
     inkscape:grid-bbox="true"
     inkscape:grid-points="true"
     gridempspacing="5"
     inkscape:guide-points="true"
     gridtolerance="1px"
     gridspacingx="1px"
     gridspacingy="1px" />
  <metadata
     id="metadata1826">
    <rdf:RDF>
      <cc:Work
         rdf:about="">
        <dc:format>image/svg+xml</dc:format>
        <dc:type
           rdf:resource="http://purl.org/dc/dcmitype/StillImage" />
      </cc:Work>
    </rdf:RDF>
  </metadata>
  <g
     inkscape:label="Layer 1"
     inkscape:groupmode="layer"
     id="layer1">
    <g
       id="g1403">
      <rect
         style="color:#000000;fill:#ffffff;fill-opacity:1;fill-rule:evenodd;stroke:#0078ff;stroke-width:11.625;stroke-linecap:round;stroke-linejoin:round;marker:none;marker-start:none;marker-mid:none;marker-end:none;stroke-miterlimit:4;stroke-dasharray:none;stroke-dashoffset:0;stroke-opacity:1;visibility:visible;display:inline;overflow:visible"
         id="rect1337"
         width="418.96164"
         height="119.51711"
         x="19.879141"
         y="16.753464"
         ry="27.887323" />
      <rect
         style="color:#000000;fill:#ffffff;fill-opacity:1;fill-rule:evenodd;stroke:#ffffff;stroke-width:0;stroke-linecap:round;stroke-linejoin:miter;marker:none;marker-start:none;marker-mid:none;marker-end:none;stroke-miterlimit:4;stroke-dasharray:none;stroke-dashoffset:0;stroke-opacity:1;visibility:visible;display:inline;overflow:visible"
         id="rect1339"
         width="195.87204"
         height="48.294052"
         x="-4.3497338"
         y="10.29042"
         ry="0" />
      <path
         id="text1341"
         d="M 8.7804847,10.791428 L 21.366422,10.791428 L 31.948453,37.510178 L 40.948453,10.791428 L 53.534391,10.791428 L 36.975797,53.89299 C 35.311707,58.275795 33.366397,61.334385 31.13986,63.068771 C 28.936714,64.826569 26.018748,65.705475 22.385953,65.70549 L 15.10861,65.70549 L 15.10861,57.443771 L 19.04611,57.443771 C 21.178909,57.443764 22.725782,57.103921 23.686735,56.42424 C 24.671093,55.744547 25.432811,54.525798 25.971891,52.76799 L 26.323453,51.678146 L 8.7804847,10.791428 M 78.565641,32.447678 C 75.94062,32.447695 73.960153,32.893007 72.624235,33.783615 C 71.311718,34.674256 70.655469,35.986754 70.655485,37.721115 C 70.655469,39.314876 71.182812,40.568781 72.237516,41.482834 C 73.315622,42.373467 74.803902,42.818779 76.70236,42.818771 C 79.069523,42.818779 81.061708,41.97503 82.678922,40.287521 C 84.29608,38.576595 85.104673,36.443785 85.104703,33.889084 L 85.104703,32.447678 L 78.565641,32.447678 M 97.79611,27.701584 L 97.79611,50.166428 L 85.104703,50.166428 L 85.104703,44.33049 C 83.417175,46.721119 81.518739,48.467211 79.409391,49.568771 C 77.299993,50.646896 74.73359,51.185958 71.710172,51.185959 C 67.632034,51.185958 64.315631,50.002365 61.760953,47.635178 C 59.229699,45.244558 57.964075,42.150811 57.964078,38.353928 C 57.964075,33.736757 59.546105,30.350041 62.710172,28.193771 C 65.897661,26.037545 70.889844,24.959422 77.686735,24.959396 L 85.104703,24.959396 L 85.104703,23.975021 C 85.104673,21.982862 84.319518,20.529738 82.749235,19.615646 C 81.178896,18.678178 78.72968,18.209428 75.401578,18.209396 C 72.706248,18.209428 70.198438,18.478959 67.878141,19.01799 C 65.557818,19.557083 63.40157,20.365676 61.409391,21.443771 L 61.409391,11.846115 C 64.104694,11.189904 66.811723,10.697717 69.530485,10.369553 C 72.249217,10.01803 74.967965,9.8422492 77.686735,9.8422089 C 84.788267,9.8422492 89.909356,11.248498 93.050016,14.060959 C 96.214037,16.850055 97.796067,21.396925 97.79611,27.701584 M 136.36252,43.48674 C 134.62811,45.783619 132.71796,47.471118 130.63205,48.54924 C 128.54608,49.627366 126.13202,50.166428 123.38986,50.166428 C 118.58516,50.166428 114.6125,48.279711 111.47189,44.506271 C 108.33126,40.709406 106.76095,35.881286 106.76095,30.021896 C 106.76095,24.13911 108.33126,19.322708 111.47189,15.572678 C 114.6125,11.799278 118.58516,9.9125616 123.38986,9.9125214 C 126.13202,9.9125616 128.54608,10.451624 130.63205,11.529709 C 132.71796,12.607871 134.62811,14.307088 136.36252,16.627365 L 136.36252,10.791428 L 149.01877,10.791428 L 149.01877,46.193771 C 149.01872,52.521894 147.01482,57.350014 143.00705,60.678146 C 139.02264,64.029695 133.23358,65.705475 125.63986,65.70549 C 123.1789,65.705475 120.8,65.517975 118.50314,65.14299 C 116.20625,64.767976 113.89766,64.193757 111.57736,63.420334 L 111.57736,53.61174 C 113.78047,54.87736 115.93672,55.814859 118.04611,56.42424 C 120.15547,57.057046 122.27656,57.373452 124.40939,57.373459 C 128.53437,57.373452 131.5578,56.471109 133.4797,54.666428 C 135.40155,52.861737 136.36248,50.037521 136.36252,46.193771 L 136.36252,43.48674 M 128.06564,18.982834 C 125.46406,18.982865 123.43671,19.943802 121.98361,21.865646 C 120.53047,23.787548 119.80391,26.506295 119.80392,30.021896 C 119.80391,33.631288 120.50703,36.373473 121.9133,38.248459 C 123.31953,40.100031 125.37031,41.025812 128.06564,41.025803 C 130.69061,41.025812 132.72967,40.064875 134.18283,38.14299 C 135.63592,36.221129 136.36248,33.514101 136.36252,30.021896 C 136.36248,26.506295 135.63592,23.787548 134.18283,21.865646 C 132.72967,19.943802 130.69061,18.982865 128.06564,18.982834 M 191.94455,12.021896 L 191.94455,21.584396 C 189.2492,20.459426 186.64764,19.615677 184.13986,19.053146 C 181.63202,18.490678 179.26484,18.209428 177.0383,18.209396 C 174.64765,18.209428 172.8664,18.514116 171.69455,19.123459 C 170.54609,19.709427 169.97188,20.623488 169.97189,21.865646 C 169.97188,22.873486 170.40547,23.646923 171.27267,24.185959 C 172.16328,24.725047 173.74531,25.123484 176.01877,25.381271 L 178.23361,25.697678 C 184.67889,26.518014 189.01483,27.865669 191.24142,29.740646 C 193.46795,31.615665 194.58123,34.557068 194.58127,38.564865 C 194.58123,42.760185 193.03435,45.912526 189.94064,48.021896 C 186.84686,50.131271 182.22968,51.185958 176.08908,51.185959 C 173.4875,51.185958 170.79219,50.975021 168.00314,50.553146 C 165.23751,50.154709 162.38985,49.545334 159.46017,48.725021 L 159.46017,39.162521 C 161.96798,40.381281 164.53438,41.295343 167.15939,41.904709 C 169.80781,42.514092 172.4914,42.818779 175.21017,42.818771 C 177.67109,42.818779 179.52265,42.478935 180.76486,41.79924 C 182.00702,41.119562 182.62811,40.11175 182.62814,38.775803 C 182.62811,37.650815 182.19452,36.818785 181.32736,36.279709 C 180.48358,35.717223 178.78437,35.28363 176.2297,34.978928 L 174.01486,34.697678 C 168.41328,33.994569 164.48751,32.693789 162.23752,30.795334 C 159.98751,28.896918 158.86251,26.014108 158.86252,22.146896 C 158.86251,17.975054 160.2922,14.881307 163.15158,12.865646 C 166.01094,10.850061 170.39375,9.8422492 176.30002,9.8422089 C 178.6203,9.8422492 181.0578,10.01803 183.61252,10.369553 C 186.16717,10.721155 188.94451,11.271935 191.94455,12.021896"
         style="font-size:72px;font-style:normal;font-variant:normal;font-weight:bold;font-stretch:normal;text-align:start;line-height:100%;writing-mode:lr-tb;text-anchor:start;fill:#ffffff;fill-opacity:1;stroke:#0078ff;stroke-width:2;stroke-linecap:butt;stroke-linejoin:miter;stroke-miterlimit:4;stroke-opacity:1;font-family:Sans" />
      <path
         id="text1345"
         d="M 66.403706,114.9966 C 63.888049,115.88983 61.472687,116.56431 59.157612,117.02003 C 56.842483,117.47576 54.645871,117.70363 52.567768,117.70363 C 47.080774,117.70363 42.696664,116.19972 39.415424,113.19191 C 36.134171,110.1841 34.493547,106.20104 34.493549,101.24269 C 34.493547,97.979689 35.013078,94.908078 36.052143,92.027847 C 37.091201,89.129438 38.622449,86.486211 40.645893,84.09816 C 43.033903,81.290904 45.904994,79.13075 49.259174,77.617691 C 52.63155,76.104711 56.259151,75.348201 60.141987,75.34816 C 62.25654,75.348201 64.380236,75.603409 66.513081,76.113785 C 68.645857,76.606013 70.815126,77.362522 73.020893,78.383316 L 71.325581,86.832535 C 69.575543,85.501837 67.816431,84.526578 66.048237,83.906754 C 64.279976,83.286995 62.384144,82.9771 60.360737,82.977066 C 56.149776,82.9771 52.622435,84.599494 49.778706,87.844254 C 46.934941,91.089071 45.513068,95.145057 45.513081,100.01222 C 45.513068,103.14765 46.388067,105.60859 48.138081,107.39503 C 49.888063,109.1815 52.303425,110.07473 55.384174,110.07472 C 57.225295,110.07473 59.175814,109.7466 61.235737,109.09035 C 63.313831,108.41588 65.638047,107.3677 68.208393,105.94582 L 66.403706,114.9966 M 108.04824,92.820816 C 108.0482,89.61251 107.31904,87.169804 105.86074,85.492691 C 104.4206,83.815641 102.32425,82.9771 99.571674,82.977066 C 95.925819,82.9771 92.863322,84.617723 90.384174,87.898941 C 87.923223,91.161988 86.692755,95.254431 86.692768,100.17628 C 86.692755,103.31172 87.412806,105.74531 88.852924,107.47707 C 90.293012,109.20884 92.298218,110.07473 94.868549,110.07472 C 96.96488,110.07473 98.824253,109.63723 100.44667,108.76222 C 102.08727,107.869 103.4818,106.5565 104.63027,104.82472 C 105.72399,103.16588 106.56253,101.29739 107.14589,99.219254 C 107.74742,97.141148 108.0482,95.008338 108.04824,92.820816 M 101.10292,75.34816 C 106.53518,75.348201 110.90106,76.861221 114.20058,79.887222 C 117.51825,82.895069 119.1771,86.832565 119.17714,91.699722 C 119.1771,95.017453 118.66668,98.152866 117.64589,101.10597 C 116.64325,104.05911 115.1758,106.71145 113.24355,109.063 C 110.87372,111.96145 108.06643,114.13071 104.82167,115.57082 C 101.59508,116.99269 97.867223,117.70363 93.638081,117.70363 C 88.224003,117.70363 83.867237,116.19972 80.567768,113.19191 C 77.268285,110.1841 75.618547,106.23749 75.618549,101.35207 C 75.618547,98.016147 76.119849,94.871619 77.122456,91.918472 C 78.125055,88.965375 79.601616,86.30392 81.552143,83.934097 C 83.885466,81.053925 86.665411,78.902885 89.891987,77.480972 C 93.136759,76.059138 96.873734,75.348201 101.10292,75.34816 M 141.73574,94.188004 C 144.12373,94.188026 145.92842,93.632037 147.1498,92.520035 C 148.38936,91.408081 149.00915,89.776572 149.00917,87.625504 C 149.00915,86.276576 148.58076,85.292202 147.72402,84.672379 C 146.88545,84.034391 145.55472,83.71538 143.73183,83.715347 L 139.38417,83.715347 L 137.30605,94.188004 L 141.73574,94.188004 M 135.91152,101.46144 L 132.87636,116.91066 L 122.34902,116.91066 L 130.30605,76.086441 L 145.86464,76.086441 C 150.34899,76.086482 153.74873,76.925023 156.06386,78.602066 C 158.37893,80.279186 159.53648,82.749236 159.53652,86.012222 C 159.53648,89.311729 158.62502,92.027872 156.80214,94.16066 C 154.97919,96.293493 152.50914,97.514846 149.39199,97.824722 C 150.81383,98.116408 151.99873,98.845574 152.94667,100.01222 C 153.89456,101.16068 154.72398,102.9289 155.43496,105.31691 L 158.90761,116.91066 L 148.43496,116.91066 L 145.37246,106.76613 C 144.75264,104.7427 143.99613,103.35729 143.10292,102.60988 C 142.2279,101.84427 140.95186,101.46146 139.2748,101.46144 L 135.91152,101.46144 M 173.3998,76.086441 L 201.78261,76.086441 L 200.22402,84.043472 L 182.36855,84.043472 L 180.89199,91.645035 L 197.70839,91.645035 L 196.12246,99.602066 L 179.33339,99.602066 L 177.52871,108.95363 L 195.95839,108.95363 L 194.45449,116.91066 L 165.44277,116.91066 L 173.3998,76.086441 M 242.57949,94.188004 C 244.96748,94.188026 246.77217,93.632037 247.99355,92.520035 C 249.23311,91.408081 249.8529,89.776572 249.85292,87.625504 C 249.8529,86.276576 249.42451,85.292202 248.56777,84.672379 C 247.7292,84.034391 246.39847,83.71538 244.57558,83.715347 L 240.22792,83.715347 L 238.1498,94.188004 L 242.57949,94.188004 M 236.75527,101.46144 L 233.72011,116.91066 L 223.19277,116.91066 L 231.1498,76.086441 L 246.70839,76.086441 C 251.19274,76.086482 254.59248,76.925023 256.90761,78.602066 C 259.22268,80.279186 260.38023,82.749236 260.38027,86.012222 C 260.38023,89.311729 259.46877,92.027872 257.64589,94.16066 C 255.82294,96.293493 253.35289,97.514846 250.23574,97.824722 C 251.65758,98.116408 252.84248,98.845574 253.79042,100.01222 C 254.73831,101.16068 255.56773,102.9289 256.27871,105.31691 L 259.75136,116.91066 L 249.27871,116.91066 L 246.21621,106.76613 C 245.59639,104.7427 244.83988,103.35729 243.94667,102.60988 C 243.07165,101.84427 241.79561,101.46146 240.11855,101.46144 L 236.75527,101.46144 M 274.24355,76.086441 L 284.77089,76.086441 L 280.01308,100.53175 C 279.83077,101.40677 279.69406,102.18151 279.60292,102.85597 C 279.52999,103.53046 279.49353,104.12291 279.49355,104.63332 C 279.49353,106.41978 279.96749,107.75963 280.91542,108.65285 C 281.88155,109.52785 283.31254,109.96535 285.20839,109.96535 C 287.76045,109.96535 289.72009,109.25442 291.0873,107.83253 C 292.45446,106.39244 293.46618,103.96796 294.12246,100.5591 L 298.88027,76.086441 L 309.40761,76.086441 L 304.6498,100.5591 C 303.46487,106.57473 301.21357,110.94061 297.89589,113.65675 C 294.59638,116.35467 289.86592,117.70363 283.70449,117.70363 C 278.87374,117.70363 275.20057,116.67368 272.68496,114.61378 C 270.16933,112.53566 268.91151,109.52785 268.91152,105.59035 C 268.91151,104.93411 268.95709,104.20494 269.04824,103.40285 C 269.13938,102.58255 269.28521,101.63463 269.48574,100.5591 L 274.24355,76.086441 M 319.74355,76.086441 L 330.27089,76.086441 L 323.87246,108.95363 L 342.30214,108.95363 L 340.79824,116.91066 L 311.78652,116.91066 L 319.74355,76.086441 M 355.3998,76.086441 L 383.78261,76.086441 L 382.22402,84.043472 L 364.36855,84.043472 L 362.89199,91.645035 L 379.70839,91.645035 L 378.12246,99.602066 L 361.33339,99.602066 L 359.52871,108.95363 L 377.95839,108.95363 L 376.45449,116.91066 L 347.44277,116.91066 L 355.3998,76.086441 M 421.79042,77.371597 L 420.09511,86.012222 C 418.03518,84.991421 416.00263,84.234911 413.99746,83.742691 C 411.99222,83.232308 410.03259,82.9771 408.11855,82.977066 C 405.49353,82.9771 403.44275,83.387256 401.96621,84.207535 C 400.50786,85.027879 399.77869,86.167201 399.77871,87.625504 C 399.77869,88.555219 400.0977,89.284385 400.73574,89.813004 C 401.39197,90.323447 402.73181,90.824748 404.75527,91.31691 L 409.07558,92.383316 C 412.68493,93.294798 415.32815,94.616411 417.00527,96.34816 C 418.70055,98.06172 419.5482,100.28568 419.54824,103.02003 C 419.5482,107.44973 417.86201,111.00442 414.48964,113.6841 C 411.13545,116.36379 406.62374,117.70363 400.95449,117.70363 C 398.31124,117.70363 395.67713,117.45753 393.05214,116.96535 C 390.44537,116.47316 387.89329,115.74399 385.39589,114.77785 L 387.06386,105.89113 C 389.48834,107.29478 391.8399,108.34296 394.11855,109.03566 C 396.41541,109.72838 398.67583,110.07473 400.8998,110.07472 C 403.30603,110.07473 405.25655,109.58254 406.75136,108.59816 C 408.26436,107.61379 409.02087,106.35598 409.02089,104.82472 C 409.02087,103.82213 408.68363,103.04739 408.00917,102.5005 C 407.33467,101.93541 405.85811,101.3612 403.57949,100.77785 L 399.28652,99.711441 C 396.11463,98.927605 393.75396,97.688023 392.20449,95.992691 C 390.655,94.297401 389.88026,92.100789 389.88027,89.402847 C 389.88026,85.155483 391.50266,81.755747 394.74746,79.203629 C 398.01046,76.633356 402.39457,75.348201 407.8998,75.34816 C 410.1055,75.348201 412.36592,75.521378 414.68105,75.867691 C 417.01435,76.195857 419.38414,76.697158 421.79042,77.371597"
         style="font-size:56px;font-style:oblique;font-variant:normal;font-weight:bold;font-stretch:normal;text-align:start;line-height:100%;writing-mode:lr-tb;text-anchor:start;fill:#ff8600;fill-opacity:1;stroke:none;stroke-width:1px;stroke-linecap:butt;stroke-linejoin:miter;stroke-opacity:1;font-family:Sans" />
      <path
         id="text1349"
         d="M 215.75175,30.102127 L 224.8748,30.102127 L 224.37383,32.659744 L 218.63457,32.659744 L 218.15996,35.103104 L 223.56523,35.103104 L 223.05547,37.660721 L 217.65898,37.660721 L 216.57793,43.224197 L 213.19414,43.224197 L 215.75175,30.102127 M 234.37578,36.061111 C 234.15897,35.938072 233.91874,35.844322 233.65508,35.779861 C 233.39139,35.715416 233.10722,35.683189 232.80254,35.683182 C 231.99979,35.683189 231.33183,35.941002 230.79863,36.456619 C 230.27128,36.972251 229.91386,37.71639 229.72636,38.689041 L 228.82988,43.224197 L 225.67461,43.224197 L 227.59062,33.380447 L 230.75468,33.380447 L 230.41191,35.067947 C 230.82792,34.446862 231.34648,33.972254 231.96758,33.644119 C 232.59452,33.310145 233.28886,33.143153 234.05058,33.143143 C 234.1619,33.143153 234.28788,33.149012 234.42851,33.160721 C 234.56913,33.17245 234.73612,33.190028 234.92949,33.213455 L 234.37578,36.061111 M 245.33574,38.671463 L 245.23027,39.17244 L 237.86504,39.17244 C 237.86503,39.2076 237.8621,39.260334 237.85625,39.330643 C 237.85038,39.3951 237.84745,39.444904 237.84746,39.480057 C 237.84745,40.118732 238.03788,40.59627 238.41875,40.912674 C 238.80546,41.229082 239.38261,41.387285 240.15019,41.387283 C 240.81229,41.387285 241.50956,41.287676 242.24199,41.088455 C 242.98026,40.889239 243.7537,40.593341 244.5623,40.20076 L 244.0789,42.644119 C 243.31132,42.92537 242.54667,43.133377 241.78496,43.268143 C 241.02909,43.408768 240.25858,43.47908 239.47343,43.47908 C 237.93827,43.47908 236.75175,43.124588 235.91386,42.415604 C 235.08183,41.706621 234.66582,40.704669 234.66582,39.409744 C 234.66582,38.659749 234.79765,37.933187 235.06133,37.230057 C 235.33086,36.521079 235.7205,35.873619 236.23027,35.287674 C 236.83378,34.584558 237.55449,34.051355 238.39238,33.688065 C 239.23612,33.324793 240.17069,33.143153 241.19609,33.143143 C 242.52616,33.143153 243.58085,33.497645 244.36015,34.206619 C 245.1453,34.915612 245.53788,35.870689 245.53789,37.071854 C 245.53788,37.306235 245.5203,37.555258 245.48515,37.818924 C 245.45584,38.076742 245.40604,38.360921 245.33574,38.671463 M 242.36504,37.230057 C 242.38261,37.153891 242.39432,37.077719 242.40019,37.001541 C 242.4119,36.919516 242.41776,36.840415 242.41777,36.764236 C 242.41776,36.295493 242.27714,35.923423 241.9959,35.648026 C 241.71464,35.372643 241.33378,35.234948 240.85332,35.23494 C 240.23808,35.234948 239.71366,35.404869 239.28008,35.744705 C 238.85234,36.078697 238.52421,36.573813 238.2957,37.230057 L 242.36504,37.230057 M 257.53496,38.671463 L 257.42949,39.17244 L 250.06425,39.17244 C 250.06425,39.2076 250.06132,39.260334 250.05547,39.330643 C 250.0496,39.3951 250.04667,39.444904 250.04668,39.480057 C 250.04667,40.118732 250.2371,40.59627 250.61797,40.912674 C 251.00468,41.229082 251.58183,41.387285 252.34941,41.387283 C 253.01151,41.387285 253.70878,41.287676 254.44121,41.088455 C 255.17948,40.889239 255.95292,40.593341 256.76152,40.20076 L 256.27812,42.644119 C 255.51053,42.92537 254.74589,43.133377 253.98418,43.268143 C 253.22831,43.408768 252.4578,43.47908 251.67265,43.47908 C 250.13749,43.47908 248.95097,43.124588 248.11308,42.415604 C 247.28105,41.706621 246.86504,40.704669 246.86504,39.409744 C 246.86504,38.659749 246.99687,37.933187 247.26054,37.230057 C 247.53007,36.521079 247.91972,35.873619 248.42949,35.287674 C 249.033,34.584558 249.7537,34.051355 250.5916,33.688065 C 251.43534,33.324793 252.36991,33.143153 253.39531,33.143143 C 254.72538,33.143153 255.78007,33.497645 256.55937,34.206619 C 257.34452,34.915612 257.73709,35.870689 257.73711,37.071854 C 257.73709,37.306235 257.71952,37.555258 257.68437,37.818924 C 257.65506,38.076742 257.60526,38.360921 257.53496,38.671463 M 254.56425,37.230057 C 254.58182,37.153891 254.59354,37.077719 254.59941,37.001541 C 254.61112,36.919516 254.61698,36.840415 254.61699,36.764236 C 254.61698,36.295493 254.47636,35.923423 254.19511,35.648026 C 253.91386,35.372643 253.533,35.234948 253.05254,35.23494 C 252.4373,35.234948 251.91288,35.404869 251.47929,35.744705 C 251.05155,36.078697 250.72343,36.573813 250.49492,37.230057 L 254.56425,37.230057 M 270.5955,38.79451 C 269.81034,38.794514 269.21562,38.917561 268.81133,39.163651 C 268.41288,39.403889 268.21367,39.76131 268.21367,40.235916 C 268.21367,40.593341 268.33085,40.87459 268.56523,41.079666 C 268.80546,41.284746 269.13359,41.387285 269.54961,41.387283 C 270.19413,41.387285 270.73319,41.193926 271.16679,40.807205 C 271.60038,40.41463 271.89042,39.863849 272.03691,39.154861 L 272.10722,38.79451 L 270.5955,38.79451 M 275.50859,37.607986 L 274.40996,43.224197 L 271.26347,43.224197 L 271.52715,41.765213 C 271.01151,42.351151 270.46659,42.784745 269.89238,43.065994 C 269.31816,43.341385 268.69413,43.47908 268.02031,43.47908 C 267.08867,43.47908 266.34746,43.238846 265.79668,42.758377 C 265.25175,42.27205 264.97929,41.61873 264.97929,40.798416 C 264.97929,39.544514 265.46269,38.586507 266.42949,37.924393 C 267.40214,37.25643 268.80253,36.922446 270.63066,36.92244 L 272.48515,36.92244 L 272.52031,36.676346 C 272.53788,36.594321 272.54667,36.535728 272.54668,36.500565 C 272.55253,36.465415 272.55546,36.433189 272.55547,36.403885 C 272.55546,36.017173 272.37089,35.727135 272.00175,35.533768 C 271.63847,35.334557 271.09647,35.234948 270.37578,35.23494 C 269.72538,35.234948 269.0955,35.30233 268.48613,35.437088 C 267.87675,35.571861 267.28788,35.77401 266.71953,36.043533 L 267.19414,33.644119 C 267.85038,33.480067 268.52128,33.35702 269.20683,33.274979 C 269.89823,33.187098 270.61308,33.143153 271.35136,33.143143 C 272.81034,33.143153 273.89432,33.395106 274.60332,33.899002 C 275.31229,34.397058 275.66678,35.158776 275.66679,36.184158 C 275.66678,36.383384 275.65213,36.60311 275.62285,36.843338 C 275.5994,37.077719 275.56131,37.332602 275.50859,37.607986 M 286.91679,33.688065 L 286.45097,36.131424 C 285.83573,35.838463 285.22343,35.615807 284.61406,35.463455 C 284.00468,35.311119 283.42753,35.234948 282.88261,35.23494 C 282.26151,35.234948 281.78105,35.316979 281.44121,35.481033 C 281.10722,35.639244 280.94023,35.867759 280.94023,36.16658 C 280.94023,36.342368 281.03398,36.482993 281.22148,36.588455 C 281.40898,36.69393 281.77812,36.805258 282.3289,36.92244 L 282.90019,37.027908 C 284.17167,37.297446 285.06229,37.646078 285.57207,38.073807 C 286.08182,38.495686 286.33671,39.084553 286.33672,39.840408 C 286.33671,40.982989 285.88846,41.876542 284.99199,42.521072 C 284.0955,43.159744 282.84159,43.47908 281.23027,43.47908 C 280.55644,43.47908 279.86796,43.426346 279.16484,43.320877 C 278.46171,43.215408 277.74394,43.057205 277.01152,42.846268 L 277.48613,40.376541 C 278.05449,40.710528 278.66093,40.962481 279.30547,41.132401 C 279.95585,41.302324 280.62089,41.387285 281.30058,41.387283 C 281.96269,41.387285 282.46073,41.308184 282.79472,41.149979 C 283.1287,40.991778 283.29569,40.760333 283.2957,40.455643 C 283.29569,40.244708 283.20194,40.080646 283.01445,39.963455 C 282.82694,39.846271 282.44023,39.726154 281.85429,39.603104 L 281.283,39.497635 C 280.158,39.263264 279.35527,38.917561 278.8748,38.460526 C 278.39433,38.003499 278.1541,37.370688 278.1541,36.562088 C 278.1541,35.466393 278.56718,34.622643 279.39336,34.030838 C 280.22538,33.439051 281.41191,33.143153 282.95293,33.143143 C 283.62675,33.143153 284.28886,33.190028 284.93925,33.283768 C 285.5955,33.371668 286.25468,33.506434 286.91679,33.688065 M 296.28593,33.380447 L 299.45,33.380447 L 297.52519,43.224197 L 294.36992,43.224197 L 296.28593,33.380447 M 297.02422,29.548416 L 300.18828,29.548416 L 299.6873,32.114822 L 296.51445,32.114822 L 297.02422,29.548416 M 311.61406,37.230057 L 310.44511,43.224197 L 307.28984,43.224197 L 308.283,38.091385 C 308.35331,37.757406 308.40604,37.476156 308.44121,37.247635 C 308.48222,37.013266 308.50272,36.828696 308.50273,36.693924 C 308.50272,36.318931 308.39725,36.028892 308.18633,35.823807 C 307.98124,35.618736 307.68827,35.516197 307.30742,35.51619 C 306.65702,35.516197 306.09745,35.77108 305.62871,36.280838 C 305.16581,36.784751 304.84355,37.484945 304.66191,38.381424 L 303.71269,43.224197 L 300.55742,43.224197 L 302.47343,33.380447 L 305.6375,33.380447 L 305.34746,34.821854 C 305.92753,34.253503 306.51054,33.831629 307.09648,33.556229 C 307.68241,33.280848 308.29472,33.143153 308.9334,33.143143 C 309.84159,33.143153 310.54178,33.380457 311.03398,33.855057 C 311.52616,34.329675 311.77225,34.997643 311.77226,35.858963 C 311.77225,36.04647 311.7576,36.254478 311.72832,36.482986 C 311.70487,36.711509 311.66678,36.960532 311.61406,37.230057 M 322.0291,30.102127 L 331.15215,30.102127 L 330.65117,32.659744 L 324.91191,32.659744 L 324.4373,35.103104 L 329.84258,35.103104 L 329.33281,37.660721 L 323.93633,37.660721 L 322.85527,43.224197 L 319.47148,43.224197 L 322.0291,30.102127 M 340.65312,36.061111 C 340.43632,35.938072 340.19608,35.844322 339.93242,35.779861 C 339.66874,35.715416 339.38456,35.683189 339.07988,35.683182 C 338.27714,35.683189 337.60917,35.941002 337.07597,36.456619 C 336.54862,36.972251 336.1912,37.71639 336.00371,38.689041 L 335.10722,43.224197 L 331.95195,43.224197 L 333.86797,33.380447 L 337.03203,33.380447 L 336.68925,35.067947 C 337.10526,34.446862 337.62382,33.972254 338.24492,33.644119 C 338.87186,33.310145 339.5662,33.143153 340.32793,33.143143 C 340.43925,33.143153 340.56522,33.149012 340.70586,33.160721 C 340.84647,33.17245 341.01346,33.190028 341.20683,33.213455 L 340.65312,36.061111 M 351.61308,38.671463 L 351.50761,39.17244 L 344.14238,39.17244 C 344.14238,39.2076 344.13945,39.260334 344.13359,39.330643 C 344.12773,39.3951 344.1248,39.444904 344.1248,39.480057 C 344.1248,40.118732 344.31523,40.59627 344.69609,40.912674 C 345.0828,41.229082 345.65995,41.387285 346.42754,41.387283 C 347.08964,41.387285 347.7869,41.287676 348.51933,41.088455 C 349.25761,40.889239 350.03104,40.593341 350.83965,40.20076 L 350.35625,42.644119 C 349.58866,42.92537 348.82401,43.133377 348.0623,43.268143 C 347.30644,43.408768 346.53593,43.47908 345.75078,43.47908 C 344.21562,43.47908 343.0291,43.124588 342.19121,42.415604 C 341.35918,41.706621 340.94316,40.704669 340.94316,39.409744 C 340.94316,38.659749 341.075,37.933187 341.33867,37.230057 C 341.6082,36.521079 341.99785,35.873619 342.50761,35.287674 C 343.11113,34.584558 343.83183,34.051355 344.66972,33.688065 C 345.51347,33.324793 346.44804,33.143153 347.47343,33.143143 C 348.8035,33.143153 349.85819,33.497645 350.6375,34.206619 C 351.42264,34.915612 351.81522,35.870689 351.81523,37.071854 C 351.81522,37.306235 351.79764,37.555258 351.7625,37.818924 C 351.73319,38.076742 351.68338,38.360921 351.61308,38.671463 M 348.64238,37.230057 C 348.65995,37.153891 348.67167,37.077719 348.67754,37.001541 C 348.68925,36.919516 348.69511,36.840415 348.69511,36.764236 C 348.69511,36.295493 348.55448,35.923423 348.27324,35.648026 C 347.99198,35.372643 347.61112,35.234948 347.13066,35.23494 C 346.51542,35.234948 345.99101,35.404869 345.55742,35.744705 C 345.12968,36.078697 344.80155,36.573813 344.57304,37.230057 L 348.64238,37.230057 M 363.8123,38.671463 L 363.70683,39.17244 L 356.3416,39.17244 C 356.34159,39.2076 356.33866,39.260334 356.33281,39.330643 C 356.32695,39.3951 356.32402,39.444904 356.32402,39.480057 C 356.32402,40.118732 356.51445,40.59627 356.89531,40.912674 C 357.28202,41.229082 357.85917,41.387285 358.62675,41.387283 C 359.28886,41.387285 359.98612,41.287676 360.71855,41.088455 C 361.45682,40.889239 362.23026,40.593341 363.03886,40.20076 L 362.55547,42.644119 C 361.78788,42.92537 361.02323,43.133377 360.26152,43.268143 C 359.50565,43.408768 358.73515,43.47908 357.95,43.47908 C 356.41484,43.47908 355.22831,43.124588 354.39043,42.415604 C 353.55839,41.706621 353.14238,40.704669 353.14238,39.409744 C 353.14238,38.659749 353.27421,37.933187 353.53789,37.230057 C 353.80742,36.521079 354.19707,35.873619 354.70683,35.287674 C 355.31035,34.584558 356.03105,34.051355 356.86894,33.688065 C 357.71269,33.324793 358.64726,33.143153 359.67265,33.143143 C 361.00272,33.143153 362.05741,33.497645 362.83672,34.206619 C 363.62186,34.915612 364.01444,35.870689 364.01445,37.071854 C 364.01444,37.306235 363.99686,37.555258 363.96172,37.818924 C 363.93241,38.076742 363.8826,38.360921 363.8123,38.671463 M 360.8416,37.230057 C 360.85917,37.153891 360.87089,37.077719 360.87675,37.001541 C 360.88847,36.919516 360.89432,36.840415 360.89433,36.764236 C 360.89432,36.295493 360.7537,35.923423 360.47246,35.648026 C 360.1912,35.372643 359.81034,35.234948 359.32988,35.23494 C 358.71464,35.234948 358.19023,35.404869 357.75664,35.744705 C 357.3289,36.078697 357.00077,36.573813 356.77226,37.230057 L 360.8416,37.230057 M 370.21953,41.193924 C 371.02812,41.193926 371.68436,40.821856 372.18828,40.077713 C 372.69804,39.333576 372.95292,38.360921 372.95293,37.159744 C 372.95292,36.614829 372.80936,36.190025 372.52226,35.88533 C 372.24101,35.58065 371.8455,35.428307 371.33574,35.428299 C 370.53886,35.428307 369.88261,35.797447 369.36699,36.535721 C 368.85136,37.268149 368.59355,38.208577 368.59355,39.35701 C 368.59355,39.954669 368.73124,40.4117 369.00664,40.728104 C 369.28788,41.038653 369.69218,41.193926 370.21953,41.193924 M 373.533,34.821854 L 374.55254,29.548416 L 377.72539,29.548416 L 375.0623,43.224197 L 371.88945,43.224197 L 372.17949,41.800369 C 371.69901,42.374589 371.19511,42.799393 370.66777,43.074783 C 370.14042,43.344314 369.56327,43.47908 368.93633,43.47908 C 367.8289,43.47908 366.95292,43.127518 366.3084,42.424393 C 365.66386,41.721269 365.3416,40.763262 365.3416,39.550369 C 365.3416,38.794514 365.45293,38.059163 365.67558,37.344315 C 365.9041,36.629477 366.22929,35.979087 366.65117,35.393143 C 367.18437,34.65487 367.78495,34.0953 368.45293,33.714432 C 369.12675,33.333582 369.84745,33.143153 370.61504,33.143143 C 371.28886,33.143153 371.86015,33.280848 372.3289,33.556229 C 372.8035,33.825769 373.20487,34.247644 373.533,34.821854 M 384.34355,35.393143 C 383.52909,35.393151 382.85819,35.762291 382.33086,36.500565 C 381.80351,37.238852 381.53984,38.179281 381.53984,39.321854 C 381.53984,39.942951 381.68046,40.41756 381.96172,40.745682 C 382.24882,41.06795 382.66484,41.229082 383.20976,41.22908 C 384.02421,41.229082 384.69511,40.859942 385.22246,40.121658 C 385.74979,39.377522 386.01347,38.431233 386.01347,37.282791 C 386.01347,36.667563 385.86991,36.198814 385.58281,35.876541 C 385.30155,35.554283 384.88847,35.393151 384.34355,35.393143 M 384.59843,33.143143 C 386.06327,33.143153 387.21464,33.515223 388.05254,34.259354 C 388.89042,35.003502 389.30936,36.017173 389.30937,37.300369 C 389.30936,38.044515 389.17752,38.768147 388.91386,39.471268 C 388.65018,40.168536 388.26639,40.807208 387.7625,41.387283 C 387.16483,42.078691 386.45878,42.600175 385.64433,42.951736 C 384.82987,43.303299 383.92167,43.47908 382.91972,43.47908 C 381.47245,43.47908 380.32988,43.10701 379.49199,42.362869 C 378.65996,41.61873 378.24394,40.605059 378.24394,39.321854 C 378.24394,38.583577 378.37871,37.862875 378.64824,37.159744 C 378.91777,36.450767 379.30449,35.803306 379.8084,35.217361 C 380.39433,34.537683 381.0916,34.022058 381.90019,33.670486 C 382.71464,33.318934 383.61405,33.143153 384.59843,33.143143 M 401.25371,35.015213 C 401.74002,34.411706 402.2908,33.948816 402.90605,33.626541 C 403.52713,33.304285 404.17166,33.143153 404.83965,33.143143 C 405.71854,33.143153 406.40994,33.386317 406.91386,33.872635 C 407.42361,34.353113 407.67849,35.015221 407.67851,35.858963 C 407.67849,36.034751 407.66385,36.2369 407.63457,36.465408 C 407.61111,36.688071 407.57303,36.942954 407.52031,37.230057 L 406.35136,43.224197 L 403.17851,43.224197 L 404.17168,38.091385 L 404.19804,37.959549 C 404.35037,37.232992 404.42654,36.767173 404.42656,36.562088 C 404.42654,36.239829 404.3328,35.984947 404.14531,35.79744 C 403.96365,35.609947 403.71463,35.516197 403.39824,35.51619 C 402.79471,35.516197 402.28202,35.76522 401.86015,36.26326 C 401.44413,36.755454 401.1453,37.461508 400.96367,38.381424 L 400.01445,43.224197 L 396.8416,43.224197 L 397.85234,38.091385 C 397.94022,37.651937 398.00175,37.320883 398.03691,37.098221 C 398.07206,36.869712 398.08964,36.691001 398.08965,36.562088 C 398.08964,36.23397 397.99882,35.979087 397.81718,35.79744 C 397.63554,35.609947 397.38358,35.516197 397.06133,35.51619 C 396.48124,35.516197 395.97148,35.77401 395.53203,36.289627 C 395.09843,36.799399 394.79667,37.496664 394.62675,38.381424 L 393.67754,43.224197 L 390.52226,43.224197 L 392.43828,33.380447 L 395.60234,33.380447 L 395.3123,34.821854 C 395.80448,34.265222 396.3289,33.846277 396.88554,33.565018 C 397.44218,33.283778 398.02225,33.143153 398.62578,33.143143 C 399.30546,33.143153 399.88846,33.318934 400.3748,33.670486 C 400.86112,34.016199 401.15409,34.464441 401.25371,35.015213"
         style="font-size:18px;font-style:oblique;font-variant:normal;font-weight:bold;font-stretch:normal;text-align:start;line-height:100%;writing-mode:lr-tb;text-anchor:start;fill:#000000;fill-opacity:1;stroke:none;stroke-width:1px;stroke-linecap:butt;stroke-linejoin:miter;stroke-opacity:1;font-family:Sans" />
      <rect
         y="48.464306"
         x="210.00104"
         height="4.3667517"
         width="200.87057"
         id="rect1355"
         style="color:#000000;fill:#7d7d7d;fill-opacity:1;fill-rule:evenodd;stroke:none;stroke-width:2;stroke-linecap:round;stroke-linejoin:miter;marker:none;marker-start:none;marker-mid:none;marker-end:none;stroke-miterlimit:4;stroke-dasharray:none;stroke-dashoffset:0;stroke-opacity:1;visibility:visible;display:inline;overflow:visible" />
      <rect
         y="44.097553"
         x="292.53265"
         height="13.100255"
         width="35.807362"
         id="rect1357"
         style="color:#000000;fill:#ffffff;fill-opacity:1;fill-rule:evenodd;stroke:none;stroke-width:2;stroke-linecap:round;stroke-linejoin:miter;marker:none;marker-start:none;marker-mid:none;marker-end:none;stroke-miterlimit:4;stroke-dasharray:none;stroke-dashoffset:0;stroke-opacity:1;visibility:visible;display:inline;overflow:visible" />
      <path
         id="text1359"
         d="M 306.12677,54.365456 C 305.56426,54.638894 304.98028,54.843971 304.37482,54.98069 C 303.76934,55.117409 303.14434,55.185768 302.49982,55.185768 C 301.04278,55.185768 299.88849,54.779518 299.03693,53.967018 C 298.18536,53.150614 297.75958,52.045146 297.75958,50.650612 C 297.75958,49.240461 298.19318,48.131088 299.06036,47.322487 C 299.92755,46.513902 301.11505,46.109605 302.62286,46.109596 C 303.20489,46.109605 303.76153,46.164293 304.29279,46.273659 C 304.82793,46.383042 305.33184,46.545152 305.8045,46.759987 L 305.8045,48.570534 C 305.31621,48.293197 304.82989,48.086166 304.34552,47.94944 C 303.86504,47.812728 303.38262,47.744369 302.89825,47.744362 C 301.99981,47.744369 301.30645,47.996322 300.81818,48.500221 C 300.3338,49.000227 300.09161,49.717023 300.09161,50.650612 C 300.09161,51.576397 300.32599,52.29124 300.79474,52.795143 C 301.26348,53.299051 301.9295,53.551004 302.79279,53.551003 C 303.02715,53.551004 303.24395,53.537332 303.44318,53.509987 C 303.64629,53.478738 303.82794,53.431863 303.9881,53.369362 L 303.9881,51.670143 L 302.61115,51.670143 L 302.61115,50.158424 L 306.12677,50.158424 L 306.12677,54.365456 M 308.10724,46.267799 L 311.85138,46.267799 C 312.96465,46.267808 313.81817,46.515855 314.41193,47.01194 C 315.00957,47.504135 315.3084,48.207259 315.30841,49.121315 C 315.3084,50.039289 315.00957,50.746319 314.41193,51.242409 C 313.81817,51.7346 312.96465,51.980693 311.85138,51.98069 L 310.3631,51.98069 L 310.3631,55.015846 L 308.10724,55.015846 L 308.10724,46.267799 M 310.3631,47.902565 L 310.3631,50.345924 L 311.61115,50.345924 C 312.04864,50.345929 312.38653,50.24046 312.62482,50.029518 C 312.86309,49.81468 312.98223,49.511946 312.98224,49.121315 C 312.98223,48.730696 312.86309,48.429915 312.62482,48.218971 C 312.38653,48.008041 312.04864,47.902572 311.61115,47.902565 L 310.3631,47.902565 M 316.8963,46.267799 L 319.15216,46.267799 L 319.15216,53.310768 L 323.1131,53.310768 L 323.1131,55.015846 L 316.8963,55.015846 L 316.8963,46.267799"
         style="font-size:12px;font-style:normal;font-variant:normal;font-weight:bold;font-stretch:normal;text-align:start;line-height:100%;writing-mode:lr-tb;text-anchor:start;fill:#7d7d7d;fill-opacity:1;stroke:none;stroke-width:1px;stroke-linecap:butt;stroke-linejoin:miter;stroke-opacity:1;font-family:Sans" />
      <path
         id="text1363"
         d="M 246.23466,68.801712 L 246.13701,67.976517 C 246.32907,68.028599 246.49671,68.05464 246.63994,68.054642 C 246.83525,68.05464 246.9915,68.022088 247.10869,67.956985 C 247.22587,67.89188 247.3219,67.800734 247.39677,67.683548 C 247.45211,67.595657 247.54163,67.377558 247.66533,67.029251 C 247.6816,66.980423 247.70764,66.908808 247.74345,66.814407 L 245.77568,61.619095 L 246.72295,61.619095 L 247.80205,64.622025 C 247.94202,65.002886 248.06734,65.403276 248.17802,65.823196 C 248.27893,65.419552 248.39938,65.025672 248.53935,64.641556 L 249.64775,61.619095 L 250.52666,61.619095 L 248.554,66.892532 C 248.34241,67.462193 248.17802,67.854445 248.06084,68.06929 C 247.90458,68.359002 247.72555,68.57059 247.52373,68.704056 C 247.3219,68.840772 247.08102,68.909132 246.80107,68.909134 C 246.6318,68.909132 246.443,68.873325 246.23466,68.801712 M 254.65752,66.164993 C 254.33199,66.441686 254.01786,66.636999 253.71513,66.750931 C 253.41565,66.864863 253.09339,66.921829 252.74834,66.921829 C 252.17867,66.921829 251.74085,66.783483 251.43486,66.50679 C 251.12887,66.226843 250.97588,65.870398 250.97588,65.437454 C 250.97588,65.18355 251.03284,64.95243 251.14677,64.744095 C 251.26396,64.532509 251.41533,64.363238 251.60088,64.236282 C 251.78968,64.109332 252.00127,64.013303 252.23564,63.948196 C 252.40817,63.902626 252.66858,63.858681 253.01689,63.81636 C 253.72652,63.731728 254.24898,63.630817 254.58427,63.513626 C 254.58753,63.393187 254.58915,63.316689 254.58916,63.284134 C 254.58915,62.926065 254.50615,62.673786 254.34013,62.527298 C 254.11552,62.328735 253.78186,62.229451 253.33916,62.229446 C 252.92574,62.229451 252.61975,62.302693 252.42119,62.449173 C 252.22587,62.592406 252.08102,62.84794 251.98662,63.215775 L 251.12724,63.098587 C 251.20537,62.730753 251.33395,62.434529 251.51299,62.209915 C 251.69202,61.982055 251.95081,61.807902 252.28935,61.687454 C 252.62789,61.563762 253.02014,61.501913 253.46611,61.501907 C 253.90882,61.501913 254.26852,61.553996 254.54521,61.658157 C 254.8219,61.762329 255.02535,61.894165 255.15556,62.053665 C 255.28577,62.20992 255.37691,62.408487 255.429,62.649368 C 255.45829,62.799112 255.47294,63.069294 255.47295,63.459915 L 255.47295,64.63179 C 255.47294,65.448849 255.49084,65.966426 255.52666,66.184525 C 255.56571,66.399369 255.64058,66.606074 255.75127,66.804642 L 254.8333,66.804642 C 254.74215,66.62235 254.68355,66.409134 254.65752,66.164993 M 254.58427,64.202103 C 254.26526,64.332313 253.78675,64.44299 253.14873,64.534134 C 252.7874,64.586219 252.53186,64.644813 252.38213,64.709915 C 252.23238,64.775021 252.11682,64.87105 252.03545,64.998001 C 251.95406,65.121701 251.91337,65.260047 251.91338,65.41304 C 251.91337,65.647416 252.00127,65.842729 252.17705,65.998978 C 252.35608,66.155228 252.6165,66.233353 252.9583,66.233353 C 253.29684,66.233353 253.59794,66.160111 253.86162,66.013626 C 254.12529,65.863887 254.31897,65.660437 254.44267,65.403275 C 254.53707,65.204708 254.58427,64.91174 254.58427,64.524368 L 254.58427,64.202103 M 256.679,67.234329 L 257.53349,67.361282 C 257.5693,67.624953 257.66858,67.817011 257.83134,67.937454 C 258.04944,68.100213 258.34729,68.181593 258.7249,68.181595 C 259.1318,68.181593 259.44592,68.100213 259.66728,67.937454 C 259.88863,67.774693 260.03837,67.546828 260.1165,67.25386 C 260.16207,67.074824 260.18323,66.698848 260.17998,66.125931 C 259.79586,66.578405 259.31734,66.804642 258.74443,66.804642 C 258.03154,66.804642 257.47978,66.547481 257.08916,66.033157 C 256.69853,65.518836 256.50322,64.901974 256.50322,64.182571 C 256.50322,63.687783 256.59274,63.232054 256.77177,62.815384 C 256.95081,62.395466 257.2096,62.071574 257.54814,61.843704 C 257.88994,61.615845 258.29033,61.501913 258.74931,61.501907 C 259.36129,61.501913 259.86585,61.749308 260.26299,62.244095 L 260.26299,61.619095 L 261.07353,61.619095 L 261.07353,66.101517 C 261.07353,66.908808 260.99052,67.480097 260.82451,67.815384 C 260.66174,68.153924 260.40133,68.420851 260.04326,68.616165 C 259.68844,68.811476 259.25061,68.909132 258.72978,68.909134 C 258.11129,68.909132 257.61162,68.769158 257.23076,68.489212 C 256.8499,68.212518 256.66598,67.794224 256.679,67.234329 M 257.40654,64.119095 C 257.40654,64.799435 257.54163,65.295854 257.81181,65.608353 C 258.08199,65.920854 258.42054,66.077103 258.82744,66.077103 C 259.23108,66.077103 259.56962,65.922481 259.84306,65.613235 C 260.1165,65.300737 260.25322,64.812456 260.25322,64.148392 C 260.25322,63.513629 260.11161,63.035114 259.82841,62.712845 C 259.54846,62.390584 259.20992,62.229451 258.81279,62.229446 C 258.42216,62.229451 258.09013,62.388956 257.8167,62.707962 C 257.54326,63.023721 257.40654,63.494098 257.40654,64.119095 M 262.05498,65.25679 L 262.92412,65.120071 C 262.97294,65.46838 263.10804,65.735307 263.32939,65.920853 C 263.554,66.1064 263.8665,66.199174 264.26689,66.199173 C 264.67053,66.199174 264.97001,66.117793 265.16533,65.955032 C 265.36064,65.789018 265.45829,65.595333 265.4583,65.373978 C 265.45829,65.175412 265.37203,65.019162 265.19951,64.905228 C 265.07906,64.827105 264.77958,64.727821 264.30107,64.607376 C 263.65654,64.444618 263.20895,64.304644 262.9583,64.187454 C 262.7109,64.067014 262.5221,63.902626 262.39189,63.69429 C 262.26494,63.482705 262.20146,63.249958 262.20146,62.996048 C 262.20146,62.764932 262.25354,62.551716 262.35771,62.3564 C 262.46513,62.157836 262.60999,61.993449 262.79228,61.863235 C 262.929,61.762329 263.11455,61.677694 263.34892,61.609329 C 263.58655,61.53772 263.84046,61.501913 264.11064,61.501907 C 264.51754,61.501913 264.87398,61.560506 265.17998,61.677689 C 265.48922,61.794881 265.71708,61.954386 265.86357,62.156204 C 266.01005,62.354776 266.11096,62.621703 266.16631,62.956985 L 265.30693,63.074173 C 265.26786,62.80725 265.15393,62.598917 264.96513,62.449173 C 264.77958,62.299438 264.51591,62.224568 264.17412,62.224564 C 263.77047,62.224568 263.48238,62.2913 263.30986,62.424759 C 263.13733,62.558227 263.05107,62.714477 263.05107,62.893509 C 263.05107,63.007445 263.08688,63.109984 263.15849,63.201126 C 263.23011,63.295531 263.34241,63.373656 263.49541,63.435501 C 263.5833,63.468057 263.84208,63.542926 264.27177,63.66011 C 264.89352,63.826129 265.32646,63.962848 265.5706,64.070267 C 265.81799,64.174436 266.01168,64.327431 266.15166,64.529251 C 266.29163,64.731076 266.36161,64.981727 266.36162,65.281204 C 266.36161,65.574174 266.27535,65.850867 266.10283,66.111282 C 265.93355,66.368444 265.68779,66.568639 265.36552,66.711868 C 265.04326,66.851842 264.67867,66.921829 264.27177,66.921829 C 263.59794,66.921829 263.08362,66.781855 262.72881,66.501907 C 262.37724,66.22196 262.15263,65.806921 262.05498,65.25679 M 270.18486,60.657181 L 270.18486,59.646439 L 271.06377,59.646439 L 271.06377,60.657181 L 270.18486,60.657181 M 270.18486,66.804642 L 270.18486,61.619095 L 271.06377,61.619095 L 271.06377,66.804642 L 270.18486,66.804642 M 272.05498,65.25679 L 272.92412,65.120071 C 272.97294,65.46838 273.10804,65.735307 273.32939,65.920853 C 273.554,66.1064 273.8665,66.199174 274.26689,66.199173 C 274.67053,66.199174 274.97001,66.117793 275.16533,65.955032 C 275.36064,65.789018 275.45829,65.595333 275.4583,65.373978 C 275.45829,65.175412 275.37203,65.019162 275.19951,64.905228 C 275.07906,64.827105 274.77958,64.727821 274.30107,64.607376 C 273.65654,64.444618 273.20895,64.304644 272.9583,64.187454 C 272.7109,64.067014 272.5221,63.902626 272.39189,63.69429 C 272.26494,63.482705 272.20146,63.249958 272.20146,62.996048 C 272.20146,62.764932 272.25354,62.551716 272.35771,62.3564 C 272.46513,62.157836 272.60999,61.993449 272.79228,61.863235 C 272.929,61.762329 273.11455,61.677694 273.34892,61.609329 C 273.58655,61.53772 273.84046,61.501913 274.11064,61.501907 C 274.51754,61.501913 274.87398,61.560506 275.17998,61.677689 C 275.48922,61.794881 275.71708,61.954386 275.86357,62.156204 C 276.01005,62.354776 276.11096,62.621703 276.16631,62.956985 L 275.30693,63.074173 C 275.26786,62.80725 275.15393,62.598917 274.96513,62.449173 C 274.77958,62.299438 274.51591,62.224568 274.17412,62.224564 C 273.77047,62.224568 273.48238,62.2913 273.30986,62.424759 C 273.13733,62.558227 273.05107,62.714477 273.05107,62.893509 C 273.05107,63.007445 273.08688,63.109984 273.15849,63.201126 C 273.23011,63.295531 273.34241,63.373656 273.49541,63.435501 C 273.5833,63.468057 273.84208,63.542926 274.27177,63.66011 C 274.89352,63.826129 275.32646,63.962848 275.5706,64.070267 C 275.81799,64.174436 276.01168,64.327431 276.15166,64.529251 C 276.29163,64.731076 276.36161,64.981727 276.36162,65.281204 C 276.36161,65.574174 276.27535,65.850867 276.10283,66.111282 C 275.93355,66.368444 275.68779,66.568639 275.36552,66.711868 C 275.04326,66.851842 274.67867,66.921829 274.27177,66.921829 C 273.59794,66.921829 273.08362,66.781855 272.72881,66.501907 C 272.37724,66.22196 272.15263,65.806921 272.05498,65.25679 M 283.56377,66.164993 C 283.23824,66.441686 282.92411,66.636999 282.62138,66.750931 C 282.3219,66.864863 281.99964,66.921829 281.65459,66.921829 C 281.08492,66.921829 280.6471,66.783483 280.34111,66.50679 C 280.03512,66.226843 279.88213,65.870398 279.88213,65.437454 C 279.88213,65.18355 279.93909,64.95243 280.05302,64.744095 C 280.17021,64.532509 280.32158,64.363238 280.50713,64.236282 C 280.69593,64.109332 280.90752,64.013303 281.14189,63.948196 C 281.31442,63.902626 281.57483,63.858681 281.92314,63.81636 C 282.63277,63.731728 283.15523,63.630817 283.49052,63.513626 C 283.49378,63.393187 283.4954,63.316689 283.49541,63.284134 C 283.4954,62.926065 283.4124,62.673786 283.24638,62.527298 C 283.02177,62.328735 282.68811,62.229451 282.24541,62.229446 C 281.83199,62.229451 281.526,62.302693 281.32744,62.449173 C 281.13212,62.592406 280.98727,62.84794 280.89287,63.215775 L 280.03349,63.098587 C 280.11162,62.730753 280.2402,62.434529 280.41924,62.209915 C 280.59827,61.982055 280.85706,61.807902 281.1956,61.687454 C 281.53414,61.563762 281.92639,61.501913 282.37236,61.501907 C 282.81507,61.501913 283.17477,61.553996 283.45146,61.658157 C 283.72815,61.762329 283.9316,61.894165 284.06181,62.053665 C 284.19202,62.20992 284.28316,62.408487 284.33525,62.649368 C 284.36454,62.799112 284.37919,63.069294 284.3792,63.459915 L 284.3792,64.63179 C 284.37919,65.448849 284.39709,65.966426 284.43291,66.184525 C 284.47196,66.399369 284.54683,66.606074 284.65752,66.804642 L 283.73955,66.804642 C 283.6484,66.62235 283.5898,66.409134 283.56377,66.164993 M 283.49052,64.202103 C 283.17151,64.332313 282.693,64.44299 282.05498,64.534134 C 281.69365,64.586219 281.43811,64.644813 281.28838,64.709915 C 281.13863,64.775021 281.02307,64.87105 280.9417,64.998001 C 280.86031,65.121701 280.81962,65.260047 280.81963,65.41304 C 280.81962,65.647416 280.90752,65.842729 281.0833,65.998978 C 281.26233,66.155228 281.52275,66.233353 281.86455,66.233353 C 282.20309,66.233353 282.50419,66.160111 282.76787,66.013626 C 283.03154,65.863887 283.22522,65.660437 283.34892,65.403275 C 283.44332,65.204708 283.49052,64.91174 283.49052,64.524368 L 283.49052,64.202103 M 285.74638,66.804642 L 285.74638,61.619095 L 286.5374,61.619095 L 286.5374,62.3564 C 286.91826,61.786743 287.46839,61.501913 288.18779,61.501907 C 288.50029,61.501913 288.78674,61.558879 289.04716,61.672806 C 289.31083,61.783488 289.50777,61.929972 289.63799,62.112259 C 289.76819,62.294555 289.85933,62.511026 289.91142,62.761673 C 289.94397,62.924437 289.96025,63.209268 289.96025,63.616165 L 289.96025,66.804642 L 289.08134,66.804642 L 289.08134,63.650345 C 289.08134,63.292275 289.04716,63.025349 288.97881,62.849564 C 288.91044,62.670531 288.78837,62.52893 288.61259,62.424759 C 288.44007,62.317342 288.23661,62.263631 288.00224,62.263626 C 287.62789,62.263631 287.304,62.382446 287.03056,62.620071 C 286.76038,62.857706 286.62529,63.308551 286.62529,63.97261 L 286.62529,66.804642 L 285.74638,66.804642 M 290.98564,64.211868 C 290.98564,63.251585 291.25257,62.540323 291.78642,62.078079 C 292.23238,61.69397 292.776,61.501913 293.41728,61.501907 C 294.13017,61.501913 294.71285,61.736287 295.16533,62.205032 C 295.6178,62.670531 295.84403,63.315062 295.84404,64.138626 C 295.84403,64.805946 295.74312,65.331661 295.54131,65.715775 C 295.34273,66.096635 295.05139,66.392858 294.66728,66.604446 C 294.28642,66.816035 293.86975,66.921829 293.41728,66.921829 C 292.69137,66.921829 292.1038,66.689082 291.65459,66.223587 C 291.20862,65.758093 290.98564,65.087521 290.98564,64.211868 M 291.88896,64.211868 C 291.88896,64.875933 292.03382,65.373979 292.32353,65.706009 C 292.61324,66.034786 292.97783,66.199174 293.41728,66.199173 C 293.85348,66.199174 294.21643,66.033158 294.50615,65.701126 C 294.79586,65.369096 294.94072,64.862912 294.94072,64.182571 C 294.94072,63.541299 294.79423,63.056273 294.50127,62.727493 C 294.21155,62.395466 293.85022,62.229451 293.41728,62.229446 C 292.97783,62.229451 292.61324,62.393839 292.32353,62.72261 C 292.03382,63.05139 291.88896,63.547809 291.88896,64.211868 M 298.79814,66.018509 L 298.92509,66.794876 C 298.6777,66.846959 298.45634,66.873001 298.26103,66.873001 C 297.94202,66.873001 297.69462,66.822545 297.51884,66.721634 C 297.34306,66.620723 297.21936,66.488887 297.14775,66.326126 C 297.07614,66.160111 297.04033,65.813432 297.04033,65.286087 L 297.04033,62.302689 L 296.3958,62.302689 L 296.3958,61.619095 L 297.04033,61.619095 L 297.04033,60.334915 L 297.91435,59.807571 L 297.91435,61.619095 L 298.79814,61.619095 L 298.79814,62.302689 L 297.91435,62.302689 L 297.91435,65.334915 C 297.91435,65.585567 297.929,65.7467 297.9583,65.818314 C 297.99085,65.889929 298.0413,65.946895 298.10966,65.989212 C 298.18128,66.031531 298.28219,66.052689 298.4124,66.052689 C 298.51005,66.052689 298.63863,66.041296 298.79814,66.018509 M 299.65263,66.804642 L 299.65263,59.646439 L 300.53154,59.646439 L 300.53154,62.214798 C 300.94169,61.739543 301.45927,61.501913 302.08427,61.501907 C 302.46839,61.501913 302.80204,61.57841 303.08525,61.7314 C 303.36845,61.881144 303.57027,62.089477 303.69072,62.3564 C 303.81441,62.623331 303.87626,63.0107 303.87627,63.518509 L 303.87627,66.804642 L 302.99736,66.804642 L 302.99736,63.518509 C 302.99736,63.07906 302.90133,62.760049 302.70927,62.561478 C 302.52047,62.359659 302.25191,62.258748 301.90361,62.258743 C 301.64319,62.258748 301.39742,62.327107 301.16631,62.463821 C 300.93844,62.597289 300.77568,62.779581 300.67802,63.010696 C 300.58037,63.24182 300.53154,63.56083 300.53154,63.967728 L 300.53154,66.804642 L 299.65263,66.804642 M 308.76884,65.13472 L 309.67705,65.247025 C 309.53381,65.777625 309.26851,66.189408 308.88115,66.482376 C 308.49378,66.775345 307.99898,66.921829 307.39677,66.921829 C 306.63831,66.921829 306.0361,66.689082 305.59013,66.223587 C 305.14742,65.754838 304.92607,65.098914 304.92607,64.255814 C 304.92607,63.383421 305.15068,62.706339 305.5999,62.224564 C 306.04912,61.742798 306.6318,61.501913 307.34795,61.501907 C 308.0413,61.501913 308.60771,61.737915 309.04716,62.209915 C 309.48661,62.681924 309.70634,63.345986 309.70634,64.202103 C 309.70634,64.254189 309.70471,64.332313 309.70146,64.436478 L 305.83427,64.436478 C 305.86683,65.006141 306.02796,65.442338 306.31767,65.745071 C 306.60738,66.047807 306.96871,66.199174 307.40166,66.199173 C 307.72392,66.199174 307.99898,66.114538 308.22685,65.945267 C 308.45471,65.775997 308.63538,65.505815 308.76884,65.13472 M 305.8831,63.713821 L 308.77861,63.713821 C 308.73954,63.277627 308.62887,62.950479 308.44658,62.732376 C 308.16663,62.393839 307.80367,62.224568 307.35771,62.224564 C 306.95406,62.224568 306.61389,62.359659 306.3372,62.629837 C 306.06376,62.900023 305.9124,63.261351 305.8831,63.713821 M 310.77568,66.804642 L 310.77568,61.619095 L 311.5667,61.619095 L 311.5667,62.405228 C 311.76852,62.037394 311.95406,61.794881 312.12334,61.677689 C 312.29586,61.560506 312.48466,61.501913 312.68974,61.501907 C 312.98596,61.501913 313.28707,61.596314 313.59306,61.78511 L 313.29033,62.60054 C 313.07548,62.473591 312.86064,62.410115 312.6458,62.41011 C 312.45374,62.410115 312.28121,62.468709 312.12822,62.585892 C 311.97522,62.699828 311.86617,62.859333 311.80107,63.064407 C 311.70341,63.376911 311.65459,63.718707 311.65459,64.089798 L 311.65459,66.804642 L 310.77568,66.804642 M 316.73759,67.234329 L 317.59209,67.361282 C 317.62789,67.624953 317.72718,67.817011 317.88994,67.937454 C 318.10804,68.100213 318.40589,68.181593 318.78349,68.181595 C 319.19039,68.181593 319.50452,68.100213 319.72588,67.937454 C 319.94723,67.774693 320.09697,67.546828 320.17509,67.25386 C 320.22066,67.074824 320.24182,66.698848 320.23857,66.125931 C 319.85445,66.578405 319.37594,66.804642 318.80302,66.804642 C 318.09013,66.804642 317.53837,66.547481 317.14775,66.033157 C 316.75713,65.518836 316.56181,64.901974 316.56181,64.182571 C 316.56181,63.687783 316.65133,63.232054 316.83037,62.815384 C 317.0094,62.395466 317.26819,62.071574 317.60674,61.843704 C 317.94853,61.615845 318.34892,61.501913 318.80791,61.501907 C 319.41988,61.501913 319.92444,61.749308 320.32158,62.244095 L 320.32158,61.619095 L 321.13213,61.619095 L 321.13213,66.101517 C 321.13212,66.908808 321.04911,67.480097 320.8831,67.815384 C 320.72034,68.153924 320.45992,68.420851 320.10185,68.616165 C 319.74703,68.811476 319.30921,68.909132 318.78838,68.909134 C 318.16988,68.909132 317.67021,68.769158 317.28935,68.489212 C 316.90849,68.212518 316.72457,67.794224 316.73759,67.234329 M 317.46513,64.119095 C 317.46513,64.799435 317.60022,65.295854 317.87041,65.608353 C 318.14059,65.920854 318.47913,66.077103 318.88603,66.077103 C 319.28967,66.077103 319.62822,65.922481 319.90166,65.613235 C 320.17509,65.300737 320.31181,64.812456 320.31181,64.148392 C 320.31181,63.513629 320.17021,63.035114 319.88701,62.712845 C 319.60706,62.390584 319.26852,62.229451 318.87138,62.229446 C 318.48076,62.229451 318.14873,62.388956 317.87529,62.707962 C 317.60185,63.023721 317.46513,63.494098 317.46513,64.119095 M 325.84892,66.164993 C 325.5234,66.441686 325.20927,66.636999 324.90654,66.750931 C 324.60706,66.864863 324.28479,66.921829 323.93974,66.921829 C 323.37008,66.921829 322.93225,66.783483 322.62627,66.50679 C 322.32028,66.226843 322.16728,65.870398 322.16728,65.437454 C 322.16728,65.18355 322.22425,64.95243 322.33818,64.744095 C 322.45537,64.532509 322.60673,64.363238 322.79228,64.236282 C 322.98108,64.109332 323.19267,64.013303 323.42705,63.948196 C 323.59957,63.902626 323.85999,63.858681 324.2083,63.81636 C 324.91793,63.731728 325.44039,63.630817 325.77568,63.513626 C 325.77893,63.393187 325.78056,63.316689 325.78056,63.284134 C 325.78056,62.926065 325.69755,62.673786 325.53154,62.527298 C 325.30693,62.328735 324.97327,62.229451 324.53056,62.229446 C 324.11715,62.229451 323.81116,62.302693 323.61259,62.449173 C 323.41728,62.592406 323.27242,62.84794 323.17802,63.215775 L 322.31865,63.098587 C 322.39677,62.730753 322.52535,62.434529 322.70439,62.209915 C 322.88343,61.982055 323.14222,61.807902 323.48076,61.687454 C 323.8193,61.563762 324.21155,61.501913 324.65752,61.501907 C 325.10022,61.501913 325.45992,61.553996 325.73662,61.658157 C 326.01331,61.762329 326.21676,61.894165 326.34697,62.053665 C 326.47717,62.20992 326.56832,62.408487 326.62041,62.649368 C 326.6497,62.799112 326.66435,63.069294 326.66435,63.459915 L 326.66435,64.63179 C 326.66435,65.448849 326.68225,65.966426 326.71806,66.184525 C 326.75712,66.399369 326.83199,66.606074 326.94267,66.804642 L 326.0247,66.804642 C 325.93355,66.62235 325.87496,66.409134 325.84892,66.164993 M 325.77568,64.202103 C 325.45667,64.332313 324.97815,64.44299 324.34013,64.534134 C 323.9788,64.586219 323.72327,64.644813 323.57353,64.709915 C 323.42379,64.775021 323.30823,64.87105 323.22685,64.998001 C 323.14547,65.121701 323.10478,65.260047 323.10478,65.41304 C 323.10478,65.647416 323.19267,65.842729 323.36845,65.998978 C 323.54749,66.155228 323.80791,66.233353 324.1497,66.233353 C 324.48824,66.233353 324.78935,66.160111 325.05302,66.013626 C 325.31669,65.863887 325.51038,65.660437 325.63408,65.403275 C 325.72848,65.204708 325.77568,64.91174 325.77568,64.524368 L 325.77568,64.202103 M 328.03154,66.804642 L 328.03154,61.619095 L 328.81767,61.619095 L 328.81767,62.346634 C 328.98043,62.092732 329.1969,61.889282 329.46709,61.736282 C 329.73727,61.580038 330.04488,61.501913 330.38994,61.501907 C 330.77405,61.501913 331.08818,61.581665 331.33232,61.741165 C 331.57971,61.900675 331.75387,62.123657 331.85478,62.41011 C 332.26493,61.804647 332.79879,61.501913 333.45634,61.501907 C 333.97066,61.501913 334.36617,61.645142 334.64287,61.931595 C 334.91955,62.214803 335.0579,62.652628 335.05791,63.245071 L 335.05791,66.804642 L 334.18388,66.804642 L 334.18388,63.53804 C 334.18388,63.186481 334.15458,62.934203 334.09599,62.781204 C 334.04065,62.624958 333.93811,62.499633 333.78838,62.405228 C 333.63863,62.310831 333.46285,62.263631 333.26103,62.263626 C 332.89644,62.263631 332.59371,62.385701 332.35283,62.629837 C 332.11194,62.870726 331.9915,63.258096 331.9915,63.791946 L 331.9915,66.804642 L 331.11259,66.804642 L 331.11259,63.435501 C 331.11259,63.04488 331.04098,62.751911 330.89775,62.556595 C 330.75452,62.361287 330.52014,62.263631 330.19463,62.263626 C 329.94723,62.263631 329.71774,62.328735 329.50615,62.458939 C 329.29781,62.589151 329.14645,62.779581 329.05205,63.030228 C 328.95765,63.280882 328.91044,63.64221 328.91045,64.114212 L 328.91045,66.804642 L 328.03154,66.804642 M 339.94072,65.13472 L 340.84892,65.247025 C 340.70569,65.777625 340.44039,66.189408 340.05302,66.482376 C 339.66565,66.775345 339.17086,66.921829 338.56865,66.921829 C 337.81018,66.921829 337.20797,66.689082 336.76201,66.223587 C 336.3193,65.754838 336.09795,65.098914 336.09795,64.255814 C 336.09795,63.383421 336.32255,62.706339 336.77177,62.224564 C 337.22099,61.742798 337.80367,61.501913 338.51982,61.501907 C 339.21318,61.501913 339.77958,61.737915 340.21904,62.209915 C 340.65849,62.681924 340.87821,63.345986 340.87822,64.202103 C 340.87821,64.254189 340.87659,64.332313 340.87334,64.436478 L 337.00615,64.436478 C 337.0387,65.006141 337.19983,65.442338 337.48955,65.745071 C 337.77926,66.047807 338.14059,66.199174 338.57353,66.199173 C 338.89579,66.199174 339.17086,66.114538 339.39873,65.945267 C 339.62659,65.775997 339.80725,65.505815 339.94072,65.13472 M 337.05498,63.713821 L 339.95049,63.713821 C 339.91142,63.277627 339.80074,62.950479 339.61845,62.732376 C 339.3385,62.393839 338.97555,62.224568 338.52959,62.224564 C 338.12594,62.224568 337.78577,62.359659 337.50908,62.629837 C 337.23564,62.900023 337.08427,63.261351 337.05498,63.713821 M 344.3792,65.25679 L 345.24834,65.120071 C 345.29716,65.46838 345.43225,65.735307 345.65361,65.920853 C 345.87822,66.1064 346.19072,66.199174 346.59111,66.199173 C 346.99475,66.199174 347.29423,66.117793 347.48955,65.955032 C 347.68486,65.789018 347.78251,65.595333 347.78252,65.373978 C 347.78251,65.175412 347.69625,65.019162 347.52373,64.905228 C 347.40328,64.827105 347.1038,64.727821 346.62529,64.607376 C 345.98076,64.444618 345.53317,64.304644 345.28252,64.187454 C 345.03512,64.067014 344.84632,63.902626 344.71611,63.69429 C 344.58916,63.482705 344.52568,63.249958 344.52568,62.996048 C 344.52568,62.764932 344.57776,62.551716 344.68193,62.3564 C 344.78935,62.157836 344.93421,61.993449 345.1165,61.863235 C 345.25322,61.762329 345.43877,61.677694 345.67314,61.609329 C 345.91077,61.53772 346.16468,61.501913 346.43486,61.501907 C 346.84176,61.501913 347.1982,61.560506 347.5042,61.677689 C 347.81344,61.794881 348.0413,61.954386 348.18779,62.156204 C 348.33427,62.354776 348.43518,62.621703 348.49052,62.956985 L 347.63115,63.074173 C 347.59208,62.80725 347.47815,62.598917 347.28935,62.449173 C 347.1038,62.299438 346.84013,62.224568 346.49834,62.224564 C 346.09469,62.224568 345.8066,62.2913 345.63408,62.424759 C 345.46155,62.558227 345.37529,62.714477 345.37529,62.893509 C 345.37529,63.007445 345.4111,63.109984 345.48271,63.201126 C 345.55432,63.295531 345.66663,63.373656 345.81963,63.435501 C 345.90751,63.468057 346.1663,63.542926 346.59599,63.66011 C 347.21773,63.826129 347.65068,63.962848 347.89482,64.070267 C 348.14221,64.174436 348.3359,64.327431 348.47588,64.529251 C 348.61585,64.731076 348.68583,64.981727 348.68584,65.281204 C 348.68583,65.574174 348.59957,65.850867 348.42705,66.111282 C 348.25777,66.368444 348.012,66.568639 347.68974,66.711868 C 347.36747,66.851842 347.00289,66.921829 346.59599,66.921829 C 345.92216,66.921829 345.40784,66.781855 345.05302,66.501907 C 344.70146,66.22196 344.47685,65.806921 344.3792,65.25679 M 349.6917,68.801712 L 349.59404,67.976517 C 349.7861,68.028599 349.95374,68.05464 350.09697,68.054642 C 350.29228,68.05464 350.44853,68.022088 350.56572,67.956985 C 350.68291,67.89188 350.77893,67.800734 350.85381,67.683548 C 350.90914,67.595657 350.99866,67.377558 351.12236,67.029251 C 351.13863,66.980423 351.16468,66.908808 351.20049,66.814407 L 349.23271,61.619095 L 350.17998,61.619095 L 351.25908,64.622025 C 351.39905,65.002886 351.52438,65.403276 351.63506,65.823196 C 351.73596,65.419552 351.85641,65.025672 351.99638,64.641556 L 353.10478,61.619095 L 353.98369,61.619095 L 352.01103,66.892532 C 351.79944,67.462193 351.63505,67.854445 351.51787,68.06929 C 351.36162,68.359002 351.18258,68.57059 350.98076,68.704056 C 350.77893,68.840772 350.53805,68.909132 350.2581,68.909134 C 350.08883,68.909132 349.90003,68.873325 349.6917,68.801712 M 354.3792,65.25679 L 355.24834,65.120071 C 355.29716,65.46838 355.43225,65.735307 355.65361,65.920853 C 355.87822,66.1064 356.19072,66.199174 356.59111,66.199173 C 356.99475,66.199174 357.29423,66.117793 357.48955,65.955032 C 357.68486,65.789018 357.78251,65.595333 357.78252,65.373978 C 357.78251,65.175412 357.69625,65.019162 357.52373,64.905228 C 357.40328,64.827105 357.1038,64.727821 356.62529,64.607376 C 355.98076,64.444618 355.53317,64.304644 355.28252,64.187454 C 355.03512,64.067014 354.84632,63.902626 354.71611,63.69429 C 354.58916,63.482705 354.52568,63.249958 354.52568,62.996048 C 354.52568,62.764932 354.57776,62.551716 354.68193,62.3564 C 354.78935,62.157836 354.93421,61.993449 355.1165,61.863235 C 355.25322,61.762329 355.43877,61.677694 355.67314,61.609329 C 355.91077,61.53772 356.16468,61.501913 356.43486,61.501907 C 356.84176,61.501913 357.1982,61.560506 357.5042,61.677689 C 357.81344,61.794881 358.0413,61.954386 358.18779,62.156204 C 358.33427,62.354776 358.43518,62.621703 358.49052,62.956985 L 357.63115,63.074173 C 357.59208,62.80725 357.47815,62.598917 357.28935,62.449173 C 357.1038,62.299438 356.84013,62.224568 356.49834,62.224564 C 356.09469,62.224568 355.8066,62.2913 355.63408,62.424759 C 355.46155,62.558227 355.37529,62.714477 355.37529,62.893509 C 355.37529,63.007445 355.4111,63.109984 355.48271,63.201126 C 355.55432,63.295531 355.66663,63.373656 355.81963,63.435501 C 355.90751,63.468057 356.1663,63.542926 356.59599,63.66011 C 357.21773,63.826129 357.65068,63.962848 357.89482,64.070267 C 358.14221,64.174436 358.3359,64.327431 358.47588,64.529251 C 358.61585,64.731076 358.68583,64.981727 358.68584,65.281204 C 358.68583,65.574174 358.59957,65.850867 358.42705,66.111282 C 358.25777,66.368444 358.012,66.568639 357.68974,66.711868 C 357.36747,66.851842 357.00289,66.921829 356.59599,66.921829 C 355.92216,66.921829 355.40784,66.781855 355.05302,66.501907 C 354.70146,66.22196 354.47685,65.806921 354.3792,65.25679 M 361.6497,66.018509 L 361.77666,66.794876 C 361.52926,66.846959 361.3079,66.873001 361.11259,66.873001 C 360.79358,66.873001 360.54619,66.822545 360.37041,66.721634 C 360.19462,66.620723 360.07093,66.488887 359.99931,66.326126 C 359.9277,66.160111 359.89189,65.813432 359.89189,65.286087 L 359.89189,62.302689 L 359.24736,62.302689 L 359.24736,61.619095 L 359.89189,61.619095 L 359.89189,60.334915 L 360.76591,59.807571 L 360.76591,61.619095 L 361.6497,61.619095 L 361.6497,62.302689 L 360.76591,62.302689 L 360.76591,65.334915 C 360.76591,65.585567 360.78056,65.7467 360.80986,65.818314 C 360.84241,65.889929 360.89287,65.946895 360.96123,65.989212 C 361.03284,66.031531 361.13375,66.052689 361.26396,66.052689 C 361.36162,66.052689 361.4902,66.041296 361.6497,66.018509 M 366.054,65.13472 L 366.9622,65.247025 C 366.81897,65.777625 366.55367,66.189408 366.16631,66.482376 C 365.77893,66.775345 365.28414,66.921829 364.68193,66.921829 C 363.92346,66.921829 363.32125,66.689082 362.87529,66.223587 C 362.43258,65.754838 362.21123,65.098914 362.21123,64.255814 C 362.21123,63.383421 362.43584,62.706339 362.88506,62.224564 C 363.33427,61.742798 363.91695,61.501913 364.6331,61.501907 C 365.32646,61.501913 365.89286,61.737915 366.33232,62.209915 C 366.77177,62.681924 366.9915,63.345986 366.9915,64.202103 C 366.9915,64.254189 366.98987,64.332313 366.98662,64.436478 L 363.11943,64.436478 C 363.15198,65.006141 363.31311,65.442338 363.60283,65.745071 C 363.89254,66.047807 364.25387,66.199174 364.68681,66.199173 C 365.00908,66.199174 365.28414,66.114538 365.51201,65.945267 C 365.73987,65.775997 365.92053,65.505815 366.054,65.13472 M 363.16826,63.713821 L 366.06377,63.713821 C 366.0247,63.277627 365.91402,62.950479 365.73174,62.732376 C 365.45178,62.393839 365.08883,62.224568 364.64287,62.224564 C 364.23922,62.224568 363.89905,62.359659 363.62236,62.629837 C 363.34892,62.900023 363.19755,63.261351 363.16826,63.713821 M 368.0706,66.804642 L 368.0706,61.619095 L 368.85674,61.619095 L 368.85674,62.346634 C 369.01949,62.092732 369.23597,61.889282 369.50615,61.736282 C 369.77633,61.580038 370.08395,61.501913 370.429,61.501907 C 370.81311,61.501913 371.12724,61.581665 371.37138,61.741165 C 371.61878,61.900675 371.79293,62.123657 371.89384,62.41011 C 372.304,61.804647 372.83785,61.501913 373.49541,61.501907 C 374.00972,61.501913 374.40523,61.645142 374.68193,61.931595 C 374.95862,62.214803 375.09696,62.652628 375.09697,63.245071 L 375.09697,66.804642 L 374.22295,66.804642 L 374.22295,63.53804 C 374.22294,63.186481 374.19364,62.934203 374.13506,62.781204 C 374.07971,62.624958 373.97717,62.499633 373.82744,62.405228 C 373.67769,62.310831 373.50191,62.263631 373.30009,62.263626 C 372.93551,62.263631 372.63277,62.385701 372.39189,62.629837 C 372.151,62.870726 372.03056,63.258096 372.03056,63.791946 L 372.03056,66.804642 L 371.15166,66.804642 L 371.15166,63.435501 C 371.15165,63.04488 371.08004,62.751911 370.93681,62.556595 C 370.79358,62.361287 370.55921,62.263631 370.23369,62.263626 C 369.98629,62.263631 369.7568,62.328735 369.54521,62.458939 C 369.33688,62.589151 369.18551,62.779581 369.09111,63.030228 C 368.99671,63.280882 368.94951,63.64221 368.94951,64.114212 L 368.94951,66.804642 L 368.0706,66.804642"
         style="font-size:10px;font-style:normal;font-variant:normal;font-weight:normal;font-stretch:normal;text-align:start;line-height:100%;writing-mode:lr-tb;text-anchor:start;fill:#a0a0a0;fill-opacity:1;stroke:none;stroke-width:1px;stroke-linecap:butt;stroke-linejoin:miter;stroke-opacity:1;font-family:Arial" />
    </g>
  </g>
</svg>
