<?xml version="1.0" encoding="UTF-8" standalone="no"?>
<!-- Created with Inkscape (http://www.inkscape.org/) -->
<svg
   xmlns:dc="http://purl.org/dc/elements/1.1/"
   xmlns:cc="http://web.resource.org/cc/"
   xmlns:rdf="http://www.w3.org/1999/02/22-rdf-syntax-ns#"
   xmlns:svg="http://www.w3.org/2000/svg"
   xmlns="http://www.w3.org/2000/svg"
   xmlns:xlink="http://www.w3.org/1999/xlink"
   xmlns:sodipodi="http://sodipodi.sourceforge.net/DTD/sodipodi-0.dtd"
   xmlns:inkscape="http://www.inkscape.org/namespaces/inkscape"
   width="128"
   height="128"
   id="svg1877"
   sodipodi:version="0.32"
   inkscape:version="0.45.1"
   version="1.0"
   sodipodi:docbase="/home/sam/rpg/yags/icons"
   sodipodi:docname="book.svg"
   inkscape:output_extension="org.inkscape.output.svg.inkscape">
  <defs
     id="defs1879">
    <linearGradient
       inkscape:collect="always"
       id="linearGradient2913">
      <stop
         style="stop-color:#a4c0e4;stop-opacity:1;"
         offset="0"
         id="stop2915" />
      <stop
         style="stop-color:#a4c0e4;stop-opacity:0;"
         offset="1"
         id="stop2917" />
    </linearGradient>
    <linearGradient
       id="linearGradient5477">
      <stop
         style="stop-color:black;stop-opacity:1;"
         offset="0"
         id="stop5479" />
      <stop
         style="stop-color:white;stop-opacity:1;"
         offset="1"
         id="stop5481" />
    </linearGradient>
    <linearGradient
       inkscape:collect="always"
       id="linearGradient3880">
      <stop
         style="stop-color:black;stop-opacity:1;"
         offset="0"
         id="stop3882" />
      <stop
         style="stop-color:black;stop-opacity:0;"
         offset="1"
         id="stop3884" />
    </linearGradient>
    <linearGradient
       inkscape:collect="always"
       id="linearGradient3853">
      <stop
         style="stop-color:black;stop-opacity:1;"
         offset="0"
         id="stop3855" />
      <stop
         style="stop-color:black;stop-opacity:0;"
         offset="1"
         id="stop3857" />
    </linearGradient>
    <linearGradient
       id="linearGradient3837">
      <stop
         style="stop-color:black;stop-opacity:1;"
         offset="0"
         id="stop3839" />
      <stop
         id="stop3849"
         offset="0.25"
         style="stop-color:black;stop-opacity:0.59927797;" />
      <stop
         id="stop3847"
         offset="0.5"
         style="stop-color:black;stop-opacity:0.27797833;" />
      <stop
         style="stop-color:black;stop-opacity:0;"
         offset="1"
         id="stop3841" />
    </linearGradient>
    <linearGradient
       id="linearGradient3814">
      <stop
         style="stop-color:white;stop-opacity:0;"
         offset="0"
         id="stop3816" />
      <stop
         id="stop3824"
         offset="0.18531764"
         style="stop-color:white;stop-opacity:0;" />
      <stop
         id="stop3822"
         offset="0.28106508"
         style="stop-color:white;stop-opacity:0.33574006;" />
      <stop
         style="stop-color:white;stop-opacity:0.1696751;"
         offset="0.45126861"
         id="stop3829" />
      <stop
         id="stop3831"
         offset="0.47940481"
         style="stop-color:white;stop-opacity:0;" />
      <stop
         style="stop-color:white;stop-opacity:0.3068592;"
         offset="0.65610015"
         id="stop3833" />
      <stop
         style="stop-color:white;stop-opacity:0;"
         offset="1"
         id="stop3818" />
    </linearGradient>
    <linearGradient
       inkscape:collect="always"
       id="linearGradient3804">
      <stop
         style="stop-color:white;stop-opacity:1;"
         offset="0"
         id="stop3806" />
      <stop
         style="stop-color:white;stop-opacity:0;"
         offset="1"
         id="stop3808" />
    </linearGradient>
    <linearGradient
       inkscape:collect="always"
       id="linearGradient3783">
      <stop
         style="stop-color:white;stop-opacity:1;"
         offset="0"
         id="stop3785" />
      <stop
         style="stop-color:white;stop-opacity:0;"
         offset="1"
         id="stop3787" />
    </linearGradient>
    <linearGradient
       inkscape:collect="always"
       id="linearGradient3771">
      <stop
         style="stop-color:#f7fafe;stop-opacity:1;"
         offset="0"
         id="stop3773" />
      <stop
         style="stop-color:#f7fafe;stop-opacity:0;"
         offset="1"
         id="stop3775" />
    </linearGradient>
    <linearGradient
       inkscape:collect="always"
       id="linearGradient3756">
      <stop
         style="stop-color:black;stop-opacity:1;"
         offset="0"
         id="stop3758" />
      <stop
         style="stop-color:black;stop-opacity:0;"
         offset="1"
         id="stop3760" />
    </linearGradient>
    <linearGradient
       inkscape:collect="always"
       id="linearGradient3742">
      <stop
         style="stop-color:white;stop-opacity:1;"
         offset="0"
         id="stop3744" />
      <stop
         style="stop-color:white;stop-opacity:0;"
         offset="1"
         id="stop3746" />
    </linearGradient>
    <linearGradient
       inkscape:collect="always"
       id="linearGradient3710">
      <stop
         style="stop-color:white;stop-opacity:1;"
         offset="0"
         id="stop3712" />
      <stop
         style="stop-color:white;stop-opacity:0;"
         offset="1"
         id="stop3714" />
    </linearGradient>
    <linearGradient
       id="linearGradient3695">
      <stop
         style="stop-color:#626262;stop-opacity:1;"
         offset="0"
         id="stop3697" />
      <stop
         style="stop-color:#efefef;stop-opacity:1;"
         offset="1"
         id="stop3699" />
    </linearGradient>
    <linearGradient
       inkscape:collect="always"
       xlink:href="#linearGradient3880"
       id="linearGradient3886"
       x1="53.777279"
       y1="53.014202"
       x2="34.243549"
       y2="148.6344"
       gradientUnits="userSpaceOnUse" />
    <linearGradient
       inkscape:collect="always"
       xlink:href="#linearGradient3771"
       id="linearGradient4014"
       gradientUnits="userSpaceOnUse"
       x1="28.138407"
       y1="5.6195269"
       x2="29.138409"
       y2="16.588285"
       gradientTransform="matrix(2.695388,0.213097,-0.213097,2.695388,14.72041,-36.629)" />
    <linearGradient
       inkscape:collect="always"
       xlink:href="#linearGradient3771"
       id="linearGradient4017"
       gradientUnits="userSpaceOnUse"
       x1="28.138407"
       y1="5.6195269"
       x2="29.138409"
       y2="16.588285"
       gradientTransform="matrix(2.695388,0.213097,-0.213097,2.695388,14.72041,-36.629)" />
    <linearGradient
       inkscape:collect="always"
       xlink:href="#linearGradient3771"
       id="linearGradient4020"
       gradientUnits="userSpaceOnUse"
       x1="28.138407"
       y1="5.6195269"
       x2="29.138409"
       y2="16.588285"
       gradientTransform="matrix(2.695388,0.213097,-0.213097,2.695388,14.72041,-36.629)" />
    <radialGradient
       inkscape:collect="always"
       xlink:href="#linearGradient3853"
       id="radialGradient4027"
       gradientUnits="userSpaceOnUse"
       gradientTransform="matrix(0.933029,-0.126122,13.99076,108.242,-969.0881,-8033.763)"
       cx="-36.857941"
       cy="75.225319"
       fx="-36.857941"
       fy="75.225319"
       r="0.9722718" />
    <linearGradient
       inkscape:collect="always"
       xlink:href="#linearGradient3710"
       id="linearGradient4031"
       gradientUnits="userSpaceOnUse"
       gradientTransform="matrix(2.838573,0.224418,-0.224418,2.838573,15.70712,-18.07678)"
       x1="4.9107008"
       y1="44.649334"
       x2="58.884792"
       y2="36.866131" />
    <linearGradient
       inkscape:collect="always"
       xlink:href="#linearGradient3710"
       id="linearGradient4034"
       gradientUnits="userSpaceOnUse"
       gradientTransform="matrix(2.838573,0.224418,-0.224418,2.838573,15.70712,-18.07678)"
       x1="4.9107008"
       y1="44.649334"
       x2="58.884792"
       y2="36.866131" />
    <linearGradient
       inkscape:collect="always"
       xlink:href="#linearGradient3710"
       id="linearGradient4037"
       gradientUnits="userSpaceOnUse"
       gradientTransform="matrix(2.838573,0.224418,-0.224418,2.838573,15.70712,-18.07678)"
       x1="4.9107008"
       y1="44.649334"
       x2="58.884792"
       y2="36.866131" />
    <linearGradient
       inkscape:collect="always"
       xlink:href="#linearGradient3837"
       id="linearGradient4042"
       gradientUnits="userSpaceOnUse"
       x1="20.606983"
       y1="54.213417"
       x2="14.043751"
       y2="16.4375"
       gradientTransform="matrix(2.695388,0.213097,-0.213097,2.695388,14.72041,-36.629)" />
    <linearGradient
       inkscape:collect="always"
       xlink:href="#linearGradient3804"
       id="linearGradient4045"
       gradientUnits="userSpaceOnUse"
       x1="6.28125"
       y1="35.763672"
       x2="14.3125"
       y2="35.763672"
       gradientTransform="matrix(2.695388,0.213097,-0.213097,2.695388,14.72041,-36.629)" />
    <linearGradient
       inkscape:collect="always"
       xlink:href="#linearGradient3783"
       id="linearGradient4048"
       gradientUnits="userSpaceOnUse"
       x1="5.323966"
       y1="55.630238"
       x2="16.25"
       y2="54.984375"
       gradientTransform="matrix(2.695388,0.213097,-0.213097,2.695388,14.72041,-36.629)" />
    <linearGradient
       inkscape:collect="always"
       xlink:href="#linearGradient3783"
       id="linearGradient4051"
       gradientUnits="userSpaceOnUse"
       x1="15.6875"
       y1="48.890625"
       x2="16.753466"
       y2="55.4375"
       gradientTransform="matrix(2.695388,0.213097,-0.213097,2.695388,14.72041,-36.629)" />
    <linearGradient
       inkscape:collect="always"
       xlink:href="#linearGradient3783"
       id="linearGradient4054"
       gradientUnits="userSpaceOnUse"
       x1="15.6875"
       y1="48.890625"
       x2="16.25"
       y2="54.984375"
       gradientTransform="matrix(2.695388,0.213097,-0.213097,2.695388,14.72041,-36.629)" />
    <linearGradient
       inkscape:collect="always"
       xlink:href="#linearGradient3756"
       id="linearGradient4057"
       gradientUnits="userSpaceOnUse"
       x1="11.967802"
       y1="50.304192"
       x2="15.346087"
       y2="57.638905"
       gradientTransform="matrix(2.695388,0.213097,-0.213097,2.695388,14.72041,-36.629)" />
    <linearGradient
       inkscape:collect="always"
       xlink:href="#linearGradient3710"
       id="linearGradient4061"
       gradientUnits="userSpaceOnUse"
       gradientTransform="matrix(2.838573,0.224418,-0.224418,2.838573,15.09863,-9.622281)"
       x1="4.9107008"
       y1="44.649334"
       x2="58.884792"
       y2="36.866131" />
    <linearGradient
       inkscape:collect="always"
       xlink:href="#linearGradient3710"
       id="linearGradient4064"
       gradientUnits="userSpaceOnUse"
       gradientTransform="matrix(2.838573,0.224418,-0.224418,2.838573,15.09863,-9.622281)"
       x1="4.9107008"
       y1="44.649334"
       x2="58.884792"
       y2="36.866131" />
    <linearGradient
       inkscape:collect="always"
       xlink:href="#linearGradient3695"
       id="linearGradient4068"
       gradientUnits="userSpaceOnUse"
       gradientTransform="matrix(2.838573,0.224418,-0.224418,2.838573,15.70712,-18.07678)"
       x1="32.438522"
       y1="40"
       x2="33.050251"
       y2="42.76342" />
    <linearGradient
       inkscape:collect="always"
       xlink:href="#linearGradient3814"
       id="linearGradient4071"
       gradientUnits="userSpaceOnUse"
       x1="4.5181999"
       y1="41.236893"
       x2="18.826626"
       y2="38.015541"
       gradientTransform="matrix(2.695388,0.213097,-0.213097,2.695388,14.72041,-36.629)" />
    <linearGradient
       inkscape:collect="always"
       xlink:href="#linearGradient3742"
       id="linearGradient4075"
       gradientUnits="userSpaceOnUse"
       gradientTransform="matrix(2.838573,0.224418,-0.224418,2.838573,15.70712,-18.07678)"
       x1="36.10664"
       y1="42.068642"
       x2="38.780388"
       y2="40.875401" />
    <linearGradient
       inkscape:collect="always"
       xlink:href="#linearGradient3880"
       id="linearGradient4078"
       gradientUnits="userSpaceOnUse"
       x1="53.777279"
       y1="53.014202"
       x2="34.243549"
       y2="148.6344" />
    <linearGradient
       inkscape:collect="always"
       xlink:href="#linearGradient3880"
       id="linearGradient4080"
       gradientUnits="userSpaceOnUse"
       x1="53.777279"
       y1="53.014202"
       x2="34.243549"
       y2="148.6344" />
    <linearGradient
       inkscape:collect="always"
       xlink:href="#XMLID_5_"
       id="linearGradient5127"
       x1="92.956825"
       y1="-8.9549065"
       x2="59.82354"
       y2="206.72591"
       gradientUnits="userSpaceOnUse"
       gradientTransform="matrix(0.965146,0,0,0.965146,2.355023,1.471211)" />
    <radialGradient
       id="XMLID_5_"
       cx="51.9995"
       cy="-9"
       r="111.0006"
       gradientUnits="userSpaceOnUse">
      <stop
         offset="0.15"
         style="stop-color:#80B3FF"
         id="stop4094" />
      <stop
         offset="0.316"
         style="stop-color:#69A1F0"
         id="stop4096" />
      <stop
         offset="0.6029"
         style="stop-color:#4888DA"
         id="stop4098" />
      <stop
         offset="0.8412"
         style="stop-color:#3378CC"
         id="stop4100" />
      <stop
         offset="1"
         style="stop-color:#2C72C7"
         id="stop4102" />
    </radialGradient>
    <linearGradient
       inkscape:collect="always"
       xlink:href="#linearGradient5477"
       id="linearGradient5483"
       x1="74.0625"
       y1="85.125"
       x2="108.0625"
       y2="126.0625"
       gradientUnits="userSpaceOnUse" />
    <linearGradient
       inkscape:collect="always"
       xlink:href="#linearGradient5477"
       id="linearGradient5487"
       gradientUnits="userSpaceOnUse"
       x1="39.8125"
       y1="79.125"
       x2="45.3125"
       y2="138.875"
       gradientTransform="translate(0,-1)" />
    <linearGradient
       inkscape:collect="always"
       xlink:href="#linearGradient5477"
       id="linearGradient5491"
       gradientUnits="userSpaceOnUse"
       gradientTransform="translate(0,-2)"
       x1="34.5625"
       y1="99.375"
       x2="44.0625"
       y2="125.125" />
    <linearGradient
       inkscape:collect="always"
       xlink:href="#linearGradient5477"
       id="linearGradient5495"
       gradientUnits="userSpaceOnUse"
       x1="82.3125"
       y1="61.875"
       x2="36.3125"
       y2="128.3125"
       gradientTransform="translate(0,0.7)" />
    <linearGradient
       inkscape:collect="always"
       xlink:href="#linearGradient5477"
       id="linearGradient5499"
       gradientUnits="userSpaceOnUse"
       gradientTransform="translate(0,-3.3)"
       x1="82.3125"
       y1="61.875"
       x2="72.327019"
       y2="133.3125" />
    <linearGradient
       inkscape:collect="always"
       xlink:href="#linearGradient5477"
       id="linearGradient5503"
       gradientUnits="userSpaceOnUse"
       gradientTransform="translate(0,1.7)"
       x1="82.3125"
       y1="61.875"
       x2="72.327019"
       y2="133.3125" />
    <linearGradient
       inkscape:collect="always"
       xlink:href="#linearGradient2913"
       id="linearGradient2919"
       x1="52.984855"
       y1="68.390214"
       x2="113.21912"
       y2="49.390213"
       gradientUnits="userSpaceOnUse" />
  </defs>
  <sodipodi:namedview
     id="base"
     pagecolor="#ffffff"
     bordercolor="#666666"
     borderopacity="1.0"
     inkscape:pageopacity="0.0"
     inkscape:pageshadow="2"
     inkscape:zoom="4.0000001"
     inkscape:cx="-32.254912"
     inkscape:cy="53.591623"
     inkscape:current-layer="layer1"
     showgrid="false"
     inkscape:document-units="px"
     inkscape:grid-bbox="true"
     width="128px"
     height="128px"
     showguides="true"
     inkscape:guide-bbox="true"
     inkscape:window-width="1166"
     inkscape:window-height="862"
     inkscape:window-x="219"
     inkscape:window-y="216" />
  <metadata
     id="metadata1882">
    <rdf:RDF>
      <cc:Work
         rdf:about="">
        <dc:format>image/svg+xml</dc:format>
        <dc:type
           rdf:resource="http://purl.org/dc/dcmitype/StillImage" />
      </cc:Work>
    </rdf:RDF>
  </metadata>
  <g
     id="layer1"
     inkscape:label="Layer 1"
     inkscape:groupmode="layer">
    <path
       id="path5469"
       d="M 97.792404,4.0756182 L 35.902429,10.228423 L 29.448017,10.922122 L 28.332067,11.314212 L 27.366921,11.133247 L 20.641061,11.917428 C 19.226177,12.076011 18.190257,13.367828 18.348841,14.782704 L 17.59482,23.257891 L 28.577641,119.78887 C 29.023519,122.19945 30.773829,124.06002 32.830315,123.67962 L 47.971039,121.68901 L 48.0012,121.68901 L 114.32569,113.46028 C 116.31062,113.23781 117.68491,111.43383 117.46242,109.4489 L 116.16122,105.11949 C 117.14889,104.37034 117.72795,103.13281 117.57878,101.8018 L 101.74347,7.2123421 C 101.52101,5.2274127 99.777338,3.8531444 97.792404,4.0756182 z "
       style="opacity:0.3;fill:none;fill-opacity:1;fill-rule:nonzero;stroke:black;stroke-width:0.96514583;stroke-linecap:round;stroke-linejoin:round;stroke-miterlimit:4;stroke-dasharray:none;stroke-dashoffset:4;stroke-opacity:1"
       sodipodi:nodetypes="cccccccccccccccccc" />
    <path
       id="path5437"
       d="M 97.792404,4.0756182 L 35.902429,10.228423 L 29.448017,10.922122 L 28.332067,11.314212 L 27.366921,11.133247 L 19.977523,11.887267 C 18.562639,12.04585 17.526719,13.337667 17.685302,14.752544 L 17.021765,23.257891 L 28.151102,120.55665 C 28.59698,122.96722 30.347291,124.82779 32.403776,124.4474 L 47.544501,122.45678 L 47.574661,122.45678 L 114.41101,114.31336 C 116.39593,114.09089 117.77021,112.28692 117.54773,110.30198 L 116.67307,105.2048 C 117.66074,104.45566 118.2398,103.21811 118.09063,101.88711 L 101.74347,7.2123421 C 101.52101,5.2274127 99.777338,3.8531444 97.792404,4.0756182 z "
       style="opacity:0.2;fill:none;fill-opacity:1;fill-rule:nonzero;stroke:black;stroke-width:2.89543724;stroke-linecap:round;stroke-linejoin:round;stroke-miterlimit:4;stroke-dasharray:none;stroke-dashoffset:4;stroke-opacity:1" />
    <path
       style="opacity:0.1;fill:none;fill-opacity:1;fill-rule:nonzero;stroke:black;stroke-width:4.82572889;stroke-linecap:round;stroke-linejoin:round;stroke-miterlimit:4;stroke-dasharray:none;stroke-dashoffset:4;stroke-opacity:1"
       d="M 97.792404,4.0756182 L 35.902429,10.228423 L 29.448017,10.922122 L 28.332067,11.314212 L 27.366921,11.133247 L 19.977523,11.887267 C 18.562639,12.04585 17.526719,13.337667 17.685302,14.752544 L 17.021765,23.257891 L 28.151102,120.55665 C 28.59698,122.96722 30.347291,124.82779 32.403776,124.4474 L 114.41101,114.31336 C 116.39593,114.09089 117.77021,112.28692 117.54773,110.30198 L 116.67307,105.2048 C 117.66074,104.45566 118.2398,103.21811 118.09063,101.88711 L 101.74347,7.2123421 C 101.52101,5.2274127 99.777338,3.8531444 97.792404,4.0756182 z "
       id="path5439"
       sodipodi:nodetypes="cccccccccccccccc" />
    <path
       id="path5441"
       d="M 97.792404,4.0756182 L 35.902429,10.228423 L 29.448017,10.922122 L 28.332067,11.314212 L 27.366921,11.133247 L 19.977523,11.887267 C 18.562639,12.04585 17.526719,13.337667 17.685302,14.752544 L 17.021765,23.257891 L 28.151102,120.55665 C 28.59698,122.96722 30.347291,124.82779 32.403776,124.4474 L 114.41101,114.31336 C 116.39593,114.09089 117.77021,112.28692 117.54773,110.30198 L 116.67307,105.2048 C 117.66074,104.45566 118.2398,103.21811 118.09063,101.88711 L 101.74347,7.2123421 C 101.52101,5.2274127 99.777338,3.8531444 97.792404,4.0756182 z "
       style="opacity:0.05;fill:none;fill-opacity:1;fill-rule:nonzero;stroke:black;stroke-width:6.75602055;stroke-linecap:round;stroke-linejoin:round;stroke-miterlimit:4;stroke-dasharray:none;stroke-dashoffset:4;stroke-opacity:1"
       sodipodi:nodetypes="cccccccccccccccc" />
    <path
       style="opacity:0.3;fill:black;fill-opacity:1;fill-rule:nonzero;stroke:none;stroke-width:1;stroke-linecap:round;stroke-linejoin:round;stroke-miterlimit:4;stroke-dasharray:none;stroke-dashoffset:4;stroke-opacity:1"
       d="M 97.753653,3.5824674 L 29.409266,10.42897 C 29.367919,10.433779 29.327369,10.443917 29.288623,10.459131 L 28.263155,10.821061 L 27.448813,10.670257 C 27.410068,10.655042 27.369517,10.644905 27.328171,10.640096 L 19.938773,11.394117 C 18.292654,11.578617 17.060824,13.070326 17.194139,14.711805 C 17.196661,14.742855 17.190647,14.77113 17.194139,14.802287 L 16.530602,23.217152 C 16.527768,23.247246 16.527768,23.277541 16.530602,23.307635 L 27.65994,120.60639 C 27.669543,120.61689 27.679607,120.62695 27.6901,120.63656 C 27.929541,121.93106 28.511123,123.09123 29.348944,123.89393 C 30.179324,124.68949 31.276595,125.12604 32.455507,124.91939 L 32.485668,124.91939 L 114.46274,114.78536 C 116.71012,114.53347 118.2723,112.49695 118.02172,110.26124 C 118.02204,110.2512 118.02204,110.24112 118.02172,110.23108 L 117.17721,105.31487 C 118.13134,104.45457 118.71898,103.22367 118.56461,101.84638 C 118.56492,101.83633 118.56492,101.82626 118.56461,101.81621 L 102.21745,7.1716033 C 102.21633,7.1616167 102.21863,7.1514028 102.21745,7.1414425 C 101.95227,4.9195406 99.97831,3.3331253 97.753653,3.5824674 z "
       id="path5301"
       sodipodi:nodetypes="cccccccscccccscccsccsccsc" />
    <path
       sodipodi:nodetypes="ccccccc"
       id="path2792"
       d="M 36.570581,17.536448 L 48.216306,121.43988 L 115.10747,113.29155 C 117.09241,113.06908 118.46075,111.25447 118.23827,109.26953 L 100.9342,9.4970363 C 100.71172,7.5121023 98.985556,6.1338725 97.000595,6.3563475 L 36.570581,17.536448 z "
       style="fill:#2560a8;fill-opacity:1;fill-rule:nonzero;stroke:none;stroke-width:0.1;stroke-linecap:round;stroke-linejoin:round;stroke-miterlimit:4;stroke-dasharray:none;stroke-dashoffset:4;stroke-opacity:0.1300813" />
    <path
       style="fill:url(#linearGradient4075);fill-opacity:1;fill-rule:evenodd;stroke:none;stroke-width:1px;stroke-linecap:butt;stroke-linejoin:miter;stroke-opacity:1"
       d="M 113.81669,111.18694 C 117.30402,110.55608 116.28874,105.36648 116.97441,102.10651 L 108.79051,101.83818 L 113.81669,111.18694 z "
       id="path3740"
       sodipodi:nodetypes="cccc" />
    <path
       style="fill:black;fill-opacity:1;fill-rule:nonzero;stroke:none;stroke-width:0.1;stroke-linecap:round;stroke-linejoin:round;stroke-miterlimit:4;stroke-dasharray:none;stroke-dashoffset:4;stroke-opacity:0.1300813"
       d="M 36.808077,9.1846991 L 30.133175,9.8837085 L 29.025475,10.295044 L 28.044943,10.102391 L 20.648087,10.877005 C 19.233209,11.035587 18.210835,12.316812 18.369417,13.731689 L 17.696163,22.247406 L 28.839539,119.52079 C 29.285421,121.93137 31.034018,123.81589 33.090509,123.43549 L 48.267083,121.42809 L 49.322706,112.82291 C 50.238172,112.34747 50.80839,111.34249 50.686266,110.25292 L 39.574054,11.456353 C 39.415472,10.041478 38.222953,9.0261168 36.808077,9.1846991 z "
       id="rect2790"
       sodipodi:nodetypes="cccccccccccccc" />
    <path
       style="fill:url(#linearGradient4071);fill-opacity:1;fill-rule:nonzero;stroke:none;stroke-width:0.1;stroke-linecap:round;stroke-linejoin:round;stroke-miterlimit:4;stroke-dasharray:none;stroke-dashoffset:4;stroke-opacity:0.1300813"
       d="M 37.329177,9.7408259 L 30.659279,10.484863 L 29.524323,10.903677 L 28.52687,10.655304 L 21.176466,11.430298 C 19.76159,11.588883 18.672378,12.88125 18.83096,14.296127 L 18.158371,22.803445 L 28.768047,117.38389 C 28.785919,115.90815 31.437141,112.24478 33.179731,111.96917 L 50.039585,109.91182 C 44.231532,77.479745 41.127561,43.78341 37.329177,9.7408259 z "
       id="path3812"
       sodipodi:nodetypes="ccccccccccc" />
    <path
       style="fill:url(#linearGradient4068);fill-opacity:1;fill-rule:evenodd;stroke:none;stroke-width:1px;stroke-linecap:butt;stroke-linejoin:miter;stroke-opacity:1"
       d="M 114.40208,105.05163 L 113.93985,111.16633 L 33.519749,121.11393 C 30.338857,121.7023 30.177401,115.08211 33.805396,114.69493 L 114.40208,105.05163 z "
       id="path2797"
       sodipodi:nodetypes="ccccc" />
    <path
       sodipodi:nodetypes="cccccc"
       id="path3724"
       d="M 48.266235,121.35946 L 115.05385,113.32883 C 116.94715,113.11662 118.28212,111.43694 118.20799,109.5615 C 117.90098,111.03949 116.70429,112.26465 115.12396,112.44177 L 48.176746,120.51557 L 48.266235,121.35946 z "
       style="fill:black;fill-opacity:0.47560975;fill-rule:nonzero;stroke:none;stroke-width:0.1;stroke-linecap:round;stroke-linejoin:round;stroke-miterlimit:4;stroke-dasharray:none;stroke-dashoffset:4;stroke-opacity:0.1300813" />
    <path
       sodipodi:nodetypes="cccccc"
       id="path3726"
       d="M 48.240405,120.68826 L 115.05608,112.50205 C 116.9494,112.28984 118.28437,110.61018 118.21024,108.73474 C 117.90324,110.21273 116.70653,111.43789 115.12622,111.615 L 48.03265,119.81204 L 48.240405,120.68826 z "
       style="opacity:0.49180328;fill:url(#linearGradient4064);fill-opacity:1;fill-rule:nonzero;stroke:none;stroke-width:0.1;stroke-linecap:round;stroke-linejoin:round;stroke-miterlimit:4;stroke-dasharray:none;stroke-dashoffset:4;stroke-opacity:0.1300813" />
    <path
       style="opacity:0.34426228;fill:url(#linearGradient4061);fill-opacity:1;fill-rule:nonzero;stroke:none;stroke-width:0.1;stroke-linecap:round;stroke-linejoin:round;stroke-miterlimit:4;stroke-dasharray:none;stroke-dashoffset:4;stroke-opacity:0.1300813"
       d="M 48.1876,120.55786 L 115.05608,112.50205 C 116.9494,112.28984 118.28437,110.61018 118.21024,108.73474 C 117.90324,110.21273 116.66272,111.99229 115.08238,112.16942 L 48.092715,119.98179 L 48.1876,120.55786 z "
       id="path3728"
       sodipodi:nodetypes="cccccc" />
    <g
       id="g5505"
       style="opacity:0.39754098">
      <path
         sodipodi:nodetypes="cc"
         id="path5475"
         d="M 30.625,118.75 C 32.625,118.75 114.11742,108.58839 114.11742,108.58839"
         style="fill:none;fill-opacity:0.75;fill-rule:evenodd;stroke:url(#linearGradient5483);stroke-width:0.1;stroke-linecap:butt;stroke-linejoin:miter;stroke-opacity:1;stroke-miterlimit:4;stroke-dasharray:none" />
      <path
         style="fill:none;fill-opacity:0.75;fill-rule:evenodd;stroke:url(#linearGradient5487);stroke-width:0.1;stroke-linecap:butt;stroke-linejoin:miter;stroke-miterlimit:4;stroke-dasharray:none;stroke-opacity:1"
         d="M 31.066942,117.61742 C 33.066942,117.61742 114.25,107.5 114.25,107.5"
         id="path5485"
         sodipodi:nodetypes="cc" />
      <path
         sodipodi:nodetypes="cc"
         id="path5489"
         d="M 31.464689,116.79419 C 33.464689,116.79419 114.25,106.5 114.25,106.5"
         style="fill:none;fill-opacity:0.75;fill-rule:evenodd;stroke:url(#linearGradient5491);stroke-width:0.1;stroke-linecap:butt;stroke-linejoin:miter;stroke-miterlimit:4;stroke-dasharray:none;stroke-opacity:1" />
      <path
         style="fill:none;fill-opacity:0.75;fill-rule:evenodd;stroke:url(#linearGradient5495);stroke-width:0.1;stroke-linecap:butt;stroke-linejoin:miter;stroke-miterlimit:4;stroke-dasharray:none;stroke-opacity:1"
         d="M 31.332107,119.81742 C 33.332107,119.81742 114.02903,109.7 114.02903,109.7"
         id="path5493"
         sodipodi:nodetypes="cc" />
      <path
         sodipodi:nodetypes="cc"
         id="path5497"
         d="M 31.906631,115.81742 C 33.906631,115.81742 114.02903,105.7 114.02903,105.7"
         style="fill:none;fill-opacity:0.75;fill-rule:evenodd;stroke:url(#linearGradient5499);stroke-width:0.1;stroke-linecap:butt;stroke-linejoin:miter;stroke-miterlimit:4;stroke-dasharray:none;stroke-opacity:1" />
      <path
         style="fill:none;fill-opacity:0.75;fill-rule:evenodd;stroke:url(#linearGradient5503);stroke-width:0.1;stroke-linecap:butt;stroke-linejoin:miter;stroke-miterlimit:4;stroke-dasharray:none;stroke-opacity:1"
         d="M 32.039214,120.90581 C 34.039214,120.90581 114.02903,110.7 114.02903,110.7"
         id="path5501"
         sodipodi:nodetypes="cc" />
    </g>
    <path
       style="opacity:0.68999999;fill:black;fill-opacity:0.47560975;fill-rule:nonzero;stroke:none;stroke-width:0.1;stroke-linecap:round;stroke-linejoin:round;stroke-miterlimit:4;stroke-dasharray:none;stroke-dashoffset:4;stroke-opacity:0.1300813"
       d="M 48.266235,121.35946 L 115.05385,113.32883 C 116.94715,113.11662 118.28212,111.43694 118.20799,109.5615 C 117.92019,111.64351 116.62134,112.74903 115.04103,112.92614 L 48.283162,120.9658 L 48.266235,121.35946 z "
       id="path3732"
       sodipodi:nodetypes="cccccc" />
    <path
       sodipodi:nodetypes="ccccc"
       id="path3754"
       d="M 114.40208,105.05163 L 113.93985,111.16633 L 33.519749,121.11393 C 30.338857,121.7023 30.177401,115.08211 33.805396,114.69493 L 114.40208,105.05163 z "
       style="fill:url(#linearGradient4057);fill-opacity:1;fill-rule:evenodd;stroke:none;stroke-width:1px;stroke-linecap:butt;stroke-linejoin:miter;stroke-opacity:1" />
    <path
       style="opacity:0.42213117;fill:url(#linearGradient4054);fill-opacity:1;fill-rule:evenodd;stroke:none;stroke-width:1px;stroke-linecap:butt;stroke-linejoin:miter;stroke-opacity:1"
       d="M 30.323763,116.57455 C 30.408002,115.85521 31.699233,114.27239 32.130588,114.08992 C 37.659649,113.48171 43.188711,112.87349 48.717771,112.26527 C 48.690475,111.89584 48.663177,111.5264 48.63588,111.15695 C 43.02037,111.78658 37.404856,112.41622 31.789345,113.04585 C 31.122266,113.06924 30.413377,115.51661 30.323763,116.57455 z "
       id="path3781"
       sodipodi:nodetypes="cccccc" />
    <path
       sodipodi:nodetypes="ccccsc"
       id="path3791"
       d="M 30.323763,116.57455 C 30.408002,115.85521 32.162414,114.09924 32.59377,113.91677 C 38.122831,113.30856 42.868192,112.75825 48.397253,112.15004 C 48.369957,111.7806 48.276764,111.64356 48.249468,111.27411 C 42.633958,111.90374 38.821907,112.47936 32.746139,113.12663 C 31.067199,113.3055 30.413377,115.51661 30.323763,116.57455 z "
       style="opacity:0.42213117;fill:url(#linearGradient4051);fill-opacity:1;fill-rule:evenodd;stroke:none;stroke-width:1px;stroke-linecap:butt;stroke-linejoin:miter;stroke-opacity:1" />
    <path
       style="opacity:0.42213117;fill:url(#linearGradient4048);fill-opacity:1;fill-rule:evenodd;stroke:none;stroke-width:1px;stroke-linecap:butt;stroke-linejoin:miter;stroke-opacity:1"
       d="M 30.323763,116.57455 C 30.456774,116.58919 30.543259,116.1674 30.693915,115.87939 C 31.12948,115.04669 31.926993,113.95817 32.861792,113.93796 C 38.390852,113.32974 42.868192,112.75825 48.397253,112.15004 C 48.369957,111.7806 48.218,111.85079 48.190705,111.48137 C 42.575193,112.11098 38.3617,112.8215 32.74619,113.45112 C 31.589698,113.62771 30.769537,114.79846 30.442076,115.79649 C 30.346984,116.08632 30.240555,116.57197 30.323763,116.57455 z "
       id="path3793"
       sodipodi:nodetypes="csccccsc" />
    <path
       style="opacity:0.36885244;fill:url(#linearGradient4045);fill-opacity:1;fill-rule:nonzero;stroke:none;stroke-width:0.1;stroke-linecap:round;stroke-linejoin:round;stroke-miterlimit:4;stroke-dasharray:none;stroke-dashoffset:4;stroke-opacity:0.1300813"
       d="M 28.146,10.648501 L 40.465125,113.73176 L 41.664336,113.5723 L 29.12739,10.832036 L 28.146,10.648501 z "
       id="path3799"
       sodipodi:nodetypes="ccccc" />
    <path
       sodipodi:nodetypes="ccccccccccc"
       id="path3835"
       d="M 37.726641,13.669124 L 31.056744,14.413162 L 29.921786,14.831976 L 28.924334,14.583602 L 21.573931,15.358596 C 20.159054,15.517181 19.069842,16.809548 19.228425,18.224425 L 18.555835,26.731743 L 28.768047,117.38389 C 28.785919,115.90815 30.687928,112.24548 33.179731,111.96917 L 50.039585,109.91182 C 44.231532,77.479745 41.525027,47.711708 37.726641,13.669124 z "
       style="fill:url(#linearGradient4042);fill-opacity:1;fill-rule:nonzero;stroke:none;stroke-width:0.1;stroke-linecap:round;stroke-linejoin:round;stroke-miterlimit:4;stroke-dasharray:none;stroke-dashoffset:4;stroke-opacity:0.1300813" />
    <path
       style="fill:url(#linearGradient5127);fill-opacity:1;fill-rule:nonzero;stroke:none;stroke-width:0.1;stroke-linecap:round;stroke-linejoin:round;stroke-miterlimit:4;stroke-dasharray:none;stroke-dashoffset:4;stroke-opacity:0.1300813"
       d="M 36.576034,9.2019109 L 48.88956,112.92418 L 115.64536,104.89136 C 117.6303,104.66889 118.99861,102.85427 118.77615,100.86935 L 102.41452,6.1915657 C 102.19207,4.2066339 100.46587,2.8284046 98.480939,3.0508791 L 36.576034,9.2019109 z "
       id="rect1887"
       sodipodi:nodetypes="ccccccc" />
    <path
       sodipodi:nodetypes="ccccc"
       style="opacity:0.4;fill:white"
       d="M 40.167731,39.35076 C 40.29743,40.764553 40.91651,45.838847 41.046121,47.251678 L 41.043053,47.258396 C 41.448098,46.771529 46.225604,41.027856 48.244624,38.599908 C 44.256018,38.965817 41.89004,39.192758 40.167731,39.35076 z "
       id="path5281" />
    <path
       style="fill:black;fill-opacity:0.47560975;fill-rule:nonzero;stroke:none;stroke-width:0.1;stroke-linecap:round;stroke-linejoin:round;stroke-miterlimit:4;stroke-dasharray:none;stroke-dashoffset:4;stroke-opacity:0.1300813"
       d="M 48.87475,112.90496 L 115.66234,104.87432 C 117.55566,104.66211 118.89061,102.98245 118.8165,101.10701 C 118.50951,102.58499 117.31279,103.81015 115.73246,103.98727 L 48.785261,112.06107 L 48.87475,112.90496 z "
       id="path3703"
       sodipodi:nodetypes="cccccc" />
    <path
       style="opacity:0.49180328;fill:url(#linearGradient4037);fill-opacity:1;fill-rule:nonzero;stroke:none;stroke-width:0.1;stroke-linecap:round;stroke-linejoin:round;stroke-miterlimit:4;stroke-dasharray:none;stroke-dashoffset:4;stroke-opacity:0.1300813"
       d="M 48.84892,112.23377 L 115.66459,104.04756 C 117.55792,103.83533 118.89288,102.15566 118.81874,100.28023 C 118.51177,101.75823 117.31503,102.98337 115.73473,103.1605 L 48.656735,110.89261 L 48.84892,112.23377 z "
       id="path3718"
       sodipodi:nodetypes="cccccc" />
    <path
       style="fill:url(#radialGradient4027);fill-opacity:1;fill-rule:nonzero;stroke:none;stroke-width:0.1;stroke-linecap:round;stroke-linejoin:round;stroke-miterlimit:4;stroke-dasharray:none;stroke-dashoffset:4;stroke-opacity:0.1300813"
       d="M 36.634848,8.038675 C 35.586835,8.1747479 40.177098,55.096612 46.959072,112.91665 L 50.820869,112.41523 C 44.023618,54.597181 37.682863,7.9025997 36.634848,8.038675 z "
       id="path3851" />
    <path
       sodipodi:nodetypes="cccccc"
       id="path3708"
       d="M 48.582846,112.01805 L 115.66459,104.04756 C 117.55792,103.83533 118.89288,102.15566 118.81874,100.28023 C 118.51177,101.75823 117.2712,103.53779 115.69089,103.7149 L 48.48796,111.44198 L 48.582846,112.01805 z "
       style="opacity:0.34426228;fill:url(#linearGradient4034);fill-opacity:1;fill-rule:nonzero;stroke:none;stroke-width:0.1;stroke-linecap:round;stroke-linejoin:round;stroke-miterlimit:4;stroke-dasharray:none;stroke-dashoffset:4;stroke-opacity:0.1300813" />
    <path
       style="opacity:0.34426228;fill:url(#linearGradient4031);fill-opacity:1;fill-rule:nonzero;stroke:none;stroke-width:0.1;stroke-linecap:round;stroke-linejoin:round;stroke-miterlimit:4;stroke-dasharray:none;stroke-dashoffset:4;stroke-opacity:0.1300813"
       d="M 48.96673,112.10335 L 115.66459,104.04756 C 117.55792,103.83533 118.89288,102.15566 118.81874,100.28023 C 118.51177,101.75823 117.32144,103.18473 115.74112,103.36185 L 48.865275,111.21118 L 48.96673,112.10335 z "
       id="path3720"
       sodipodi:nodetypes="cccccc" />
    <path
       sodipodi:nodetypes="cccccc"
       id="path3722"
       d="M 48.87475,112.90496 L 115.66234,104.87432 C 117.55566,104.66211 118.89061,102.98245 118.8165,101.10701 C 118.5287,103.18901 117.22988,104.29453 115.64956,104.47164 L 48.891675,112.51131 L 48.87475,112.90496 z "
       style="fill:black;fill-opacity:0.47560975;fill-rule:nonzero;stroke:none;stroke-width:0.1;stroke-linecap:round;stroke-linejoin:round;stroke-miterlimit:4;stroke-dasharray:none;stroke-dashoffset:4;stroke-opacity:0.1300813" />
    <g
       id="g3876"
       transform="matrix(2.695388,0.213097,-0.213097,2.695388,19.14573,-249.2679)"
       style="fill:url(#linearGradient3886);fill-opacity:1">
      <path
         id="path3866"
         d="M 36.885155,90.664517 C 36.83568,90.66421 36.77929,90.690488 36.728905,90.695767 C 37.282468,90.760801 37.74132,91.14319 37.853905,91.727017 L 46.635155,126.16452 C 46.775035,126.88988 46.329267,127.61838 45.603905,127.75827 L 21.541405,132.60202 L 21.541405,132.66452 L 45.916405,127.75827 C 46.641764,127.61838 47.087535,126.88988 46.947655,126.16452 L 38.166405,91.727017 C 38.044008,91.092326 37.502511,90.668354 36.885155,90.664517 z "
         style="opacity:0.46311472;fill:url(#linearGradient4078);fill-opacity:1;fill-rule:nonzero;stroke:none;stroke-width:0.1;stroke-linecap:round;stroke-linejoin:round;stroke-miterlimit:4;stroke-dasharray:none;stroke-dashoffset:4;stroke-opacity:0.1300813" />
      <path
         id="path3870"
         d="M 36.886996,90.668449 C 36.808482,90.667961 36.717555,90.685951 36.636996,90.699699 C 37.139864,90.803452 37.563335,91.186929 37.668246,91.730949 L 46.449496,126.16844 C 46.589376,126.89381 46.143604,127.62231 45.418246,127.76219 L 21.511996,132.57469 L 21.543246,132.66844 L 45.918246,127.76219 C 46.643604,127.62231 47.089376,126.89381 46.949496,126.16844 L 38.168246,91.730949 C 38.04585,91.096259 37.504352,90.672286 36.886996,90.668449 z "
         style="opacity:0.46311472;fill:url(#linearGradient4080);fill-opacity:1;fill-rule:nonzero;stroke:none;stroke-width:0.1;stroke-linecap:round;stroke-linejoin:round;stroke-miterlimit:4;stroke-dasharray:none;stroke-dashoffset:4;stroke-opacity:0.1300813" />
    </g>
    <path
       sodipodi:nodetypes="cccccccc"
       id="path3769"
       d="M 99.156878,2.9957048 C 98.919279,2.9754335 98.640257,2.9921919 98.39214,3.0200019 L 36.561008,9.1924588 L 36.580894,9.744954 L 98.352186,3.5253872 C 100.33711,3.3029127 102.11486,4.7372755 102.33732,6.7222019 L 102.38393,6.1325858 C 102.18928,4.3957681 100.82008,3.137604 99.156878,2.9957048 z "
       style="opacity:0.34836067;fill:black;fill-opacity:1;fill-rule:nonzero;stroke:none;stroke-width:0.1;stroke-linecap:round;stroke-linejoin:round;stroke-miterlimit:4;stroke-dasharray:none;stroke-dashoffset:4;stroke-opacity:0.1300813" />
    <path
       sodipodi:nodetypes="cccccccc"
       id="path3779"
       d="M 99.151088,3.3409238 C 98.913487,3.3206529 98.634464,3.337411 98.386349,3.365221 L 36.62588,9.4479135 L 36.743375,11.116353 L 98.524697,4.4161465 C 100.50964,4.1936721 102.22659,5.3015509 102.44905,7.2864771 L 102.37813,6.4778049 C 102.18349,4.7409874 100.81429,3.4828232 99.151088,3.3409238 z "
       style="fill:url(#linearGradient4020);fill-opacity:1;fill-rule:nonzero;stroke:none;stroke-width:0.1;stroke-linecap:round;stroke-linejoin:round;stroke-miterlimit:4;stroke-dasharray:none;stroke-dashoffset:4;stroke-opacity:0.1300813" />
    <path
       style="fill:url(#linearGradient4017);fill-opacity:1;fill-rule:nonzero;stroke:none;stroke-width:0.1;stroke-linecap:round;stroke-linejoin:round;stroke-miterlimit:4;stroke-dasharray:none;stroke-dashoffset:4;stroke-opacity:0.1300813"
       d="M 99.151088,3.3409238 C 98.913487,3.3206529 98.634464,3.337411 98.386349,3.365221 L 36.612021,9.4891965 L 36.661831,10.065245 L 98.544259,4.0210965 C 100.52919,3.798622 102.20818,5.3450444 102.43063,7.3299706 L 102.37813,6.4778049 C 102.18349,4.7409874 100.81429,3.4828232 99.151088,3.3409238 z "
       id="path3764"
       sodipodi:nodetypes="cccccccc" />
    <path
       sodipodi:nodetypes="cccccccc"
       id="path3888"
       d="M 99.151088,3.3409238 C 98.913487,3.3206529 98.634464,3.337411 98.386349,3.365221 L 36.612021,9.4891965 L 36.708099,10.600346 L 98.530341,4.1971431 C 100.51527,3.9746686 102.20818,5.3450444 102.43063,7.3299706 L 102.37813,6.4778049 C 102.18349,4.7409874 100.81429,3.4828232 99.151088,3.3409238 z "
       style="fill:url(#linearGradient4014);fill-opacity:1;fill-rule:nonzero;stroke:none;stroke-width:0.1;stroke-linecap:round;stroke-linejoin:round;stroke-miterlimit:4;stroke-dasharray:none;stroke-dashoffset:4;stroke-opacity:0.1300813" />
    <path
       style="opacity:0.4;fill:white"
       d="M 36.779816,9.7054957 C 36.909514,11.119289 37.377791,16.223744 37.507401,17.636575 C 39.285454,17.473459 61.039217,15.477798 61.793688,15.408585 C 62.198731,14.921718 66.976239,9.1780436 68.995259,6.7500958 C 65.006652,7.1160057 38.502125,9.5474937 36.779816,9.7054957 z "
       id="path4123" />
    <path
       id="path5279"
       d="M 38.64461,24.262816 C 38.774309,25.676609 39.393389,30.750902 39.523,32.163735 C 41.301054,32.000618 51.146473,31.161418 51.900944,31.092204 C 52.305987,30.605338 57.083495,24.861663 59.102515,22.433716 C 55.113908,22.799626 40.366919,24.104814 38.64461,24.262816 z "
       style="opacity:0.4;fill:white"
       sodipodi:nodetypes="ccccc" />
    <path
       style="fill:url(#linearGradient2919);fill-opacity:1.0;fill-rule:nonzero;stroke:none;stroke-width:1px;stroke-linecap:butt;stroke-linejoin:miter;stroke-opacity:1"
       d="M 104.67244,25.902648 C 101.79142,29.303701 98.92707,32.719462 96.227459,36.268074 C 88.91543,46.336727 82.348672,56.909147 77.183151,68.258898 C 74.372,74.441063 71.822814,80.727052 69.283927,87.015963 C 64.505742,94.133097 59.669756,101.21017 54.765775,108.24333 C 54.167633,109.11461 53.578611,109.99747 52.984855,110.87778 L 55.065323,110.62336 C 55.797893,109.46239 56.532274,108.30372 57.268902,107.14771 C 60.650514,101.94124 64.050184,96.745325 67.449665,91.55032 C 65.636506,96.02331 63.796704,100.48849 61.844299,104.90719 C 61.278158,106.05234 59.556413,108.54576 58.733844,110.18429 L 61.741709,109.82318 C 62.967492,108.22457 63.494444,106.21082 64.581325,103.65973 C 66.799346,97.639736 69.000887,91.622612 71.311052,85.649504 C 74.756492,80.388693 78.201583,75.129107 81.639542,69.863364 C 89.14548,58.214096 96.933716,46.731705 106.55185,36.768695 L 106.3754,35.759237 C 96.190253,46.143174 88.15745,58.286417 80.252563,70.470683 C 77.809481,74.198412 75.356419,77.918652 72.886794,81.628082 C 74.77807,76.871266 76.75596,72.147142 78.890203,67.47924 C 84.199414,56.016723 90.971108,45.375347 98.517208,35.279127 C 100.55789,32.600664 102.72489,30.026113 104.94739,27.498906 L 104.67244,25.902648 z M 108.86211,50.137879 C 107.59341,55.476662 106.08142,60.754931 104.20465,65.940425 C 100.05684,78.113397 95.862584,90.307519 90.535915,102.02655 C 89.837353,103.47477 88.133289,105.7009 87.753747,106.69221 L 89.341799,106.49936 C 89.766884,106.23109 90.281453,105.88206 90.909333,105.43245 L 89.4608,106.48705 L 90.24867,106.39266 C 91.979635,105.10807 92.263576,103.61471 93.453498,100.68881 C 97.971315,89.069176 101.76819,77.183993 105.5465,65.308486 C 107.04368,61.009668 108.23216,56.635491 109.21912,52.21424 L 108.86211,50.137879 z "
       id="path2012" />
    <rect
       style="opacity:1;color:#000000;fill:#5555ff;fill-opacity:1;fill-rule:nonzero;stroke:#000000;stroke-width:1.36032081;stroke-linecap:round;stroke-linejoin:round;marker:none;marker-start:none;marker-mid:none;marker-end:none;stroke-miterlimit:4;stroke-dasharray:none;stroke-dashoffset:0;stroke-opacity:1;visibility:visible;display:inline;overflow:visible"
       id="rect16813"
       width="60.036655"
       height="80.54274"
       x="-90.269363"
       y="50.426071" />
    <rect
       style="opacity:1;color:#000000;fill:#ffffff;fill-opacity:1;fill-rule:nonzero;stroke:#000000;stroke-width:0.3546547;stroke-linecap:round;stroke-linejoin:round;marker:none;marker-start:none;marker-mid:none;marker-end:none;stroke-miterlimit:4;stroke-dasharray:none;stroke-dashoffset:0;stroke-opacity:1;visibility:visible;display:inline;overflow:visible"
       id="rect16811"
       width="54.371586"
       height="76.831078"
       x="-86.229195"
       y="53.791615" />
    <rect
       style="opacity:1;color:#000000;fill:#ffffff;fill-opacity:1;fill-rule:nonzero;stroke:#000000;stroke-width:1.2947998;stroke-linecap:round;stroke-linejoin:round;marker:none;marker-start:none;marker-mid:none;marker-end:none;stroke-miterlimit:4;stroke-dasharray:none;stroke-dashoffset:0;stroke-opacity:1;visibility:visible;display:inline;overflow:visible"
       id="rect15838"
       width="122.74178"
       height="76.072731"
       x="-117.23234"
       y="-106.61205" />
    <rect
       style="opacity:1;color:#000000;fill:#ffffff;fill-opacity:1;fill-rule:nonzero;stroke:#000000;stroke-width:0.3546547;stroke-linecap:round;stroke-linejoin:round;marker:none;marker-start:none;marker-mid:none;marker-end:none;stroke-miterlimit:4;stroke-dasharray:none;stroke-dashoffset:0;stroke-opacity:1;visibility:visible;display:inline;overflow:visible"
       id="rect16815"
       width="54.371586"
       height="76.831078"
       x="-87.496979"
       y="54.893337" />
    <rect
       style="opacity:1;color:#000000;fill:#ffffff;fill-opacity:1;fill-rule:nonzero;stroke:#000000;stroke-width:0.3546547;stroke-linecap:round;stroke-linejoin:round;marker:none;marker-start:none;marker-mid:none;marker-end:none;stroke-miterlimit:4;stroke-dasharray:none;stroke-dashoffset:0;stroke-opacity:1;visibility:visible;display:inline;overflow:visible"
       id="rect16817"
       width="54.371586"
       height="76.831078"
       x="-88.935791"
       y="56.334461" />
    <rect
       style="opacity:1;color:#000000;fill:#ffffff;fill-opacity:1;fill-rule:nonzero;stroke:#000000;stroke-width:0.3546547;stroke-linecap:round;stroke-linejoin:round;marker:none;marker-start:none;marker-mid:none;marker-end:none;stroke-miterlimit:4;stroke-dasharray:none;stroke-dashoffset:0;stroke-opacity:1;visibility:visible;display:inline;overflow:visible"
       id="rect16819"
       width="54.371586"
       height="76.831078"
       x="-90.185791"
       y="57.834461" />
    <rect
       style="opacity:1;color:#000000;fill:#5555ff;fill-opacity:1;fill-rule:nonzero;stroke:#000000;stroke-width:1.36032081;stroke-linecap:round;stroke-linejoin:round;marker:none;marker-start:none;marker-mid:none;marker-end:none;stroke-miterlimit:4;stroke-dasharray:none;stroke-dashoffset:0;stroke-opacity:1;visibility:visible;display:inline;overflow:visible"
       id="rect15836"
       width="60.036655"
       height="80.54274"
       x="-97.972687"
       y="56.035717" />
  </g>
</svg>
