<?xml version="1.0" encoding="UTF-8" standalone="no"?>
<!-- Created with Inkscape (http://www.inkscape.org/) -->
<svg
   xmlns:dc="http://purl.org/dc/elements/1.1/"
   xmlns:cc="http://creativecommons.org/ns#"
   xmlns:rdf="http://www.w3.org/1999/02/22-rdf-syntax-ns#"
   xmlns:svg="http://www.w3.org/2000/svg"
   xmlns="http://www.w3.org/2000/svg"
   xmlns:sodipodi="http://sodipodi.sourceforge.net/DTD/sodipodi-0.dtd"
   xmlns:inkscape="http://www.inkscape.org/namespaces/inkscape"
   width="256"
   height="32"
   id="svg2"
   sodipodi:version="0.32"
   inkscape:version="0.46"
   version="1.0"
   sodipodi:docbase="/home/sam/rpg/yags/icons"
   sodipodi:docname="header-character-left.svg"
   inkscape:output_extension="org.inkscape.output.svg.inkscape">
  <defs
     id="defs4">
    <inkscape:perspective
       sodipodi:type="inkscape:persp3d"
       inkscape:vp_x="0 : 16 : 1"
       inkscape:vp_y="0 : 1000 : 0"
       inkscape:vp_z="256 : 16 : 1"
       inkscape:persp3d-origin="128 : 10.666667 : 1"
       id="perspective22" />
  </defs>
  <sodipodi:namedview
     id="base"
     pagecolor="#ffffff"
     bordercolor="#666666"
     borderopacity="1.0"
     gridtolerance="10000"
     guidetolerance="10"
     objecttolerance="10"
     inkscape:pageopacity="0.0"
     inkscape:pageshadow="2"
     inkscape:zoom="5.6"
     inkscape:cx="127.57715"
     inkscape:cy="38.281519"
     inkscape:document-units="px"
     inkscape:current-layer="layer1"
     width="256px"
     height="32px"
     inkscape:window-width="1718"
     inkscape:window-height="870"
     inkscape:window-x="230"
     inkscape:window-y="251"
     showgrid="false" />
  <metadata
     id="metadata7">
    <rdf:RDF>
      <cc:Work
         rdf:about="">
        <dc:format>image/svg+xml</dc:format>
        <dc:type
           rdf:resource="http://purl.org/dc/dcmitype/StillImage" />
        <cc:license
           rdf:resource="http://creativecommons.org/licenses/GPL/2.0/" />
      </cc:Work>
      <cc:License
         rdf:about="http://creativecommons.org/licenses/GPL/2.0/">
        <cc:permits
           rdf:resource="http://web.resource.org/cc/Reproduction" />
        <cc:permits
           rdf:resource="http://web.resource.org/cc/Distribution" />
        <cc:requires
           rdf:resource="http://web.resource.org/cc/Notice" />
        <cc:permits
           rdf:resource="http://web.resource.org/cc/DerivativeWorks" />
        <cc:requires
           rdf:resource="http://web.resource.org/cc/ShareAlike" />
        <cc:requires
           rdf:resource="http://web.resource.org/cc/SourceCode" />
      </cc:License>
    </rdf:RDF>
  </metadata>
  <g
     inkscape:label="Layer 1"
     inkscape:groupmode="layer"
     id="layer1">
    <rect
       style="opacity:1;color:#000000;fill:#008000;fill-opacity:1;fill-rule:nonzero;stroke:none;stroke-width:1;stroke-linecap:round;stroke-linejoin:round;marker:none;marker-start:none;marker-mid:none;marker-end:none;stroke-miterlimit:4;stroke-dasharray:none;stroke-dashoffset:0;stroke-opacity:1;visibility:visible;display:inline;overflow:visible"
       id="rect2228"
       width="256.25339"
       height="31.790068"
       x="-0.089285716"
       y="0.20993064" />
    <rect
       ry="0"
       y="-65.131989"
       x="1.7726569"
       height="18.362383"
       width="74.474548"
       id="rect1339"
       style="color:#000000;fill:#ffffff;fill-opacity:1;fill-rule:evenodd;stroke:#ffffff;stroke-width:0;stroke-linecap:round;stroke-linejoin:miter;marker:none;marker-start:none;marker-mid:none;marker-end:none;stroke-miterlimit:4;stroke-dasharray:none;stroke-dashoffset:0;stroke-opacity:1;visibility:visible;display:inline;overflow:visible" />
    <path
       style="color:#000000;fill:#f8ffff;fill-opacity:1;fill-rule:nonzero;stroke:none;stroke-width:0.5;stroke-linecap:round;stroke-linejoin:round;marker:none;marker-start:none;marker-mid:none;marker-end:none;stroke-miterlimit:4;stroke-dashoffset:0;stroke-opacity:1;visibility:visible;display:inline;overflow:visible"
       d="M 258.96602,-0.062181838 L 175.90944,-0.062181838 C 187.69525,-0.062181838 177.364,13.438443 186.4218,13.438443 L 258.96602,13.438443 L 258.96602,-0.062181838 z "
       id="rect5197"
       sodipodi:nodetypes="ccccc" />
    <path
       style="font-size:72px;font-style:normal;font-variant:normal;font-weight:bold;font-stretch:normal;text-align:start;line-height:100%;writing-mode:lr-tb;text-anchor:start;fill:#ffffff;fill-opacity:1;stroke:#008000;stroke-width:0.76044082999999996;stroke-linecap:butt;stroke-linejoin:miter;stroke-miterlimit:4;stroke-opacity:1;font-family:Sans"
       d="M 184.99237,1.4760324 L 189.7778,1.4760324 L 193.80131,11.635046 L 197.22329,1.4760324 L 202.00872,1.4760324 L 195.7128,17.864125 C 195.08008,19.530557 194.34044,20.693495 193.49386,21.352944 C 192.65618,22.021295 191.54671,22.355473 190.16545,22.355479 L 187.39845,22.355479 L 187.39845,19.214205 L 188.89557,19.214205 C 189.70651,19.214202 190.29466,19.084987 190.66003,18.826558 C 191.0343,18.568125 191.32393,18.104732 191.52889,17.436377 L 191.66257,17.021996 L 184.99237,1.4760324 M 211.52611,9.7101804 C 210.52802,9.7101874 209.77501,9.8795034 209.26707,10.218131 C 208.76802,10.55677 208.5185,11.055809 208.51851,11.715248 C 208.5185,12.321229 208.71901,12.797989 209.12003,13.145531 C 209.52995,13.484168 210.09582,13.653484 210.81765,13.653481 C 211.7177,13.653484 212.47517,13.332674 213.09006,12.691048 C 213.70494,12.040519 214.01238,11.229582 214.0124,10.258232 L 214.0124,9.7101804 L 211.52611,9.7101804 M 218.83793,7.9056184 L 218.83793,16.44721 L 214.0124,16.44721 L 214.0124,14.228268 C 213.37076,15.137234 212.64894,15.801133 211.84692,16.219969 C 211.04489,16.629894 210.06909,16.834856 208.91952,16.834857 C 207.36893,16.834856 206.10797,16.38483 205.13663,15.484777 C 204.17419,14.575815 203.69298,13.399509 203.69298,11.955857 C 203.69298,10.200314 204.2945,8.9126164 205.49754,8.0927584 C 206.70949,7.2729174 208.60762,6.8629924 211.19193,6.8629834 L 214.0124,6.8629834 L 214.0124,6.4887034 C 214.01238,5.7312444 213.71385,5.1787364 213.1168,4.8311804 C 212.51972,4.4747354 211.58848,4.2965074 210.32307,4.2964954 C 209.29825,4.2965074 208.34473,4.3989884 207.46251,4.6039394 C 206.58027,4.8089134 205.76042,5.1163564 205.00296,5.5262704 L 205.00296,1.8770464 C 206.02776,1.6275414 207.05703,1.4404014 208.09076,1.3156274 C 209.12448,1.1819704 210.1582,1.1151354 211.19193,1.1151204 C 213.89208,1.1151354 215.83922,1.6498194 217.03337,2.7191744 C 218.23639,3.7796464 218.83791,5.5084584 218.83793,7.9056184 M 233.50166,13.907457 C 232.84221,14.780777 232.11593,15.422398 231.32282,15.832322 C 230.52969,16.242248 229.61182,16.44721 228.56919,16.44721 C 226.74235,16.44721 225.23186,15.729842 224.03774,14.295103 C 222.84361,12.851458 222.24654,11.015708 222.24654,8.7878484 C 222.24654,6.5510934 222.84361,4.7197994 224.03774,3.2939614 C 225.23186,1.8592374 226.74235,1.1418694 228.56919,1.1418544 C 229.61182,1.1418694 230.52969,1.3468324 231.32282,1.7567424 C 232.11593,2.1666814 232.84221,2.8127584 233.50166,3.6949744 L 233.50166,1.4760324 L 238.31383,1.4760324 L 238.31383,14.936725 C 238.31381,17.342807 237.55189,19.178556 236.02805,20.44398 C 234.5131,21.718307 232.31198,22.355473 229.42469,22.355479 C 228.48898,22.355473 227.58448,22.284182 226.71116,22.141605 C 225.83784,21.999017 224.96007,21.780687 224.07784,21.486616 L 224.07784,17.757188 C 224.91551,18.238403 225.73536,18.594859 226.53739,18.826558 C 227.33941,19.067164 228.14589,19.187468 228.95684,19.187471 C 230.52524,19.187468 231.67481,18.844379 232.40556,18.158202 C 233.13628,17.472022 233.50165,16.398197 233.50166,14.936725 L 233.50166,13.907457 M 230.34702,4.5905724 C 229.35785,4.5905844 228.58701,4.9559514 228.03451,5.6866764 C 227.482,6.4174224 227.20574,7.4511454 227.20575,8.7878484 C 227.20574,10.160213 227.47308,11.202847 228.00778,11.915755 C 228.54245,12.619761 229.3222,12.971762 230.34702,12.971758 C 231.34509,12.971762 232.12038,12.606394 232.6729,11.875654 C 233.2254,11.144923 233.50165,10.115656 233.50166,8.7878484 C 233.50165,7.4511454 233.2254,6.4174224 232.6729,5.6866764 C 232.12038,4.9559514 231.34509,4.5905844 230.34702,4.5905724 M 254.63509,1.9438814 L 254.63509,5.5797394 C 253.61026,5.1520024 252.62109,4.8311924 251.66758,4.6173064 C 250.71405,4.4034444 249.814,4.2965074 248.96743,4.2964954 C 248.05845,4.2965074 247.38118,4.4123564 246.93562,4.6440404 C 246.49895,4.8668374 246.28063,5.2143824 246.28063,5.6866764 C 246.28063,6.0698774 246.44549,6.3639544 246.77522,6.5689064 C 247.11384,6.7738784 247.71536,6.9253724 248.57978,7.0233884 L 249.42191,7.1436924 C 251.87253,7.4556014 253.52115,7.9680074 254.36774,8.6809114 C 255.21431,9.3938324 255.63761,10.512213 255.63762,12.036059 C 255.63761,13.631206 255.04945,14.82979 253.87316,15.631816 C 252.69684,16.433843 250.94129,16.834856 248.60651,16.834857 C 247.61734,16.834856 246.59253,16.754654 245.53207,16.594248 C 244.48052,16.442755 243.39779,16.211058 242.28386,15.899158 L 242.28386,12.2633 C 243.23738,12.726698 244.21318,13.074243 245.21126,13.305936 C 246.21825,13.537636 247.2386,13.653484 248.27233,13.653481 C 249.20802,13.653484 249.91203,13.524269 250.38434,13.265835 C 250.85663,13.007407 251.09279,12.624217 251.0928,12.116262 C 251.09279,11.688519 250.92793,11.372164 250.59821,11.167196 C 250.27739,10.953328 249.63132,10.788467 248.65998,10.672613 L 247.81785,10.565676 C 245.68802,10.29834 244.19536,9.8037574 243.33987,9.0819254 C 242.48437,8.3601094 242.05662,7.2640064 242.05662,5.7936134 C 242.05662,4.2073934 242.60022,3.0310884 243.68741,2.2646924 C 244.7746,1.4983264 246.44103,1.1151354 248.68672,1.1151204 C 249.56893,1.1151354 250.49572,1.1819704 251.46708,1.3156274 C 252.43841,1.4493134 253.49441,1.6587314 254.63509,1.9438814"
       id="text1341" />
    <rect
       style="opacity:1;color:#000000;fill:#f88017;fill-opacity:1;fill-rule:nonzero;stroke:#ff7f2a;stroke-width:0.5;stroke-linecap:round;stroke-linejoin:round;marker:none;marker-start:none;marker-mid:none;marker-end:none;stroke-miterlimit:4;stroke-dasharray:none;stroke-dashoffset:0;stroke-opacity:1;visibility:visible;display:inline;overflow:visible"
       id="rect5201"
       width="14.899758"
       height="0"
       x="151.77541"
       y="-21.790623"
       rx="2.0203068"
       ry="0" />
    <g
       id="g13802"
       transform="translate(68.897618,-2.3446104)">
      <path
         id="path3293"
         style="fill:#000000;fill-opacity:1;stroke:#000000;stroke-width:0.40029937;stroke-miterlimit:4;stroke-dasharray:none;stroke-opacity:0.23170734"
         d="M 87.04014,3.6862116 C 85.423798,3.7826306 83.843582,4.4329226 83.000663,5.7129996 C 82.811172,6.0007626 82.782119,6.1973076 82.713989,6.4925336 C 82.645863,6.7877586 82.591807,7.1449396 82.557623,7.5319116 C 82.491076,8.2852346 82.47935,9.1539626 82.531563,10.078389 C 82.636072,11.928765 82.935222,13.760254 83.495826,14.85953 C 84.055793,15.95756 84.036758,17.570742 83.704313,18.133573 C 83.292031,18.831568 82.352113,19.44094 80.733344,19.900516 C 78.92737,20.41324 77.496495,20.911537 76.459316,21.823366 C 75.541093,22.630615 74.94777,23.563912 74.94777,24.75961 L 74.94777,26.526553 L 74.94777,27.358057 L 75.781727,27.358057 L 98.924019,27.358057 L 99.757978,27.358057 L 99.757978,26.526553 L 99.757978,24.75961 C 99.75798,23.563912 99.164653,22.630615 98.24643,21.823366 C 97.220771,20.921664 95.789988,20.390551 93.972405,19.874531 C 92.341646,19.411551 91.408464,18.822677 91.001433,18.133573 C 90.668989,17.570742 90.649956,15.95756 91.209923,14.85953 C 91.770529,13.760253 92.069677,11.928765 92.174185,10.078389 C 92.226396,9.1539626 92.214669,8.2852326 92.148124,7.5319116 C 92.113941,7.1449396 92.059887,6.7877586 91.991757,6.4925336 C 91.923629,6.1973076 91.894574,6.0007626 91.705086,5.7129996 C 90.86634,4.4392666 89.28161,3.6862116 87.613485,3.6862116 L 87.092261,3.6862116 L 87.066202,3.6862116 L 87.04014,3.6862116 z" />
      <path
         style="fill:#1a1a1a;fill-opacity:1;stroke:#000000;stroke-width:0.36438647;stroke-miterlimit:4;stroke-dasharray:none;stroke-opacity:0.2073171"
         d="M 102.55557,5.3697636 C 101.49192,5.3833526 100.46179,5.8843386 99.617708,7.0550516 C 97.290754,7.6785566 96.690747,10.985113 96.486262,13.283783 C 96.226467,16.204222 97.720744,18.039743 99.754353,18.82929 C 99.724721,19.16075 99.650933,19.443076 99.549386,19.614998 C 99.167276,20.261913 98.29971,20.823099 96.799407,21.249043 C 95.1256,21.724244 93.797979,22.186021 92.836704,23.031121 C 91.985679,23.779296 91.436093,24.197268 91.436093,25.305463 C 91.436093,26.743703 97.002918,27.519928 102.56981,27.519928 C 113.13139,27.519928 113.70352,27.639652 113.70352,25.305463 C 113.70352,24.197268 113.15394,23.779294 112.30291,23.031121 C 111.35231,22.195406 110.02478,21.704526 108.34021,21.226269 C 106.82879,20.797172 105.96178,20.253673 105.58454,19.614998 C 105.45853,19.401671 105.38019,19.024174 105.36818,18.584467 C 107.21845,17.720174 108.68238,16.051447 108.89818,13.591234 C 109.24074,9.6857846 105.74655,5.3289976 102.55557,5.3697636 z"
         id="path2876"
         sodipodi:nodetypes="ccscssssssssscsc" />
    </g>
    <text
       xml:space="preserve"
       style="font-size:5.76436377px;font-style:italic;font-variant:normal;font-weight:bold;font-stretch:normal;text-align:start;line-height:100%;writing-mode:lr-tb;text-anchor:start;fill:#ffffff;fill-opacity:1;stroke:none;stroke-width:1px;stroke-linecap:butt;stroke-linejoin:miter;stroke-opacity:1;font-family:Sans;-inkscape-font-specification:Sans Bold Italic"
       x="205.37764"
       y="27.491167"
       id="text2427"
       sodipodi:linespacing="100%"><tspan
         sodipodi:role="line"
         id="tspan2429"
         x="205.37764"
         y="27.491167">CHARACTERS</tspan></text>
  </g>
</svg>
