<?xml version="1.0" encoding="UTF-8" standalone="no"?>
<!-- Created with Inkscape (http://www.inkscape.org/) -->
<svg
   xmlns:dc="http://purl.org/dc/elements/1.1/"
   xmlns:cc="http://creativecommons.org/ns#"
   xmlns:rdf="http://www.w3.org/1999/02/22-rdf-syntax-ns#"
   xmlns:svg="http://www.w3.org/2000/svg"
   xmlns="http://www.w3.org/2000/svg"
   xmlns:xlink="http://www.w3.org/1999/xlink"
   xmlns:sodipodi="http://sodipodi.sourceforge.net/DTD/sodipodi-0.dtd"
   xmlns:inkscape="http://www.inkscape.org/namespaces/inkscape"
   version="1.0"
   width="512"
   height="32"
   id="svg2"
   sodipodi:version="0.32"
   inkscape:version="0.46"
   sodipodi:docname="header-combat-right.svg"
   inkscape:output_extension="org.inkscape.output.svg.inkscape">
  <metadata
     id="metadata21">
    <rdf:RDF>
      <cc:Work
         rdf:about="">
        <dc:format>image/svg+xml</dc:format>
        <dc:type
           rdf:resource="http://purl.org/dc/dcmitype/StillImage" />
      </cc:Work>
    </rdf:RDF>
  </metadata>
  <sodipodi:namedview
     inkscape:window-height="1051"
     inkscape:window-width="1920"
     inkscape:pageshadow="2"
     inkscape:pageopacity="0.0"
     guidetolerance="10.0"
     gridtolerance="10.0"
     objecttolerance="10.0"
     borderopacity="1.0"
     bordercolor="#666666"
     pagecolor="#ffffff"
     id="base"
     showgrid="true"
     inkscape:zoom="17.125"
     inkscape:cx="96.240236"
     inkscape:cy="25.07402"
     inkscape:window-x="-8"
     inkscape:window-y="44"
     inkscape:current-layer="svg2">
    <inkscape:grid
       type="xygrid"
       id="grid2407"
       visible="true"
       enabled="true" />
  </sodipodi:namedview>
  <defs
     id="defs4">
    <inkscape:perspective
       sodipodi:type="inkscape:persp3d"
       inkscape:vp_x="0 : 16 : 1"
       inkscape:vp_y="0 : 1000 : 0"
       inkscape:vp_z="512 : 16 : 1"
       inkscape:persp3d-origin="256 : 10.666667 : 1"
       id="perspective23" />
    <inkscape:perspective
       id="perspective2399"
       inkscape:persp3d-origin="254.17456 : 95.002838 : 1"
       inkscape:vp_z="508.34912 : 142.50426 : 1"
       inkscape:vp_y="0 : 1000 : 0"
       inkscape:vp_x="0 : 142.50426 : 1"
       sodipodi:type="inkscape:persp3d" />
    <linearGradient
       gradientTransform="matrix(1.000001,0,0,0.998935,-1.515562,5.130181e-2)"
       y2="359.76712"
       x2="798.61969"
       y1="359.76712"
       x1="87.798264"
       gradientUnits="userSpaceOnUse"
       id="linearGradient2828"
       xlink:href="#linearGradient2818"
       inkscape:collect="always" />
    <linearGradient
       id="linearGradient2818"
       inkscape:collect="always">
      <stop
         id="stop2820"
         offset="0"
         style="stop-color:#e7e0da;stop-opacity:1;" />
      <stop
         id="stop2822"
         offset="1"
         style="stop-color:#e7e0da;stop-opacity:0;" />
    </linearGradient>
    <inkscape:perspective
       id="perspective3245"
       inkscape:persp3d-origin="337.14859 : 151.0516 : 1"
       inkscape:vp_z="674.29718 : 226.57739 : 1"
       inkscape:vp_y="0 : 1000 : 0"
       inkscape:vp_x="0 : 226.57739 : 1"
       sodipodi:type="inkscape:persp3d" />
  </defs>
  <rect
     id="rect2228"
     style="color:#000000;fill:#ff0000;fill-opacity:1;fill-rule:nonzero;stroke:none;stroke-width:1;stroke-linecap:round;stroke-linejoin:round;marker:none;marker-start:none;marker-mid:none;marker-end:none;stroke-miterlimit:4;stroke-dasharray:none;stroke-dashoffset:0;stroke-opacity:1;visibility:visible;display:inline;overflow:visible"
     y="0.20993064"
     x="-0.089285716"
     height="31.790068"
     width="512.14624" />
  <rect
     id="rect1339"
     style="color:#000000;fill:#ffffff;fill-opacity:1;fill-rule:evenodd;stroke:#ffffff;stroke-width:0;stroke-linecap:round;stroke-linejoin:miter;marker:none;marker-start:none;marker-mid:none;marker-end:none;stroke-miterlimit:4;stroke-dasharray:none;stroke-dashoffset:0;stroke-opacity:1;visibility:visible;display:inline;overflow:visible"
     y="-65.131989"
     x="1.7726569"
     ry="0"
     height="18.362383"
     width="74.474548" />
  <path
     id="rect5197"
     style="color:#000000;fill:#f8ffff;fill-opacity:1;fill-rule:nonzero;stroke:none;stroke-width:0.5;stroke-linecap:round;stroke-linejoin:round;marker:none;marker-start:none;marker-mid:none;marker-end:none;stroke-miterlimit:4;stroke-dashoffset:0;stroke-opacity:1;visibility:visible;display:inline;overflow:visible"
     d="M -0.12627728,0.053923438 L 82.216017,0.053923438 C 70.531566,0.053923438 80.773963,13.438443 71.79407,13.438443 L -0.12627728,13.438443 L -0.12627728,0.053923438 z" />
  <path
     id="text1341"
     style="font-size:72px;font-style:normal;font-variant:normal;font-weight:bold;font-stretch:normal;text-align:start;line-height:100%;writing-mode:lr-tb;text-anchor:start;fill:#ffffff;fill-opacity:1;stroke:#ff0000;stroke-width:0.76044083;stroke-linecap:butt;stroke-linejoin:miter;stroke-miterlimit:4;stroke-opacity:1;font-family:Sans"
     d="M 0.95665681,1.4760324 L 5.7420869,1.4760324 L 9.7655909,11.635046 L 13.187575,1.4760324 L 17.973005,1.4760324 L 11.67709,17.864125 C 11.044369,19.530557 10.304722,20.693495 9.4581479,21.352944 C 8.6204659,22.021295 7.5109959,22.355473 6.1297339,22.355479 L 3.3627391,22.355479 L 3.3627391,19.214205 L 4.8598569,19.214205 C 5.6707909,19.214202 6.2589429,19.084987 6.6243169,18.826558 C 6.9985899,18.568125 7.2882109,18.104732 7.4931799,17.436377 L 7.6268509,17.021996 L 0.95665681,1.4760324 M 27.490397,9.7101804 C 26.49231,9.7101874 25.739296,9.8795034 25.231353,10.218131 C 24.732307,10.55677 24.482788,11.055809 24.482794,11.715248 C 24.482788,12.321229 24.683295,12.797989 25.084315,13.145531 C 25.494233,13.484168 26.060107,13.653484 26.78194,13.653481 C 27.681983,13.653484 28.439453,13.332674 29.05435,12.691048 C 29.669227,12.040519 29.97667,11.229582 29.976682,10.258232 L 29.976682,9.7101804 L 27.490397,9.7101804 M 34.802214,7.9056184 L 34.802214,16.44721 L 29.976682,16.44721 L 29.976682,14.228268 C 29.335049,15.137234 28.613225,15.801133 27.811208,16.219969 C 27.009172,16.629894 26.033373,16.834856 24.883808,16.834857 C 23.333217,16.834856 22.072252,16.38483 21.100912,15.484777 C 20.138477,14.575815 19.657261,13.399509 19.657262,11.955857 C 19.657261,10.200314 20.258781,8.9126164 21.461824,8.0927584 C 22.673773,7.2729174 24.571902,6.8629924 27.156219,6.8629834 L 29.976682,6.8629834 L 29.976682,6.4887034 C 29.97667,5.7312444 29.678138,5.1787364 29.081085,4.8311804 C 28.48401,4.4747354 27.552768,4.2965074 26.287356,4.2964954 C 25.262536,4.2965074 24.309016,4.3989884 23.426791,4.6039394 C 22.544557,4.8089134 21.724708,5.1163564 20.967241,5.5262704 L 20.967241,1.8770464 C 21.99205,1.6275414 23.021318,1.4404014 24.055046,1.3156274 C 25.088764,1.1819704 26.122487,1.1151354 27.156219,1.1151204 C 29.856366,1.1151354 31.803509,1.6498194 32.997652,2.7191744 C 34.200677,3.7796464 34.802197,5.5084584 34.802214,7.9056184 M 49.465949,13.907457 C 48.806491,14.780777 48.080213,15.422398 47.287108,15.832322 C 46.493979,16.242248 45.576105,16.44721 44.533479,16.44721 C 42.706634,16.44721 41.196148,15.729842 40.002024,14.295103 C 38.807893,12.851458 38.210829,11.015708 38.210829,8.7878484 C 38.210829,6.5510934 38.807893,4.7197994 40.002024,3.2939614 C 41.196148,1.8592374 42.706634,1.1418694 44.533479,1.1418544 C 45.576105,1.1418694 46.493979,1.3468324 47.287108,1.7567424 C 48.080213,2.1666814 48.806491,2.8127584 49.465949,3.6949744 L 49.465949,1.4760324 L 54.278114,1.4760324 L 54.278114,14.936725 C 54.278095,17.342807 53.516171,19.178556 51.992335,20.44398 C 50.477381,21.718307 48.276263,22.355473 45.388975,22.355479 C 44.453268,22.355473 43.548762,22.284182 42.675449,22.141605 C 41.802124,21.999017 40.924351,21.780687 40.042126,21.486616 L 40.042126,17.757188 C 40.879793,18.238403 41.699644,18.594859 42.501677,18.826558 C 43.303698,19.067164 44.11018,19.187468 44.921126,19.187471 C 46.489527,19.187468 47.639097,18.844379 48.369842,18.158202 C 49.100569,17.472022 49.465934,16.398197 49.465949,14.936725 L 49.465949,13.907457 M 46.311306,4.5905724 C 45.322133,4.5905844 44.551293,4.9559514 43.998794,5.6866764 C 43.446281,6.4174224 43.170028,7.4511454 43.170032,8.7878484 C 43.170028,10.160213 43.437369,11.202847 43.972061,11.915755 C 44.506739,12.619761 45.286487,12.971762 46.311306,12.971758 C 47.309374,12.971762 48.084666,12.606394 48.637187,11.875654 C 49.189681,11.144923 49.465934,10.115656 49.465949,8.7878484 C 49.465934,7.4511454 49.189681,6.4174224 48.637187,5.6866764 C 48.084666,4.9559514 47.309374,4.5905844 46.311306,4.5905724 M 70.599371,1.9438814 L 70.599371,5.5797394 C 69.574544,5.1520024 68.585378,4.8311924 67.631869,4.6173064 C 66.678337,4.4034444 65.778287,4.2965074 64.931711,4.2964954 C 64.022737,4.2965074 63.345469,4.4123564 62.899908,4.6440404 C 62.46324,4.8668374 62.244914,5.2143824 62.244918,5.6866764 C 62.244914,6.0698774 62.409773,6.3639544 62.739501,6.5689064 C 63.078129,6.7738784 63.679649,6.9253724 64.544065,7.0233884 L 65.386192,7.1436924 C 67.836819,7.4556014 69.485432,7.9680074 70.332027,8.6809114 C 71.178599,9.3938324 71.601891,10.512213 71.601906,12.036059 C 71.601891,13.631206 71.013735,14.82979 69.837444,15.631816 C 68.661125,16.433843 66.905579,16.834856 64.570798,16.834857 C 63.581624,16.834856 62.556812,16.754654 61.496359,16.594248 C 60.44481,16.442755 59.362071,16.211058 58.248147,15.899158 L 58.248147,12.2633 C 59.201668,12.726698 60.177465,13.074243 61.175548,13.305936 C 62.182531,13.537636 63.202887,13.653484 64.236618,13.653481 C 65.17231,13.653484 65.876311,13.524269 66.348625,13.265835 C 66.820919,13.007407 67.057071,12.624217 67.057082,12.116262 C 67.057071,11.688519 66.892211,11.372164 66.562499,11.167196 C 66.241676,10.953328 65.595602,10.788467 64.624265,10.672613 L 63.782137,10.565676 C 61.652302,10.29834 60.159644,9.8037574 59.304152,9.0819254 C 58.448653,8.3601094 58.020905,7.2640064 58.020908,5.7936134 C 58.020905,4.2073934 58.564502,3.0310884 59.651697,2.2646924 C 60.738884,1.4983264 62.405317,1.1151354 64.651002,1.1151204 C 65.533219,1.1151354 66.460007,1.1819704 67.431363,1.3156274 C 68.402693,1.4493134 69.458695,1.6587314 70.599371,1.9438814" />
  <rect
     id="rect5201"
     style="color:#000000;fill:#f88017;fill-opacity:1;fill-rule:nonzero;stroke:#ff7f2a;stroke-width:0.5;stroke-linecap:round;stroke-linejoin:round;marker:none;marker-start:none;marker-mid:none;marker-end:none;stroke-miterlimit:4;stroke-dasharray:none;stroke-dashoffset:0;stroke-opacity:1;visibility:visible;display:inline;overflow:visible"
     y="-21.790623"
     x="151.77541"
     ry="0"
     rx="2.0203068"
     height="0"
     width="14.899758" />
  <text
     xml:space="preserve"
     style="font-size:6px;font-style:italic;font-variant:normal;font-weight:bold;font-stretch:normal;text-align:start;line-height:100%;writing-mode:lr-tb;text-anchor:start;fill:#ffffff;fill-opacity:1;stroke:none;stroke-width:1px;stroke-linecap:butt;stroke-linejoin:miter;stroke-opacity:1;font-family:Sans;-inkscape-font-specification:Sans Bold Italic"
     x="5.4890509"
     y="27.678831"
     id="text2413"
     sodipodi:linespacing="100%"><tspan
       sodipodi:role="line"
       id="tspan2415"
       x="5.4890509"
       y="27.678831">COMBAT &amp; CONFLICT</tspan></text>
  <path
     style="fill:none;fill-opacity:0.75;fill-rule:evenodd;stroke:#000000;stroke-width:1px;stroke-linecap:butt;stroke-linejoin:miter;stroke-opacity:1"
     d="M -90,-13 C -75,-13 -94.698027,-27.188359 -90,-13 z"
     id="path2409" />
  <g
     transform="matrix(0.1065565,-0.1122582,0.1122582,0.1065565,86.90236,-27.15999)"
     id="layer1"
     inkscape:label="Vrstva 1">
    <g
       inkscape:export-ydpi="90"
       inkscape:export-xdpi="90"
       inkscape:export-filename="/media/KINGSTON/inkscape/9.c/Tomas Krauskopf/vyrobky inscapeu/nastroje/mec.png"
       transform="matrix(0.806649,0,0,0.823727,66.48799,93.05974)"
       id="g2830">
      <g
         id="g3273"
         transform="matrix(0.1818183,0,0,0.1818183,-324.46711,108.87584)">
        <path
           sodipodi:nodetypes="cccccc"
           transform="matrix(9.9810922,0,0,9.7741583,-1043.8448,447.79839)"
           id="path3263"
           d="M 90,-23 L 90,-13 L 190,-14.999999 L 205,-17.999999 L 190,-20.999999 L 90,-23 z"
           style="fill:#d0d0d8;fill-opacity:1;fill-rule:evenodd;stroke:#000000;stroke-width:1px;stroke-linecap:butt;stroke-linejoin:miter;stroke-opacity:1" />
        <path
           sodipodi:nodetypes="ccccc"
           id="path3269"
           d="M -335.18725,252.31522 L -335.18725,291.41185 L -145.5465,301.18601 L -145.5465,242.54107 L -335.18725,252.31522 z"
           style="fill:#000000;fill-opacity:1;fill-rule:evenodd;stroke:#000000;stroke-width:9.87708378px;stroke-linecap:butt;stroke-linejoin:miter;stroke-opacity:1" />
        <path
           sodipodi:nodetypes="ccccscc"
           id="path3265"
           d="M -105.62213,379.37928 L -125.58432,271.86355 L -105.62213,164.3478 L -135.56541,135.02532 C -135.56541,135.02532 -155.52759,230.39531 -155.52759,271.86355 C -155.52759,313.33179 -135.56541,408.70176 -135.56541,408.70176 L -105.62213,379.37928 z"
           style="fill:#000000;fill-opacity:1;fill-rule:evenodd;stroke:#ffffff;stroke-width:3.95083332;stroke-linecap:butt;stroke-linejoin:bevel;stroke-miterlimit:4;stroke-dasharray:none;stroke-opacity:1" />
        <path
           transform="matrix(9.9810922,0,0,9.7741583,-1043.8448,447.79839)"
           id="path3267"
           d="M 93,-18 L 195,-18"
           style="fill:none;fill-opacity:0.75;fill-rule:evenodd;stroke:#ffffff;stroke-width:1px;stroke-linecap:butt;stroke-linejoin:miter;stroke-opacity:1" />
        <path
           transform="matrix(9.9810922,0,0,9.7741583,-993.93932,433.13716)"
           d="M 69,-16.5 A 4.5,4.5 0 1 1 60,-16.5 A 4.5,4.5 0 1 1 69,-16.5 z"
           sodipodi:ry="4.5"
           sodipodi:rx="4.5"
           sodipodi:cy="-16.5"
           sodipodi:cx="64.5"
           id="path3271"
           style="opacity:1;color:#000000;fill:#000000;fill-opacity:1;fill-rule:nonzero;stroke:#ffffff;stroke-width:0.30000001;stroke-linecap:round;stroke-linejoin:bevel;marker:none;marker-start:none;marker-mid:none;marker-end:none;stroke-miterlimit:4;stroke-dasharray:none;stroke-dashoffset:0;stroke-opacity:1;visibility:visible;display:inline;overflow:visible"
           sodipodi:type="arc" />
      </g>
    </g>
  </g>
  <g
     id="g3210"
     transform="matrix(0.1625419,0,0,0.1625419,74.55852,25.678268)">
    <path
       sodipodi:nodetypes="cccccccccccccccccccccsccccc"
       id="path2411"
       d="M 50,-98 L 55,-98 C 55,-93 55.165164,-93 57.687709,-93 C 60.165164,-93 60,-98 60,-98 L 65,-98 C 65,-93 65,-93 67.522546,-93 C 70,-93 70,-98 70,-98 L 135,-98 L 137.85287,-95.147127 L 150,-95.147127 L 155,-98 L 180,-98 L 185,-78 L 195,-78 L 195,-73 L 180,-68 L 200,-23 L 170,-18 L 166.98196,-21.1832 L 170,-23 L 160,-58 C 160,-58 143.19668,-58 135,-58 C 131.6459,-58 130,-68 130,-68 L 100,-68 L 95,-78 L 50,-78 L 50,-98 z"
       style="fill:#000000;fill-opacity:1;fill-rule:evenodd;stroke:#000000;stroke-width:1px;stroke-linecap:butt;stroke-linejoin:miter;stroke-opacity:1" />
    <path
       sodipodi:nodetypes="cssss"
       id="rect3183"
       d="M 136.98196,-69.651636 C 141.98196,-69.651636 145.80245,-69.651636 153.1832,-69.651636 C 155.52553,-69.651636 155.5219,-60.15742 153.1832,-60.027054 C 148.1832,-59.748341 142.14401,-60.008215 137.14713,-60.192218 C 133.31844,-60.333204 133.15315,-69.651636 136.98196,-69.651636 z"
       style="color:#000000;fill:#ffffff;fill-opacity:1;fill-rule:nonzero;stroke:none;stroke-width:2;stroke-linecap:round;stroke-linejoin:round;marker:none;marker-start:none;marker-mid:none;marker-end:none;stroke-miterlimit:4;stroke-dashoffset:0;stroke-opacity:1;visibility:visible;display:inline;overflow:visible" />
    <path
       sodipodi:nodetypes="cc"
       id="path3186"
       d="M 75,-93 C 135,-93 130,-93 130,-93"
       style="fill:none;fill-opacity:0.75;fill-rule:evenodd;stroke:#ffffff;stroke-width:1px;stroke-linecap:butt;stroke-linejoin:miter;stroke-opacity:1" />
    <path
       sodipodi:nodetypes="cc"
       id="path3188"
       d="M 100,-75.521522 C 160,-75.521522 155,-75.521522 155,-75.521522"
       style="fill:none;fill-opacity:0.75;fill-rule:evenodd;stroke:#ffffff;stroke-width:1px;stroke-linecap:butt;stroke-linejoin:miter;stroke-opacity:1" />
    <path
       sodipodi:nodetypes="cc"
       id="path3190"
       d="M 50.526979,-88 C 173.7638,-88 163.49406,-88 163.49406,-88"
       style="fill:none;fill-opacity:0.75;fill-rule:evenodd;stroke:#969594;stroke-width:1.43315983px;stroke-linecap:butt;stroke-linejoin:miter;stroke-opacity:1" />
    <path
       sodipodi:nodetypes="csss"
       id="path3192"
       d="M 142.66487,-70.298899 C 142.05313,-71.272372 145.90291,-71.283057 146.49731,-70.298899 C 147.77441,-68.184407 142.6192,-60.541229 142.66487,-63.011038 C 142.72997,-66.531561 145.03233,-66.531561 142.66487,-70.298899 z"
       style="fill:#000000;fill-opacity:1;fill-rule:evenodd;stroke:#000000;stroke-width:0.6102488px;stroke-linecap:butt;stroke-linejoin:miter;stroke-opacity:1" />
    <path
       id="path3194"
       d="M 160,-83 C 160,-73 160,-73 160,-73"
       style="fill:none;fill-opacity:0.75;fill-rule:evenodd;stroke:#ffffff;stroke-width:0.5;stroke-linecap:butt;stroke-linejoin:miter;stroke-miterlimit:4;stroke-dasharray:none;stroke-opacity:1" />
    <path
       id="path3196"
       d="M 165,-83 C 165,-73 165,-73 165,-73"
       style="fill:none;fill-opacity:0.75;fill-rule:evenodd;stroke:#ffffff;stroke-width:0.5;stroke-linecap:butt;stroke-linejoin:miter;stroke-miterlimit:4;stroke-dasharray:none;stroke-opacity:1" />
    <path
       id="path3198"
       d="M 170,-83 C 170,-73 170,-73 170,-73"
       style="fill:none;fill-opacity:0.75;fill-rule:evenodd;stroke:#ffffff;stroke-width:0.5;stroke-linecap:butt;stroke-linejoin:miter;stroke-miterlimit:4;stroke-dasharray:none;stroke-opacity:1" />
    <path
       id="path3200"
       d="M 175,-83 C 175,-73 175,-73 175,-73"
       style="fill:none;fill-opacity:0.75;fill-rule:evenodd;stroke:#ffffff;stroke-width:0.5;stroke-linecap:butt;stroke-linejoin:miter;stroke-miterlimit:4;stroke-dasharray:none;stroke-opacity:1" />
    <path
       id="path3202"
       d="M 162.52101,-83 C 162.52101,-73 162.52101,-73 162.52101,-73"
       style="fill:none;fill-opacity:0.75;fill-rule:evenodd;stroke:#ffffff;stroke-width:0.5;stroke-linecap:butt;stroke-linejoin:miter;stroke-miterlimit:4;stroke-dasharray:none;stroke-opacity:1" />
    <path
       id="path3204"
       d="M 167.47592,-83 C 167.47592,-73 167.47592,-73 167.47592,-73"
       style="fill:none;fill-opacity:0.75;fill-rule:evenodd;stroke:#ffffff;stroke-width:0.5;stroke-linecap:butt;stroke-linejoin:miter;stroke-miterlimit:4;stroke-dasharray:none;stroke-opacity:1" />
    <path
       id="path3206"
       d="M 172.59599,-83 C 172.59599,-73 172.59599,-73 172.59599,-73"
       style="fill:none;fill-opacity:0.75;fill-rule:evenodd;stroke:#ffffff;stroke-width:0.5;stroke-linecap:butt;stroke-linejoin:miter;stroke-miterlimit:4;stroke-dasharray:none;stroke-opacity:1" />
    <path
       sodipodi:nodetypes="cc"
       id="path3208"
       d="M 196.98196,-29.861891 C 184.92502,-22.669673 170,-23 170,-23"
       style="fill:none;fill-opacity:0.75;fill-rule:evenodd;stroke:#ffffff;stroke-width:0.5;stroke-linecap:butt;stroke-linejoin:miter;stroke-miterlimit:4;stroke-dasharray:none;stroke-opacity:1" />
  </g>
</svg>
