<?xml version="1.0" encoding="UTF-8" standalone="no"?>
<!-- Created with Inkscape (http://www.inkscape.org/) -->
<svg
   xmlns:dc="http://purl.org/dc/elements/1.1/"
   xmlns:cc="http://creativecommons.org/ns#"
   xmlns:rdf="http://www.w3.org/1999/02/22-rdf-syntax-ns#"
   xmlns:svg="http://www.w3.org/2000/svg"
   xmlns="http://www.w3.org/2000/svg"
   xmlns:sodipodi="http://sodipodi.sourceforge.net/DTD/sodipodi-0.dtd"
   xmlns:inkscape="http://www.inkscape.org/namespaces/inkscape"
   version="1.0"
   width="512"
   height="32"
   id="svg2"
   sodipodi:version="0.32"
   inkscape:version="0.46"
   sodipodi:docname="header-character-right.svg"
   inkscape:output_extension="org.inkscape.output.svg.inkscape">
  <metadata
     id="metadata21">
    <rdf:RDF>
      <cc:Work
         rdf:about="">
        <dc:format>image/svg+xml</dc:format>
        <dc:type
           rdf:resource="http://purl.org/dc/dcmitype/StillImage" />
      </cc:Work>
    </rdf:RDF>
  </metadata>
  <sodipodi:namedview
     inkscape:window-height="1082"
     inkscape:window-width="1904"
     inkscape:pageshadow="2"
     inkscape:pageopacity="0.0"
     guidetolerance="10.0"
     gridtolerance="10.0"
     objecttolerance="10.0"
     borderopacity="1.0"
     bordercolor="#666666"
     pagecolor="#ffffff"
     id="base"
     showgrid="false"
     showborder="false"
     inkscape:zoom="5.3570914"
     inkscape:cx="154.36045"
     inkscape:cy="-34.959607"
     inkscape:window-x="0"
     inkscape:window-y="24"
     inkscape:current-layer="svg2" />
  <defs
     id="defs4">
    <filter
       id="filter9218"
       inkscape:collect="always">
      <feBlend
         id="feBlend9220"
         in2="BackgroundImage"
         mode="multiply"
         inkscape:collect="always" />
    </filter>
  </defs>
  <rect
     id="rect2228"
     style="color:#000000;fill:#008000;fill-opacity:1;fill-rule:nonzero;stroke:#008000;stroke-width:1;stroke-linecap:round;stroke-linejoin:round;marker:none;marker-start:none;marker-mid:none;marker-end:none;stroke-miterlimit:4;stroke-dasharray:none;stroke-dashoffset:0;stroke-opacity:1;visibility:visible;display:inline;overflow:visible"
     y="0.20993064"
     x="-0.089285716"
     height="31.790068"
     width="512.14624" />
  <path
     id="rect5197"
     style="color:#000000;fill:#f8ffff;fill-opacity:1;fill-rule:nonzero;stroke:none;stroke-width:0.5;stroke-linecap:round;stroke-linejoin:round;marker:none;marker-start:none;marker-mid:none;marker-end:none;stroke-miterlimit:4;stroke-dashoffset:0;stroke-opacity:1;visibility:visible;display:inline;overflow:visible"
     d="M -1.4475863,-0.93705833 L 82.216017,-0.93705833 C 70.344071,-0.93705833 80.750823,13.438443 71.626834,13.438443 L -1.4475863,13.438443 L -1.4475863,-0.93705833 z" />
  <path
     id="text1341"
     style="font-size:72px;font-style:normal;font-variant:normal;font-weight:bold;font-stretch:normal;text-align:start;line-height:100%;writing-mode:lr-tb;text-anchor:start;fill:#ffffff;fill-opacity:1;stroke:#008000;stroke-width:0.76044082999999996;stroke-linecap:butt;stroke-linejoin:miter;stroke-miterlimit:4;stroke-opacity:1;font-family:Sans"
     d="M 0.95665681,1.4760324 L 5.7420869,1.4760324 L 9.7655909,11.635046 L 13.187575,1.4760324 L 17.973005,1.4760324 L 11.67709,17.864125 C 11.044369,19.530557 10.304722,20.693495 9.4581479,21.352944 C 8.6204659,22.021295 7.5109959,22.355473 6.1297339,22.355479 L 3.3627391,22.355479 L 3.3627391,19.214205 L 4.8598569,19.214205 C 5.6707909,19.214202 6.2589429,19.084987 6.6243169,18.826558 C 6.9985899,18.568125 7.2882109,18.104732 7.4931799,17.436377 L 7.6268509,17.021996 L 0.95665681,1.4760324 M 27.490397,9.7101804 C 26.49231,9.7101874 25.739296,9.8795034 25.231353,10.218131 C 24.732307,10.55677 24.482788,11.055809 24.482794,11.715248 C 24.482788,12.321229 24.683295,12.797989 25.084315,13.145531 C 25.494233,13.484168 26.060107,13.653484 26.78194,13.653481 C 27.681983,13.653484 28.439453,13.332674 29.05435,12.691048 C 29.669227,12.040519 29.97667,11.229582 29.976682,10.258232 L 29.976682,9.7101804 L 27.490397,9.7101804 M 34.802214,7.9056184 L 34.802214,16.44721 L 29.976682,16.44721 L 29.976682,14.228268 C 29.335049,15.137234 28.613225,15.801133 27.811208,16.219969 C 27.009172,16.629894 26.033373,16.834856 24.883808,16.834857 C 23.333217,16.834856 22.072252,16.38483 21.100912,15.484777 C 20.138477,14.575815 19.657261,13.399509 19.657262,11.955857 C 19.657261,10.200314 20.258781,8.9126164 21.461824,8.0927584 C 22.673773,7.2729174 24.571902,6.8629924 27.156219,6.8629834 L 29.976682,6.8629834 L 29.976682,6.4887034 C 29.97667,5.7312444 29.678138,5.1787364 29.081085,4.8311804 C 28.48401,4.4747354 27.552768,4.2965074 26.287356,4.2964954 C 25.262536,4.2965074 24.309016,4.3989884 23.426791,4.6039394 C 22.544557,4.8089134 21.724708,5.1163564 20.967241,5.5262704 L 20.967241,1.8770464 C 21.99205,1.6275414 23.021318,1.4404014 24.055046,1.3156274 C 25.088764,1.1819704 26.122487,1.1151354 27.156219,1.1151204 C 29.856366,1.1151354 31.803509,1.6498194 32.997652,2.7191744 C 34.200677,3.7796464 34.802197,5.5084584 34.802214,7.9056184 M 49.465949,13.907457 C 48.806491,14.780777 48.080213,15.422398 47.287108,15.832322 C 46.493979,16.242248 45.576105,16.44721 44.533479,16.44721 C 42.706634,16.44721 41.196148,15.729842 40.002024,14.295103 C 38.807893,12.851458 38.210829,11.015708 38.210829,8.7878484 C 38.210829,6.5510934 38.807893,4.7197994 40.002024,3.2939614 C 41.196148,1.8592374 42.706634,1.1418694 44.533479,1.1418544 C 45.576105,1.1418694 46.493979,1.3468324 47.287108,1.7567424 C 48.080213,2.1666814 48.806491,2.8127584 49.465949,3.6949744 L 49.465949,1.4760324 L 54.278114,1.4760324 L 54.278114,14.936725 C 54.278095,17.342807 53.516171,19.178556 51.992335,20.44398 C 50.477381,21.718307 48.276263,22.355473 45.388975,22.355479 C 44.453268,22.355473 43.548762,22.284182 42.675449,22.141605 C 41.802124,21.999017 40.924351,21.780687 40.042126,21.486616 L 40.042126,17.757188 C 40.879793,18.238403 41.699644,18.594859 42.501677,18.826558 C 43.303698,19.067164 44.11018,19.187468 44.921126,19.187471 C 46.489527,19.187468 47.639097,18.844379 48.369842,18.158202 C 49.100569,17.472022 49.465934,16.398197 49.465949,14.936725 L 49.465949,13.907457 M 46.311306,4.5905724 C 45.322133,4.5905844 44.551293,4.9559514 43.998794,5.6866764 C 43.446281,6.4174224 43.170028,7.4511454 43.170032,8.7878484 C 43.170028,10.160213 43.437369,11.202847 43.972061,11.915755 C 44.506739,12.619761 45.286487,12.971762 46.311306,12.971758 C 47.309374,12.971762 48.084666,12.606394 48.637187,11.875654 C 49.189681,11.144923 49.465934,10.115656 49.465949,8.7878484 C 49.465934,7.4511454 49.189681,6.4174224 48.637187,5.6866764 C 48.084666,4.9559514 47.309374,4.5905844 46.311306,4.5905724 M 70.599371,1.9438814 L 70.599371,5.5797394 C 69.574544,5.1520024 68.585378,4.8311924 67.631869,4.6173064 C 66.678337,4.4034444 65.778287,4.2965074 64.931711,4.2964954 C 64.022737,4.2965074 63.345469,4.4123564 62.899908,4.6440404 C 62.46324,4.8668374 62.244914,5.2143824 62.244918,5.6866764 C 62.244914,6.0698774 62.409773,6.3639544 62.739501,6.5689064 C 63.078129,6.7738784 63.679649,6.9253724 64.544065,7.0233884 L 65.386192,7.1436924 C 67.836819,7.4556014 69.485432,7.9680074 70.332027,8.6809114 C 71.178599,9.3938324 71.601891,10.512213 71.601906,12.036059 C 71.601891,13.631206 71.013735,14.82979 69.837444,15.631816 C 68.661125,16.433843 66.905579,16.834856 64.570798,16.834857 C 63.581624,16.834856 62.556812,16.754654 61.496359,16.594248 C 60.44481,16.442755 59.362071,16.211058 58.248147,15.899158 L 58.248147,12.2633 C 59.201668,12.726698 60.177465,13.074243 61.175548,13.305936 C 62.182531,13.537636 63.202887,13.653484 64.236618,13.653481 C 65.17231,13.653484 65.876311,13.524269 66.348625,13.265835 C 66.820919,13.007407 67.057071,12.624217 67.057082,12.116262 C 67.057071,11.688519 66.892211,11.372164 66.562499,11.167196 C 66.241676,10.953328 65.595602,10.788467 64.624265,10.672613 L 63.782137,10.565676 C 61.652302,10.29834 60.159644,9.8037574 59.304152,9.0819254 C 58.448653,8.3601094 58.020905,7.2640064 58.020908,5.7936134 C 58.020905,4.2073934 58.564502,3.0310884 59.651697,2.2646924 C 60.738884,1.4983264 62.405317,1.1151354 64.651002,1.1151204 C 65.533219,1.1151354 66.460007,1.1819704 67.431363,1.3156274 C 68.402693,1.4493134 69.458695,1.6587314 70.599371,1.9438814" />
  <rect
     id="rect5201"
     style="color:#000000;fill:#f88017;fill-opacity:1;fill-rule:nonzero;stroke:#ff7f2a;stroke-width:0.5;stroke-linecap:round;stroke-linejoin:round;marker:none;marker-start:none;marker-mid:none;marker-end:none;stroke-miterlimit:4;stroke-dasharray:none;stroke-dashoffset:0;stroke-opacity:1;visibility:visible;display:inline;overflow:visible"
     y="-21.790623"
     x="151.77541"
     ry="0"
     rx="2.0203068"
     height="0"
     width="14.899758" />
  <text
     xml:space="preserve"
     style="font-size:24px;font-style:normal;font-variant:normal;font-weight:bold;font-stretch:normal;fill:#000000;fill-opacity:1;stroke:none;stroke-width:1px;stroke-linecap:butt;stroke-linejoin:miter;stroke-opacity:1;font-family:Impact;-inkscape-font-specification:Impact Bold"
     x="37.987633"
     y="27.045092"
     id="text2411"><tspan
       sodipodi:role="line"
       id="tspan2413"></tspan></text>
  <text
     xml:space="preserve"
     style="font-size:24px;font-style:normal;font-variant:normal;font-weight:bold;font-stretch:normal;fill:#000000;fill-opacity:1;stroke:none;stroke-width:1px;stroke-linecap:butt;stroke-linejoin:miter;stroke-opacity:1;font-family:Impact;-inkscape-font-specification:Impact Bold"
     x="6.3269191"
     y="33.336674"
     id="text2423"><tspan
       sodipodi:role="line"
       id="tspan2425"
       x="6.3269191"
       y="33.336674" /></text>
  <text
     xml:space="preserve"
     style="font-size:5.76436377px;font-style:italic;font-variant:normal;font-weight:bold;font-stretch:normal;text-align:start;line-height:100%;writing-mode:lr-tb;text-anchor:start;fill:#ffffff;fill-opacity:1;stroke:none;stroke-width:1px;stroke-linecap:butt;stroke-linejoin:miter;stroke-opacity:1;font-family:Sans;-inkscape-font-specification:Sans Bold Italic"
     x="7.0567713"
     y="27.522425"
     id="text2427"
     sodipodi:linespacing="100%"><tspan
       sodipodi:role="line"
       id="tspan2429"
       x="7.0567713"
       y="27.522425">CHARACTERS</tspan></text>
  <g
     id="g13802"
     transform="translate(-0.1866685,-2.0533531)">
    <path
       id="path3293"
       style="fill:#000000;fill-opacity:1;stroke:#000000;stroke-width:0.40029937;stroke-miterlimit:4;stroke-dasharray:none;stroke-opacity:0.23170734"
       d="M 87.04014,3.6862116 C 85.423798,3.7826306 83.843582,4.4329226 83.000663,5.7129996 C 82.811172,6.0007626 82.782119,6.1973076 82.713989,6.4925336 C 82.645863,6.7877586 82.591807,7.1449396 82.557623,7.5319116 C 82.491076,8.2852346 82.47935,9.1539626 82.531563,10.078389 C 82.636072,11.928765 82.935222,13.760254 83.495826,14.85953 C 84.055793,15.95756 84.036758,17.570742 83.704313,18.133573 C 83.292031,18.831568 82.352113,19.44094 80.733344,19.900516 C 78.92737,20.41324 77.496495,20.911537 76.459316,21.823366 C 75.541093,22.630615 74.94777,23.563912 74.94777,24.75961 L 74.94777,26.526553 L 74.94777,27.358057 L 75.781727,27.358057 L 98.924019,27.358057 L 99.757978,27.358057 L 99.757978,26.526553 L 99.757978,24.75961 C 99.75798,23.563912 99.164653,22.630615 98.24643,21.823366 C 97.220771,20.921664 95.789988,20.390551 93.972405,19.874531 C 92.341646,19.411551 91.408464,18.822677 91.001433,18.133573 C 90.668989,17.570742 90.649956,15.95756 91.209923,14.85953 C 91.770529,13.760253 92.069677,11.928765 92.174185,10.078389 C 92.226396,9.1539626 92.214669,8.2852326 92.148124,7.5319116 C 92.113941,7.1449396 92.059887,6.7877586 91.991757,6.4925336 C 91.923629,6.1973076 91.894574,6.0007626 91.705086,5.7129996 C 90.86634,4.4392666 89.28161,3.6862116 87.613485,3.6862116 L 87.092261,3.6862116 L 87.066202,3.6862116 L 87.04014,3.6862116 z" />
    <path
       style="fill:#1a1a1a;fill-opacity:1;stroke:#000000;stroke-width:0.36438647;stroke-miterlimit:4;stroke-dasharray:none;stroke-opacity:0.2073171"
       d="M 102.55557,5.3697636 C 101.49192,5.3833526 100.46179,5.8843386 99.617708,7.0550516 C 97.290754,7.6785566 96.690747,10.985113 96.486262,13.283783 C 96.226467,16.204222 97.720744,18.039743 99.754353,18.82929 C 99.724721,19.16075 99.650933,19.443076 99.549386,19.614998 C 99.167276,20.261913 98.29971,20.823099 96.799407,21.249043 C 95.1256,21.724244 93.797979,22.186021 92.836704,23.031121 C 91.985679,23.779296 91.436093,24.197268 91.436093,25.305463 C 91.436093,26.743703 97.002918,27.519928 102.56981,27.519928 C 113.13139,27.519928 113.70352,27.639652 113.70352,25.305463 C 113.70352,24.197268 113.15394,23.779294 112.30291,23.031121 C 111.35231,22.195406 110.02478,21.704526 108.34021,21.226269 C 106.82879,20.797172 105.96178,20.253673 105.58454,19.614998 C 105.45853,19.401671 105.38019,19.024174 105.36818,18.584467 C 107.21845,17.720174 108.68238,16.051447 108.89818,13.591234 C 109.24074,9.6857846 105.74655,5.3289976 102.55557,5.3697636 z"
       id="path2876"
       sodipodi:nodetypes="ccscssssssssscsc" />
  </g>
  <g
     inkscape:label="fill text"
     id="g8309"
     transform="translate(181.15086,121.89249)" />
  <g
     inkscape:label="fill text"
     id="g8311"
     transform="translate(181.15086,121.89249)" />
  <g
     id="g8369"
     inkscape:label="fill text"
     transform="translate(-33.775028,222.20297)" />
</svg>
