<?xml version="1.0" encoding="UTF-8" standalone="no"?>
<!-- Created with Inkscape (http://www.inkscape.org/) -->
<svg
   xmlns:svg="http://www.w3.org/2000/svg"
   xmlns="http://www.w3.org/2000/svg"
   version="1.0"
   width="512"
   height="32"
   id="svg2">
  <defs
     id="defs4" />
  <g
     id="layer1">
    <rect
       width="512.14624"
       height="31.790068"
       x="-0.089285716"
       y="0.20993064"
       style="opacity:1;color:#000000;fill:#ffa500;fill-opacity:1;fill-rule:nonzero;stroke:none;stroke-width:1;stroke-linecap:round;stroke-linejoin:round;marker:none;marker-start:none;marker-mid:none;marker-end:none;stroke-miterlimit:4;stroke-dasharray:none;stroke-dashoffset:0;stroke-opacity:1;visibility:visible;display:inline;overflow:visible"
       id="rect2228" />
    <rect
       width="74.474548"
       height="18.362383"
       ry="0"
       x="1.7726569"
       y="-65.131989"
       style="color:#000000;fill:#ffffff;fill-opacity:1;fill-rule:evenodd;stroke:#ffffff;stroke-width:0;stroke-linecap:round;stroke-linejoin:miter;marker:none;marker-start:none;marker-mid:none;marker-end:none;stroke-miterlimit:4;stroke-dasharray:none;stroke-dashoffset:0;stroke-opacity:1;visibility:visible;display:inline;overflow:visible"
       id="rect1339" />
    <path
       d="M -0.12627728,0.053923438 L 82.216017,0.053923438 C 70.531566,0.053923438 80.773963,13.438443 71.79407,13.438443 L -0.12627728,13.438443 L -0.12627728,0.053923438 z "
       style="color:#000000;fill:#f8ffff;fill-opacity:1;fill-rule:nonzero;stroke:none;stroke-width:0.5;stroke-linecap:round;stroke-linejoin:round;marker:none;marker-start:none;marker-mid:none;marker-end:none;stroke-miterlimit:4;stroke-dashoffset:0;stroke-opacity:1;visibility:visible;display:inline;overflow:visible"
       id="rect5197" />
    <path
       d="M 0.95665681,1.4760324 L 5.7420869,1.4760324 L 9.7655909,11.635046 L 13.187575,1.4760324 L 17.973005,1.4760324 L 11.67709,17.864125 C 11.044369,19.530557 10.304722,20.693495 9.4581479,21.352944 C 8.6204659,22.021295 7.5109959,22.355473 6.1297339,22.355479 L 3.3627391,22.355479 L 3.3627391,19.214205 L 4.8598569,19.214205 C 5.6707909,19.214202 6.2589429,19.084987 6.6243169,18.826558 C 6.9985899,18.568125 7.2882109,18.104732 7.4931799,17.436377 L 7.6268509,17.021996 L 0.95665681,1.4760324 M 27.490397,9.7101804 C 26.49231,9.7101874 25.739296,9.8795034 25.231353,10.218131 C 24.732307,10.55677 24.482788,11.055809 24.482794,11.715248 C 24.482788,12.321229 24.683295,12.797989 25.084315,13.145531 C 25.494233,13.484168 26.060107,13.653484 26.78194,13.653481 C 27.681983,13.653484 28.439453,13.332674 29.05435,12.691048 C 29.669227,12.040519 29.97667,11.229582 29.976682,10.258232 L 29.976682,9.7101804 L 27.490397,9.7101804 M 34.802214,7.9056184 L 34.802214,16.44721 L 29.976682,16.44721 L 29.976682,14.228268 C 29.335049,15.137234 28.613225,15.801133 27.811208,16.219969 C 27.009172,16.629894 26.033373,16.834856 24.883808,16.834857 C 23.333217,16.834856 22.072252,16.38483 21.100912,15.484777 C 20.138477,14.575815 19.657261,13.399509 19.657262,11.955857 C 19.657261,10.200314 20.258781,8.9126164 21.461824,8.0927584 C 22.673773,7.2729174 24.571902,6.8629924 27.156219,6.8629834 L 29.976682,6.8629834 L 29.976682,6.4887034 C 29.97667,5.7312444 29.678138,5.1787364 29.081085,4.8311804 C 28.48401,4.4747354 27.552768,4.2965074 26.287356,4.2964954 C 25.262536,4.2965074 24.309016,4.3989884 23.426791,4.6039394 C 22.544557,4.8089134 21.724708,5.1163564 20.967241,5.5262704 L 20.967241,1.8770464 C 21.99205,1.6275414 23.021318,1.4404014 24.055046,1.3156274 C 25.088764,1.1819704 26.122487,1.1151354 27.156219,1.1151204 C 29.856366,1.1151354 31.803509,1.6498194 32.997652,2.7191744 C 34.200677,3.7796464 34.802197,5.5084584 34.802214,7.9056184 M 49.465949,13.907457 C 48.806491,14.780777 48.080213,15.422398 47.287108,15.832322 C 46.493979,16.242248 45.576105,16.44721 44.533479,16.44721 C 42.706634,16.44721 41.196148,15.729842 40.002024,14.295103 C 38.807893,12.851458 38.210829,11.015708 38.210829,8.7878484 C 38.210829,6.5510934 38.807893,4.7197994 40.002024,3.2939614 C 41.196148,1.8592374 42.706634,1.1418694 44.533479,1.1418544 C 45.576105,1.1418694 46.493979,1.3468324 47.287108,1.7567424 C 48.080213,2.1666814 48.806491,2.8127584 49.465949,3.6949744 L 49.465949,1.4760324 L 54.278114,1.4760324 L 54.278114,14.936725 C 54.278095,17.342807 53.516171,19.178556 51.992335,20.44398 C 50.477381,21.718307 48.276263,22.355473 45.388975,22.355479 C 44.453268,22.355473 43.548762,22.284182 42.675449,22.141605 C 41.802124,21.999017 40.924351,21.780687 40.042126,21.486616 L 40.042126,17.757188 C 40.879793,18.238403 41.699644,18.594859 42.501677,18.826558 C 43.303698,19.067164 44.11018,19.187468 44.921126,19.187471 C 46.489527,19.187468 47.639097,18.844379 48.369842,18.158202 C 49.100569,17.472022 49.465934,16.398197 49.465949,14.936725 L 49.465949,13.907457 M 46.311306,4.5905724 C 45.322133,4.5905844 44.551293,4.9559514 43.998794,5.6866764 C 43.446281,6.4174224 43.170028,7.4511454 43.170032,8.7878484 C 43.170028,10.160213 43.437369,11.202847 43.972061,11.915755 C 44.506739,12.619761 45.286487,12.971762 46.311306,12.971758 C 47.309374,12.971762 48.084666,12.606394 48.637187,11.875654 C 49.189681,11.144923 49.465934,10.115656 49.465949,8.7878484 C 49.465934,7.4511454 49.189681,6.4174224 48.637187,5.6866764 C 48.084666,4.9559514 47.309374,4.5905844 46.311306,4.5905724 M 70.599371,1.9438814 L 70.599371,5.5797394 C 69.574544,5.1520024 68.585378,4.8311924 67.631869,4.6173064 C 66.678337,4.4034444 65.778287,4.2965074 64.931711,4.2964954 C 64.022737,4.2965074 63.345469,4.4123564 62.899908,4.6440404 C 62.46324,4.8668374 62.244914,5.2143824 62.244918,5.6866764 C 62.244914,6.0698774 62.409773,6.3639544 62.739501,6.5689064 C 63.078129,6.7738784 63.679649,6.9253724 64.544065,7.0233884 L 65.386192,7.1436924 C 67.836819,7.4556014 69.485432,7.9680074 70.332027,8.6809114 C 71.178599,9.3938324 71.601891,10.512213 71.601906,12.036059 C 71.601891,13.631206 71.013735,14.82979 69.837444,15.631816 C 68.661125,16.433843 66.905579,16.834856 64.570798,16.834857 C 63.581624,16.834856 62.556812,16.754654 61.496359,16.594248 C 60.44481,16.442755 59.362071,16.211058 58.248147,15.899158 L 58.248147,12.2633 C 59.201668,12.726698 60.177465,13.074243 61.175548,13.305936 C 62.182531,13.537636 63.202887,13.653484 64.236618,13.653481 C 65.17231,13.653484 65.876311,13.524269 66.348625,13.265835 C 66.820919,13.007407 67.057071,12.624217 67.057082,12.116262 C 67.057071,11.688519 66.892211,11.372164 66.562499,11.167196 C 66.241676,10.953328 65.595602,10.788467 64.624265,10.672613 L 63.782137,10.565676 C 61.652302,10.29834 60.159644,9.8037574 59.304152,9.0819254 C 58.448653,8.3601094 58.020905,7.2640064 58.020908,5.7936134 C 58.020905,4.2073934 58.564502,3.0310884 59.651697,2.2646924 C 60.738884,1.4983264 62.405317,1.1151354 64.651002,1.1151204 C 65.533219,1.1151354 66.460007,1.1819704 67.431363,1.3156274 C 68.402693,1.4493134 69.458695,1.6587314 70.599371,1.9438814"
       style="font-size:72px;font-style:normal;font-variant:normal;font-weight:bold;font-stretch:normal;text-align:start;line-height:100%;writing-mode:lr-tb;text-anchor:start;fill:#ffffff;fill-opacity:1;stroke:#ffa500;stroke-width:0.76044083;stroke-linecap:butt;stroke-linejoin:miter;stroke-miterlimit:4;stroke-opacity:1;font-family:Sans"
       id="text1341" />
    <path
       d="M 11.334406,27.128581 C 11.087932,27.216098 10.851273,27.282183 10.624454,27.326833 C 10.397617,27.371484 10.182397,27.39381 9.9787908,27.39381 C 9.4411825,27.39381 9.011636,27.246459 8.6901446,26.951761 C 8.368654,26.657061 8.2079108,26.266809 8.2079108,25.780998 C 8.2079108,25.461295 8.2588118,25.160345 8.3606188,24.878145 C 8.4624242,24.594164 8.6124515,24.335185 8.8107035,24.101208 C 9.0446761,23.826158 9.3259815,23.61451 9.6546197,23.466264 C 9.9850384,23.318026 10.340463,23.243903 10.7209,23.2439 C 10.928074,23.243903 11.136152,23.268909 11.345125,23.318914 C 11.55409,23.367142 11.766631,23.441264 11.982748,23.541278 L 11.816643,24.369118 C 11.645178,24.238739 11.472825,24.143184 11.299577,24.082454 C 11.126328,24.021732 10.940577,23.991369 10.742332,23.991366 C 10.329751,23.991369 9.9841418,24.150328 9.7055191,24.468244 C 9.4268958,24.786165 9.287581,25.183564 9.2875834,25.660439 C 9.287581,25.967642 9.3733167,26.208761 9.5447732,26.383794 C 9.7162382,26.558829 9.952889,26.646345 10.254734,26.646345 C 10.435127,26.646345 10.626229,26.614196 10.828059,26.549897 C 11.031665,26.483814 11.259388,26.381115 11.51123,26.241802 L 11.334406,27.128581 M 15.414659,24.955839 C 15.414659,24.641493 15.343217,24.402163 15.200334,24.237842 C 15.059235,24.073529 14.853837,23.991369 14.584149,23.991366 C 14.226933,23.991369 13.926871,24.152115 13.683974,24.473603 C 13.442851,24.793309 13.322293,25.194279 13.322293,25.676512 C 13.322293,25.983718 13.392839,26.222156 13.533938,26.391832 C 13.675038,26.561507 13.871508,26.646345 14.123342,26.646345 C 14.328731,26.646345 14.510915,26.60348 14.669877,26.517748 C 14.830614,26.430231 14.96725,26.301636 15.079776,26.131959 C 15.186935,25.969429 15.269096,25.786357 15.32625,25.582745 C 15.385189,25.379136 15.414659,25.170167 15.414659,24.955839 M 14.734175,23.2439 C 15.266416,23.243903 15.694178,23.392146 16.017461,23.688629 C 16.342521,23.983332 16.505049,24.369121 16.505049,24.845996 C 16.505049,25.17106 16.455037,25.478262 16.355023,25.767602 C 16.256784,26.056945 16.113004,26.316816 15.923685,26.547217 C 15.691498,26.831202 15.416442,27.043743 15.098528,27.184842 C 14.782396,27.324154 14.417147,27.39381 14.002785,27.39381 C 13.47232,27.39381 13.045453,27.246459 12.72218,26.951761 C 12.398895,26.657061 12.237261,26.27038 12.237261,25.791714 C 12.237261,25.464867 12.286377,25.156772 12.384608,24.867428 C 12.482848,24.578089 12.627515,24.317325 12.818626,24.085134 C 13.047237,23.802941 13.319613,23.592186 13.635745,23.452868 C 13.953661,23.313561 14.319803,23.243903 14.734175,23.2439 M 18.715301,25.089793 C 18.949273,25.089795 19.126097,25.03532 19.245758,24.926368 C 19.367211,24.817421 19.427933,24.657568 19.427942,24.446811 C 19.427933,24.314645 19.385961,24.218198 19.302025,24.15747 C 19.219864,24.094961 19.089476,24.063705 18.910876,24.063701 L 18.484897,24.063701 L 18.281291,25.089793 L 18.715301,25.089793 M 18.144656,25.802431 L 17.847274,27.316118 L 16.81583,27.316118 L 17.595441,23.316236 L 19.11984,23.316236 C 19.55921,23.316239 19.892316,23.398397 20.119144,23.562712 C 20.345972,23.727032 20.459386,23.969043 20.459394,24.288745 C 20.459386,24.612024 20.370081,24.878147 20.191481,25.087114 C 20.012874,25.296084 19.770863,25.41575 19.46545,25.446113 C 19.604758,25.474691 19.720851,25.546133 19.813732,25.660439 C 19.906602,25.772964 19.987868,25.94621 20.057526,26.180183 L 20.397767,27.316118 L 19.371683,27.316118 L 19.071621,26.322175 C 19.01089,26.123922 18.936769,25.988182 18.849256,25.914953 C 18.763521,25.839941 18.6385,25.802433 18.474187,25.802431 L 18.144656,25.802431 M 21.817689,23.316236 L 24.598586,23.316236 L 24.445879,24.095851 L 22.696435,24.095851 L 22.551759,24.840637 L 24.199397,24.840637 L 24.04401,25.620252 L 22.399053,25.620252 L 22.222229,26.536503 L 24.02794,26.536503 L 23.880585,27.316118 L 21.03807,27.316118 L 21.817689,23.316236 M 28.59579,25.089793 C 28.829761,25.089795 29.006577,25.03532 29.126246,24.926368 C 29.2477,24.817421 29.308422,24.657568 29.308422,24.446811 C 29.308422,24.314645 29.266449,24.218198 29.182504,24.15747 C 29.100344,24.094961 28.969964,24.063705 28.791363,24.063701 L 28.365386,24.063701 L 28.161772,25.089793 L 28.59579,25.089793 M 28.025145,25.802431 L 27.727762,27.316118 L 26.696311,27.316118 L 27.475929,23.316236 L 29.000329,23.316236 C 29.439699,23.316239 29.772796,23.398397 29.999631,23.562712 C 30.22646,23.727032 30.339874,23.969043 30.339874,24.288745 C 30.339874,24.612024 30.25057,24.878147 30.07197,25.087114 C 29.893353,25.296084 29.651342,25.41575 29.34593,25.446113 C 29.485237,25.474691 29.601331,25.546133 29.694212,25.660439 C 29.787083,25.772964 29.868347,25.94621 29.938014,26.180183 L 30.278255,27.316118 L 29.252162,27.316118 L 28.95211,26.322175 C 28.891379,26.123922 28.817258,25.988182 28.729745,25.914953 C 28.644009,25.839941 28.518989,25.802433 28.354667,25.802431 L 28.025145,25.802431 M 31.698177,23.316236 L 32.729622,23.316236 L 32.263463,25.711341 C 32.2456,25.797074 32.232201,25.872981 32.223274,25.939063 C 32.216131,26.005149 32.212554,26.063197 32.212554,26.113206 C 32.212554,26.288241 32.258998,26.419516 32.35187,26.507032 C 32.446535,26.592763 32.586738,26.635628 32.772489,26.635628 C 33.022539,26.635628 33.214538,26.565972 33.348495,26.426659 C 33.48245,26.285561 33.58157,26.048016 33.645875,25.714021 L 34.112034,23.316236 L 35.143486,23.316236 L 34.677319,25.714021 C 34.561225,26.303422 34.340646,26.731182 34.015586,26.997305 C 33.692303,27.261642 33.228825,27.39381 32.625143,27.39381 C 32.151832,27.39381 31.791945,27.292897 31.545463,27.091073 C 31.298989,26.887462 31.175751,26.592763 31.175751,26.206974 C 31.175751,26.142676 31.180215,26.071234 31.189143,25.992647 C 31.198077,25.912276 31.212364,25.8194 31.23201,25.714021 L 31.698177,23.316236 M 36.156181,23.316236 L 37.187632,23.316236 L 36.56072,26.536503 L 38.366431,26.536503 L 38.219085,27.316118 L 35.376561,27.316118 L 36.156181,23.316236 M 39.649717,23.316236 L 42.430606,23.316236 L 42.277899,24.095851 L 40.528455,24.095851 L 40.383788,24.840637 L 42.031425,24.840637 L 41.876039,25.620252 L 40.231073,25.620252 L 40.054258,26.536503 L 41.859961,26.536503 L 41.712614,27.316118 L 38.870099,27.316118 L 39.649717,23.316236 M 46.154545,23.442153 L 45.98844,24.288745 C 45.78661,24.188729 45.587468,24.114608 45.391006,24.066381 C 45.194535,24.016374 45.002536,23.991369 44.815002,23.991366 C 44.557808,23.991369 44.356874,24.031556 44.212207,24.111926 C 44.069316,24.192301 43.997873,24.30393 43.997882,24.446811 C 43.997873,24.537903 44.029136,24.609346 44.09165,24.661139 C 44.155939,24.711152 44.287216,24.760268 44.48547,24.808489 L 44.908769,24.912973 C 45.2624,25.002278 45.521386,25.131768 45.685707,25.301441 C 45.851805,25.469333 45.934853,25.687233 45.934862,25.955139 C 45.934853,26.389154 45.769643,26.737435 45.439225,26.999985 C 45.110591,27.262536 44.668542,27.39381 44.11308,27.39381 C 43.854094,27.39381 43.596013,27.369698 43.33882,27.321475 C 43.08341,27.273251 42.83337,27.201809 42.588671,27.107149 L 42.752096,26.236444 C 42.989644,26.373971 43.220047,26.476669 43.443307,26.544539 C 43.668351,26.61241 43.889819,26.646345 44.10772,26.646345 C 44.343475,26.646345 44.534586,26.598121 44.681045,26.501674 C 44.829287,26.405227 44.90341,26.281988 44.90341,26.131959 C 44.90341,26.033726 44.870365,25.957819 44.804282,25.904236 C 44.7382,25.84887 44.593525,25.792609 44.370273,25.735454 L 43.949655,25.630969 C 43.638882,25.55417 43.407582,25.432718 43.255772,25.266613 C 43.103954,25.100512 43.028048,24.885291 43.028048,24.620952 C 43.028048,24.204803 43.187002,23.871703 43.504926,23.62165 C 43.824625,23.369821 44.25418,23.243903 44.793571,23.2439 C 45.00968,23.243903 45.231148,23.260872 45.457984,23.294802 C 45.686595,23.326955 45.918782,23.376072 46.154545,23.442153"
       style="font-size:56px;font-style:oblique;font-variant:normal;font-weight:bold;font-stretch:normal;text-align:start;line-height:100%;writing-mode:lr-tb;text-anchor:start;fill:#ffffff;fill-opacity:1;stroke:none;stroke-width:1px;stroke-linecap:butt;stroke-linejoin:miter;stroke-opacity:1;font-family:Sans"
       id="text1345" />
    <rect
       width="14.899758"
       height="0"
       rx="2.0203068"
       ry="0"
       x="151.77541"
       y="-21.790623"
       style="opacity:1;color:#000000;fill:#f88017;fill-opacity:1;fill-rule:nonzero;stroke:#ff7f2a;stroke-width:0.5;stroke-linecap:round;stroke-linejoin:round;marker:none;marker-start:none;marker-mid:none;marker-end:none;stroke-miterlimit:4;stroke-dasharray:none;stroke-dashoffset:0;stroke-opacity:1;visibility:visible;display:inline;overflow:visible"
       id="rect5201" />
    <g
       transform="matrix(1.7259165,0,0,1.7259165,-19.640197,-27.927251)"
       id="g4845">
      <g
         transform="matrix(0.1199409,0,0,0.1199409,66.835826,22.350052)"
         id="g4832">
        <path
           d="M -52.453143,-41.969526 C -54.370877,-41.959404 -55.602121,-41.867648 -57.505433,-41.603418 C -58.068917,-41.513689 -58.530535,-41.146193 -58.530535,-40.578315 L -58.878338,-35.050085 C -58.930184,-34.49056 -59.321559,-34.122027 -59.738692,-33.988371 C -59.75148,-33.984271 -59.762472,-33.97371 -59.775303,-33.970066 C -62.186834,-33.322687 -64.474914,-32.375534 -66.584911,-31.151034 C -66.966569,-30.985887 -67.458958,-30.99584 -67.866289,-31.334088 L -72.021615,-34.995168 C -72.423161,-35.396716 -73.005847,-35.33016 -73.467742,-34.995168 C -75.000425,-33.836164 -75.948675,-33.030773 -77.311876,-31.681891 C -78.660761,-30.318692 -79.466148,-29.370443 -80.625153,-27.837757 C -80.960143,-27.375863 -81.026699,-26.793178 -80.625153,-26.39163 L -76.964073,-22.236305 C -76.68658,-21.902133 -76.532826,-21.469616 -76.689492,-21.156286 L -76.726103,-21.083064 C -78.041466,-18.857362 -79.066183,-16.434188 -79.728189,-13.870736 C -79.735127,-13.858647 -79.739124,-13.846039 -79.746494,-13.834125 C -79.932306,-13.533717 -80.247558,-13.288429 -80.680069,-13.248353 L -86.2083,-12.90055 C -86.776172,-12.90055 -87.143668,-12.438932 -87.233403,-11.875448 C -87.497633,-9.9721359 -87.589389,-8.7408909 -87.599511,-6.8231569 C -87.589389,-4.9054229 -87.497633,-3.6741789 -87.233403,-1.770867 C -87.143668,-1.207385 -86.776172,-0.74576496 -86.2083,-0.74576496 L -80.680069,-0.39796196 C -80.172002,-0.35088296 -79.834544,-0.019220957 -79.673272,0.35255904 C -79.02703,2.779624 -78.052877,5.076353 -76.81763,7.198779 C -76.599183,7.590372 -76.594082,8.14443 -76.964073,8.589989 L -80.625153,12.745315 C -81.026699,13.14686 -80.960145,13.729548 -80.625153,14.191441 C -79.466148,15.724122 -78.660761,16.672371 -77.311876,18.035575 C -75.948675,19.384458 -75.000426,20.189849 -73.467742,21.348853 C -73.005848,21.683845 -72.423161,21.7504 -72.021615,21.348853 L -67.866289,17.687773 C -67.420728,17.317781 -66.866672,17.322883 -66.475079,17.54133 L -66.420163,17.486413 C -64.353758,18.668017 -62.127507,19.600772 -59.775303,20.232223 L -59.775303,20.32375 C -59.343939,20.446183 -58.931773,20.827087 -58.878338,21.403769 L -58.530535,26.932 C -58.530535,27.499871 -58.068917,27.867368 -57.505433,27.957102 C -55.602121,28.221333 -54.370877,28.313088 -52.453143,28.32321 C -50.535409,28.313088 -49.304164,28.221333 -47.400852,27.957102 C -46.83737,27.867368 -46.37575,27.499871 -46.37575,26.932 L -46.027947,21.403769 C -45.974511,20.827087 -45.562346,20.446183 -45.130983,20.32375 L -45.130983,20.232223 C -42.778779,19.600772 -40.552527,18.668017 -38.486122,17.486413 L -38.431206,17.54133 C -38.039613,17.322883 -37.485557,17.317781 -37.039996,17.687773 L -32.884674,21.348853 C -32.483114,21.750406 -31.900434,21.68385 -31.438544,21.348853 C -29.905864,20.189849 -28.957614,19.384458 -27.594414,18.035575 C -26.245524,16.672371 -25.440134,15.724122 -24.281134,14.191441 C -23.946134,13.729554 -23.879584,13.146865 -24.281134,12.745315 L -27.942214,8.589989 C -28.312204,8.144427 -28.307104,7.590372 -28.088654,7.198779 C -26.853404,5.076353 -25.879254,2.779624 -25.233014,0.35255904 C -25.071744,-0.019220957 -24.734284,-0.35088296 -24.226214,-0.39796196 L -18.697984,-0.74576496 C -18.130104,-0.74576496 -17.762614,-1.207385 -17.672884,-1.770867 C -17.408654,-3.6741789 -17.316894,-4.9054229 -17.306774,-6.8231569 C -17.316894,-8.7408909 -17.408654,-9.9721359 -17.672884,-11.875448 C -17.762614,-12.438932 -18.130104,-12.90055 -18.697984,-12.90055 L -24.226214,-13.248353 C -24.658724,-13.288429 -24.973974,-13.533717 -25.159794,-13.834125 C -25.163094,-13.846967 -25.174784,-13.857902 -25.178094,-13.870736 C -25.840104,-16.434188 -27.023994,-18.770674 -28.180184,-21.083064 L -28.216794,-21.156286 C -28.373454,-21.469616 -28.219704,-21.902133 -27.942214,-22.236305 L -24.281134,-26.39163 C -23.879584,-26.793184 -23.946144,-27.375863 -24.281134,-27.837757 C -25.440134,-29.370443 -26.245524,-30.318692 -27.594414,-31.681891 C -28.957604,-33.030779 -29.905854,-33.836164 -31.438544,-34.995168 C -31.900434,-35.33016 -32.483114,-35.396716 -32.884674,-34.995168 L -37.039996,-31.334088 C -37.447328,-30.99584 -37.939716,-30.985887 -38.321374,-31.151034 C -40.431371,-32.375534 -42.719451,-33.322687 -45.130983,-33.970066 C -45.143813,-33.97371 -45.154805,-33.984271 -45.167593,-33.988371 C -45.584726,-34.122027 -45.9761,-34.49056 -46.027947,-35.050085 L -46.37575,-40.578315 C -46.37575,-41.146193 -46.83737,-41.513689 -47.400852,-41.603418 C -49.304164,-41.867648 -50.535409,-41.959404 -52.453143,-41.969526 z M -52.453143,-16.195522 C -47.279598,-16.195523 -43.080778,-11.996703 -43.080778,-6.8231569 C -43.080778,-1.649612 -47.279598,2.549207 -52.453143,2.549207 C -57.626688,2.549207 -61.825507,-1.649612 -61.825507,-6.8231569 C -61.825507,-11.996703 -57.626687,-16.195522 -52.453143,-16.195522 z "
           style="fill:#999999;fill-opacity:1;stroke:none;stroke-width:3;stroke-linecap:round;stroke-linejoin:round;stroke-miterlimit:4;stroke-dasharray:none;stroke-dashoffset:1.08779998;stroke-opacity:1"
           id="path3139" />
        <path
           d="M -37.67857 -3 A 15 15 0 1 1  -67.67857,-3 A 15 15 0 1 1  -37.67857 -3 z"
           transform="matrix(1.14637,0,0,1.14637,7.9359896,-3.384048)"
           style="opacity:1;color:#000000;fill:#808080;fill-opacity:1;fill-rule:nonzero;stroke:#ececec;stroke-width:0.5;stroke-linecap:round;stroke-linejoin:round;marker:none;marker-start:none;marker-mid:none;marker-end:none;stroke-miterlimit:4;stroke-dasharray:none;stroke-dashoffset:0;stroke-opacity:1;visibility:visible;display:inline;overflow:visible"
           id="path3859" />
        <path
           d="M -37.67857 -3 A 15 15 0 1 1  -67.67857,-3 A 15 15 0 1 1  -37.67857 -3 z"
           transform="matrix(0.6194379,0,0,0.6194379,-19.82204,-4.9648443)"
           style="opacity:1;color:#000000;fill:#ffffff;fill-opacity:1;fill-rule:nonzero;stroke:#4d4d4d;stroke-width:0.5;stroke-linecap:round;stroke-linejoin:round;marker:none;marker-start:none;marker-mid:none;marker-end:none;stroke-miterlimit:4;stroke-dasharray:none;stroke-dashoffset:0;stroke-opacity:1;visibility:visible;display:inline;overflow:visible"
           id="path4830" />
      </g>
      <g
         transform="matrix(0.1199409,0,0,0.1199409,72.582948,27.764369)"
         id="g4837">
        <path
           d="M -67.903117,-38.391583 C -69.621174,-37.539476 -70.686741,-36.915819 -72.280141,-35.841812 C -72.746817,-35.513516 -72.999895,-34.980509 -72.750262,-34.470441 L -70.632506,-29.352101 C -70.433113,-28.826746 -70.622642,-28.323685 -70.938557,-28.020269 C -70.94824,-28.010964 -70.953471,-27.996647 -70.963394,-27.987733 C -72.844847,-26.346174 -74.483639,-24.489627 -75.840559,-22.46225 C -76.110767,-22.146142 -76.557405,-21.938633 -77.071959,-22.063388 L -82.413641,-23.525128 C -82.950825,-23.709283 -83.444936,-23.39336 -83.71255,-22.889426 C -84.579718,-21.174659 -85.077394,-20.034417 -85.708865,-18.223604 C -86.321184,-16.406225 -86.627741,-15.200469 -86.995005,-13.314326 C -87.092849,-12.752195 -86.896488,-12.199571 -86.359303,-12.015416 L -81.244288,-9.8924805 C -80.848146,-9.7143106 -80.519914,-9.393413 -80.522895,-9.0431117 L -80.523591,-8.9612499 C -80.726654,-6.3839073 -80.581851,-3.7569605 -80.049598,-1.1634601 C -80.050515,-1.1495519 -80.048563,-1.1364704 -80.049945,-1.1225295 C -80.084785,-0.77102239 -80.260118,-0.41212354 -80.630982,-0.18600003 L -85.443542,2.5565485 C -85.953604,2.806179 -86.080766,3.3823512 -85.913664,3.9279184 C -85.314319,5.7536237 -84.855492,6.8998615 -84.021568,8.6268174 C -83.169461,10.344874 -82.545804,11.410441 -81.471797,13.003841 C -81.143496,13.470513 -80.610488,13.723592 -80.100426,13.473962 L -74.982085,11.356206 C -74.505045,11.175151 -74.056145,11.324707 -73.74786,11.587745 C -72.100494,13.483651 -70.215893,15.118343 -68.1734,16.481702 C -67.805051,16.737403 -67.556911,17.232815 -67.693373,17.79566 L -69.155113,23.137341 C -69.339266,23.674523 -69.023344,24.168637 -68.519411,24.436249 C -66.804644,25.303415 -65.664406,25.801092 -63.853589,26.432564 C -62.036209,27.04488 -60.830451,27.351441 -58.94431,27.718706 C -58.382179,27.816551 -57.829553,27.620188 -57.645401,27.083003 L -55.522464,21.967988 C -55.284907,21.439798 -54.785011,21.200823 -54.337256,21.224892 L -54.312071,21.151425 C -51.936608,21.30437 -49.526963,21.163533 -47.136637,20.696697 L -47.096403,20.778907 C -46.655132,20.699253 -46.117483,20.860197 -45.815985,21.354682 L -43.073436,26.167242 C -42.823806,26.677303 -42.247634,26.804466 -41.702067,26.637363 C -39.876361,26.038019 -38.730125,25.579192 -37.003169,24.745268 C -35.285112,23.89316 -34.219544,23.269504 -32.626144,22.195496 C -32.159472,21.867196 -31.906393,21.334187 -32.156023,20.824126 L -34.273779,15.705785 C -34.479286,15.16432 -34.276522,14.641009 -33.942892,14.341418 L -33.983126,14.259208 C -32.147959,12.658036 -30.558371,10.841599 -29.221749,8.8719139 L -29.148283,8.8970998 C -28.892582,8.5287508 -28.397172,8.280611 -27.834325,8.4170734 L -22.492648,9.8788151 C -21.955448,10.062968 -21.461343,9.7470475 -21.193735,9.2431116 C -20.32657,7.5283456 -19.828894,6.3881036 -19.197425,4.5772901 C -18.585103,2.759904 -18.278543,1.554147 -17.911281,-0.3319895 C -17.813426,-0.89411833 -18.009794,-1.4467436 -18.546983,-1.6308981 L -23.661999,-3.7538346 C -24.190187,-3.9913942 -24.429163,-4.4912876 -24.405092,-4.9390443 C -24.228588,-7.3884077 -24.363226,-9.879553 -24.849686,-12.34362 C -24.868264,-12.748445 -24.710953,-13.194687 -24.275301,-13.460316 L -19.462742,-16.202864 C -18.952673,-16.452498 -18.825517,-17.028669 -18.992622,-17.574233 C -19.591967,-19.399938 -20.05079,-20.546176 -20.884716,-22.273131 C -21.736822,-23.991189 -22.360483,-25.056755 -23.43449,-26.650155 C -23.762787,-27.116831 -24.295788,-27.369911 -24.805857,-27.120277 L -29.924198,-25.002522 C -30.330295,-24.848391 -30.721278,-24.930128 -31.020237,-25.118269 C -31.028846,-25.128353 -31.044153,-25.133036 -31.052768,-25.143109 C -32.774251,-27.154586 -34.864714,-28.732789 -36.919705,-30.301526 L -36.984776,-30.351201 C -37.263224,-30.563767 -37.315256,-31.01984 -37.212914,-31.441975 L -35.751173,-36.783655 C -35.56702,-37.320847 -35.882944,-37.81495 -36.386875,-38.082565 C -38.10164,-38.949737 -39.241881,-39.447412 -41.0527,-40.078878 C -42.870073,-40.691204 -44.075829,-40.997759 -45.961975,-41.36502 C -46.524103,-41.462868 -47.076723,-41.266508 -47.260887,-40.729317 L -49.38382,-35.614303 C -49.600995,-35.13143 -50.038882,-34.906042 -50.454284,-34.886604 C -52.887758,-35.058916 -55.359267,-34.903832 -57.809883,-34.425222 C -57.823009,-34.422856 -57.837525,-34.427509 -57.850813,-34.425571 C -58.284235,-34.362253 -58.79777,-34.521225 -59.0903,-35.000998 L -61.832848,-39.813557 C -62.082482,-40.323625 -62.658655,-40.450786 -63.204218,-40.283679 C -65.029923,-39.684335 -66.176161,-39.225507 -67.903117,-38.391583 z M -56.573136,-15.241404 C -51.926264,-17.515641 -46.309132,-15.590023 -44.034896,-10.94315 C -41.76066,-6.2962782 -43.686278,-0.67914687 -48.33315,1.5950892 C -52.980022,3.8693252 -58.597153,1.9437078 -60.871389,-2.703164 C -63.145625,-7.3500369 -61.220007,-12.967168 -56.573136,-15.241404 z "
           style="fill:#999999;fill-opacity:1;stroke:none;stroke-width:3;stroke-linecap:round;stroke-linejoin:round;stroke-miterlimit:4;stroke-dasharray:none;stroke-dashoffset:1.08779998;stroke-opacity:1"
           id="path4839" />
        <path
           d="M -37.67857 -3 A 15 15 0 1 1  -67.67857,-3 A 15 15 0 1 1  -37.67857 -3 z"
           transform="matrix(1.14637,0,0,1.14637,7.9359896,-3.384048)"
           style="opacity:1;color:#000000;fill:#808080;fill-opacity:1;fill-rule:nonzero;stroke:#ececec;stroke-width:0.5;stroke-linecap:round;stroke-linejoin:round;marker:none;marker-start:none;marker-mid:none;marker-end:none;stroke-miterlimit:4;stroke-dasharray:none;stroke-dashoffset:0;stroke-opacity:1;visibility:visible;display:inline;overflow:visible"
           id="path4841" />
        <path
           d="M -37.67857 -3 A 15 15 0 1 1  -67.67857,-3 A 15 15 0 1 1  -37.67857 -3 z"
           transform="matrix(0.6194379,0,0,0.6194379,-19.82204,-4.9648443)"
           style="opacity:1;color:#000000;fill:#ffffff;fill-opacity:1;fill-rule:nonzero;stroke:#4d4d4d;stroke-width:0.5;stroke-linecap:round;stroke-linejoin:round;marker:none;marker-start:none;marker-mid:none;marker-end:none;stroke-miterlimit:4;stroke-dasharray:none;stroke-dashoffset:0;stroke-opacity:1;visibility:visible;display:inline;overflow:visible"
           id="path4843" />
      </g>
    </g>
  </g>
</svg>
