<?xml version="1.0" encoding="UTF-8" standalone="no"?>
<!-- Created with Inkscape (http://www.inkscape.org/) -->

<svg
   xmlns:dc="http://purl.org/dc/elements/1.1/"
   xmlns:cc="http://creativecommons.org/ns#"
   xmlns:rdf="http://www.w3.org/1999/02/22-rdf-syntax-ns#"
   xmlns:svg="http://www.w3.org/2000/svg"
   xmlns="http://www.w3.org/2000/svg"
   xmlns:sodipodi="http://sodipodi.sourceforge.net/DTD/sodipodi-0.dtd"
   xmlns:inkscape="http://www.inkscape.org/namespaces/inkscape"
   width="744.09448819"
   height="1052.3622047"
   id="svg2"
   version="1.1"
   inkscape:version="0.48.4 r9939"
   sodipodi:docname="runes.svg">
  <defs
     id="defs4" />
  <sodipodi:namedview
     id="base"
     pagecolor="#ffffff"
     bordercolor="#666666"
     borderopacity="1.0"
     inkscape:pageopacity="0.0"
     inkscape:pageshadow="2"
     inkscape:zoom="1.979899"
     inkscape:cx="323.78383"
     inkscape:cy="779.64536"
     inkscape:document-units="px"
     inkscape:current-layer="layer1"
     showgrid="true"
     inkscape:window-width="1082"
     inkscape:window-height="916"
     inkscape:window-x="1156"
     inkscape:window-y="319"
     inkscape:window-maximized="0"
     objecttolerance="10000">
    <inkscape:grid
       type="xygrid"
       id="grid3816"
       empspacing="5"
       visible="true"
       enabled="true"
       snapvisiblegridlinesonly="true" />
  </sodipodi:namedview>
  <metadata
     id="metadata7">
    <rdf:RDF>
      <cc:Work
         rdf:about="">
        <dc:format>image/svg+xml</dc:format>
        <dc:type
           rdf:resource="http://purl.org/dc/dcmitype/StillImage" />
        <dc:title></dc:title>
      </cc:Work>
    </rdf:RDF>
  </metadata>
  <g
     inkscape:label="Layer 1"
     inkscape:groupmode="layer"
     id="layer1">
    <path
       style="fill:#ffffff;stroke:#000000;stroke-width:3.12294316px;stroke-linecap:butt;stroke-linejoin:miter;stroke-opacity:1"
       d="m 51.982451,481.60306 0,153.2058 15.596211,0 0,-40.64644 93.577238,-78.16622 -21.83469,0 -71.742548,56.27968 0,-25.01319 77.981028,-62.53299 -21.83469,0 -56.146338,40.64645 0,-43.77309 z"
       id="path3818"
       inkscape:connector-curvature="0"
       sodipodi:nodetypes="ccccccccccccc" />
    <g
       id="g3826"
       transform="matrix(3.1192417,0,0,3.126649,-816.30337,-1378.882)"
       style="fill:#ffffff">
      <path
         inkscape:connector-curvature="0"
         id="path3820"
         d="m 327.97969,573.06903 55,0 5,5 -55,0 z"
         style="fill:#ffffff;stroke:#000000;stroke-width:1px;stroke-linecap:butt;stroke-linejoin:miter;stroke-opacity:1" />
      <path
         inkscape:connector-curvature="0"
         id="path3822"
         d="m 327.97969,587.92022 55,0 5,5 -55,0 z"
         style="fill:#ffffff;stroke:#000000;stroke-width:1px;stroke-linecap:butt;stroke-linejoin:miter;stroke-opacity:1" />
      <path
         inkscape:connector-curvature="0"
         id="path3824"
         d="m 327.97969,602.77144 55,0 5,5 -55,0 z"
         style="fill:#ffffff;stroke:#000000;stroke-width:1px;stroke-linecap:butt;stroke-linejoin:miter;stroke-opacity:1" />
    </g>
    <g
       id="g3855"
       transform="matrix(3.1192417,0,0,3.126649,-351.73079,-1393.1894)">
      <path
         sodipodi:nodetypes="ccccccccccccc"
         inkscape:connector-curvature="0"
         id="path3849"
         d="m 280,647.36218 5,0 0,-23 20,-27 -5,0 -15,20 0,-20 -5,0 0,20 -15,-20 -5,0 20,27 z"
         style="fill:#ffffff;stroke:#000000;stroke-width:1px;stroke-linecap:butt;stroke-linejoin:miter;stroke-opacity:1" />
      <path
         inkscape:connector-curvature="0"
         id="path3851"
         d="m 290,627.36218 10,-10 0,5 -10,10 0,-5 z"
         style="fill:#ffffff;stroke:#000000;stroke-width:1px;stroke-linecap:butt;stroke-linejoin:miter;stroke-opacity:1" />
      <path
         inkscape:connector-curvature="0"
         id="path3853"
         d="m 275,632.36218 0,-5 -10,-10 0,5 z"
         style="fill:#ffffff;stroke:#000000;stroke-width:1px;stroke-linecap:butt;stroke-linejoin:miter;stroke-opacity:1" />
    </g>
    <path
       style="fill:#ffffff;stroke:#000000;stroke-width:3.12294316px;stroke-linecap:butt;stroke-linejoin:miter;stroke-opacity:1"
       d="m 465.25505,704.86621 0,125.06596 124.76966,0 0,-125.06596 -124.76966,0 z m 15.59621,15.63324 93.57725,0 0,93.79947 -93.57725,0 0,-93.79947 z"
       id="path3862"
       inkscape:connector-curvature="0" />
    <path
       style="fill:#ffffff;stroke:#000000;stroke-width:3.12294316px;stroke-linecap:butt;stroke-linejoin:miter;stroke-opacity:1"
       d="m 84.301693,677.97633 15.59621,0 0,46.89974 46.788617,0 0,15.63324 -46.788617,0 0,31.26648 46.788617,0 0,15.63325 -46.788617,0 0,46.89974 -15.59621,0 0,-46.89974 -46.788619,0 0,-15.63325 46.788619,0 0,-31.26648 -46.788619,0 0,-15.63324 46.788619,0 z"
       id="path3907"
       inkscape:connector-curvature="0"
       sodipodi:nodetypes="ccccccccccccccccccccc" />
    <g
       id="g3913"
       transform="matrix(3.1192417,0,0,3.126649,-312.29871,-1305.1996)">
      <path
         sodipodi:nodetypes="ccccccccccccc"
         inkscape:connector-curvature="0"
         id="path3909"
         d="m 175.17857,657.36218 0,20 45,0 0,-20 -5,0 0,15 -15,0 0,-35 -5,0 0,35 -15,0 0,-15 z"
         style="fill:#ffffff;stroke:#000000;stroke-width:1px;stroke-linecap:butt;stroke-linejoin:miter;stroke-opacity:1" />
      <path
         inkscape:connector-curvature="0"
         id="path3911"
         d="m 175.17857,682.36218 45,0 0,5 -45,0 z"
         style="fill:#ffffff;stroke:#000000;stroke-width:1px;stroke-linecap:butt;stroke-linejoin:miter;stroke-opacity:1" />
    </g>
    <rect
       style="fill:#f0f0f0;fill-opacity:1;stroke:#919191;stroke-width:17.71653557;stroke-miterlimit:4;stroke-opacity:1;stroke-dasharray:none;stroke-dashoffset:0"
       id="rect2985"
       width="262.85715"
       height="262.85715"
       x="49.012669"
       y="81.926346"
       ry="28.571428" />
  </g>
</svg>
